0
SECTION
2
HEADER
9
$INSUNITS
70
4
9
$ACADVER
1
AC1014
9
$HANDSEED
5
FFFF
0
ENDSEC
0
SECTION
2
TABLES
0
TABLE
2
VPORT
5
8
100
AcDbSymbolTable
0
ENDTAB
0
TABLE
2
LTYPE
5
5
100
AcDbSymbolTable
0
LTYPE
5
14
100
AcDbSymbolTableRecord
100
AcDbLinetypeTableRecord
2
BYBLOCK
70
0
0
LTYPE
5
15
100
AcDbSymbolTableRecord
100
AcDbLinetypeTableRecord
2
BYLAYER
70
0
0
ENDTAB
0
TABLE
2
LAYER
5
2
100
AcDbSymbolTable
70
2
0
LAYER
5
50
100
AcDbSymbolTableRecord
100
AcDbLayerTableRecord
2
0
70
0
6
CONTINUOUS
0
ENDTAB
0
TABLE
2
STYLE
5
3
100
AcDbSymbolTable
70
1
0
STYLE
5
11
100
AcDbSymbolTableRecord
100
AcDbTextStyleTableRecord
2
STANDARD
70
0
0
ENDTAB
0
TABLE
2
VIEW
5
6
100
AcDbSymbolTable
70
0
0
ENDTAB
0
TABLE
2
UCS
5
7
100
AcDbSymbolTable
70
0
0
ENDTAB
0
TABLE
2
APPID
5
9
100
AcDbSymbolTable
70
2
0
APPID
5
12
100
AcDbSymbolTableRecord
100
AcDbRegAppTableRecord
2
ACAD
70
0
0
ENDTAB
0
TABLE
2
DIMSTYLE
5
A
100
AcDbSymbolTable
70
1
0
ENDTAB
0
TABLE
2
BLOCK_RECORD
5
1
100
AcDbSymbolTable
70
1
0
BLOCK_RECORD
5
1F
100
AcDbSymbolTableRecord
100
AcDbBlockTableRecord
2
*MODEL_SPACE
0
BLOCK_RECORD
5
1B
100
AcDbSymbolTableRecord
100
AcDbBlockTableRecord
2
*PAPER_SPACE
0
ENDTAB
0
ENDSEC
0
SECTION
2
BLOCKS
0
BLOCK
5
20
100
AcDbEntity
100
AcDbBlockBegin
2
*MODEL_SPACE
0
ENDBLK
5
21
100
AcDbEntity
100
AcDbBlockEnd
0
BLOCK
5
1C
100
AcDbEntity
100
AcDbBlockBegin
2
*PAPER_SPACE
0
ENDBLK
5
1D
100
AcDbEntity
100
AcDbBlockEnd
0
ENDSEC
0
SECTION
2
ENTITIES
0
LINE
5
100
100
AcDbEntity
8
0
100
AcDbLine
10
435.53867273752581
20
105.00198593979812
30
0
11
399.99999999958516
21
105.00198593953007
31
0
0
ARC
5
101
100
AcDbEntity
8
0
100
AcDbCircle
10
437.03867273759226
20
105.00198593980946
30
0
40
1.5000000000664926
210
0
220
0
230
1
100
AcDbArc
50
-180
51
0
0
LINE
5
102
100
AcDbEntity
8
0
100
AcDbLine
10
446.9999256800246
20
105.00198593989332
30
0
11
438.53867273765877
21
105.00198593982076
31
0
0
ARC
5
103
100
AcDbEntity
8
0
100
AcDbCircle
10
446.99992568010765
20
95.001985939915329
30
0
40
9.9999999999831708
210
0
220
-0
230
1
100
AcDbArc
50
0.0002499457892673648
51
90.000000000475836
0
ARC
5
104
100
AcDbEntity
8
0
100
AcDbCircle
10
446.99992567995173
20
95.001985940154213
30
0
40
10.00000000013908
210
0
220
0
230
1
100
AcDbArc
50
-90.000406919950834
51
0.00024994433108803822
0
CIRCLE
5
105
100
AcDbEntity
8
0
100
AcDbCircle
10
446.99992567995173
20
95.001985940154213
30
0
40
3.5000000000000142
210
0
220
0
230
1
0
LINE
5
106
100
AcDbEntity
8
0
100
AcDbLine
10
438.46482614410536
20
85.001985940014023
30
0
11
446.99985465902239
21
85.001985940267332
31
0
0
ARC
5
107
100
AcDbEntity
8
0
100
AcDbCircle
10
436.96482614413799
20
85.001985940015118
30
0
40
1.4999999999673719
210
-0
220
0
230
1
100
AcDbArc
50
0
51
180
0
LINE
5
108
100
AcDbEntity
8
0
100
AcDbLine
10
400
20
85.001985940015174
30
0
11
435.46482614417062
21
85.001985940015118
31
0
0
LINE
5
109
100
AcDbEntity
8
0
100
AcDbLine
10
0
20
0
30
0
11
400
21
-1.2325951644078309e-30
31
0
0
LINE
5
110
100
AcDbEntity
8
0
100
AcDbLine
10
400
20
990
30
0
11
0
21
990
31
0
0
LINE
5
111
100
AcDbEntity
8
0
100
AcDbLine
10
0
20
990
30
0
11
0
21
0
31
0
0
LINE
5
112
100
AcDbEntity
8
0
100
AcDbLine
10
435.53867273799619
20
105.00198593954184
30
0
11
400
21
105.00198593927379
31
0
0
ARC
5
113
100
AcDbEntity
8
0
100
AcDbCircle
10
437.0386727380627
20
105.00198593955318
30
0
40
1.5000000000664926
210
0
220
0
230
1
100
AcDbArc
50
-180
51
0
0
LINE
5
114
100
AcDbEntity
8
0
100
AcDbLine
10
446.99992567968513
20
105.00198593963475
30
0
11
438.53867273808828
21
105.00198593956448
31
0
0
ARC
5
115
100
AcDbEntity
8
0
100
AcDbCircle
10
446.99992567977341
20
95.0019859396524
30
0
40
9.9999999999779838
210
0
220
-0
230
1
100
AcDbArc
50
0.0002499457892673648
51
90.000000000505793
0
ARC
5
116
100
AcDbEntity
8
0
100
AcDbCircle
10
446.99992567968491
20
95.001985939897935
30
0
40
9.9999999998868283
210
0
220
0
230
1
100
AcDbArc
50
-90.000000000019853
51
0.00024994433108803822
0
CIRCLE
5
117
100
AcDbEntity
8
0
100
AcDbCircle
10
446.99992567968491
20
95.001985939897935
30
0
40
3.5000000000000142
210
0
220
0
230
1
0
LINE
5
118
100
AcDbEntity
8
0
100
AcDbLine
10
438.4648261441057
20
85.001985940015118
30
0
11
446.99992567968144
21
85.00198594001111
31
0
0
ARC
5
119
100
AcDbEntity
8
0
100
AcDbCircle
10
436.96482614413833
20
85.001985940015146
30
0
40
1.4999999999673719
210
-0
220
0
230
1
100
AcDbArc
50
0
51
180
0
LINE
5
120
100
AcDbEntity
8
0
100
AcDbLine
10
400.00000000000006
20
85.00198594001516
30
0
11
435.46482614417096
21
85.001985940015118
31
0
0
LINE
5
121
100
AcDbEntity
8
0
100
AcDbLine
10
435.53867273799619
20
505.00198593954178
30
0
11
400
21
505.00198593927382
31
0
0
ARC
5
122
100
AcDbEntity
8
0
100
AcDbCircle
10
437.0386727380627
20
505.00198593955315
30
0
40
1.5000000000664926
210
0
220
0
230
1
100
AcDbArc
50
-180
51
0
0
LINE
5
123
100
AcDbEntity
8
0
100
AcDbLine
10
446.99992567968513
20
505.00198593963478
30
0
11
438.53867273808828
21
505.00198593956446
31
0
0
ARC
5
124
100
AcDbEntity
8
0
100
AcDbCircle
10
446.99992567977341
20
495.0019859396524
30
0
40
9.9999999999779838
210
0
220
-0
230
1
100
AcDbArc
50
0.0002499457892673648
51
90.000000000505793
0
ARC
5
125
100
AcDbEntity
8
0
100
AcDbCircle
10
446.99992567968491
20
495.00198593989796
30
0
40
9.9999999998868105
210
0
220
0
230
1
100
AcDbArc
50
-90.000000000019853
51
0.00024994433108803822
0
CIRCLE
5
126
100
AcDbEntity
8
0
100
AcDbCircle
10
446.99992567995173
20
495.00198594015421
30
0
40
3.5000000000000142
210
0
220
0
230
1
0
LINE
5
127
100
AcDbEntity
8
0
100
AcDbLine
10
438.46482614410536
20
485.00198594001404
30
0
11
446.99985465902239
21
485.00198594026733
31
0
0
ARC
5
128
100
AcDbEntity
8
0
100
AcDbCircle
10
436.96482614413799
20
485.00198594001512
30
0
40
1.4999999999673719
210
-0
220
0
230
1
100
AcDbArc
50
0
51
180
0
LINE
5
129
100
AcDbEntity
8
0
100
AcDbLine
10
400.00000000000006
20
485.00198594001517
30
0
11
435.46482614417096
21
485.00198594001512
31
0
0
LINE
5
130
100
AcDbEntity
8
0
100
AcDbLine
10
435.53867273799619
20
905.00198593954178
30
0
11
400
21
905.00198593927382
31
0
0
ARC
5
131
100
AcDbEntity
8
0
100
AcDbCircle
10
437.0386727380627
20
905.00198593955315
30
0
40
1.5000000000664926
210
0
220
0
230
1
100
AcDbArc
50
-180
51
0
0
LINE
5
132
100
AcDbEntity
8
0
100
AcDbLine
10
446.99992567968513
20
905.00198593963478
30
0
11
438.53867273808828
21
905.00198593956441
31
0
0
ARC
5
133
100
AcDbEntity
8
0
100
AcDbCircle
10
446.99992567977341
20
895.0019859396524
30
0
40
9.9999999999779838
210
0
220
-0
230
1
100
AcDbArc
50
0.0002499457892673648
51
90.000000000505793
0
ARC
5
134
100
AcDbEntity
8
0
100
AcDbCircle
10
446.99992567968491
20
895.00198593989796
30
0
40
9.9999999998868816
210
0
220
0
230
1
100
AcDbArc
50
-90.000000000019853
51
0.00024994433108803822
0
CIRCLE
5
135
100
AcDbEntity
8
0
100
AcDbCircle
10
446.99992567995173
20
895.0019859401541
30
0
40
3.5000000000000142
210
0
220
0
230
1
0
LINE
5
136
100
AcDbEntity
8
0
100
AcDbLine
10
438.46482614410536
20
885.00198594001404
30
0
11
446.99985465902239
21
885.00198594026733
31
0
0
ARC
5
137
100
AcDbEntity
8
0
100
AcDbCircle
10
436.96482614413799
20
885.00198594001517
30
0
40
1.4999999999673719
210
-0
220
0
230
1
100
AcDbArc
50
0
51
180
0
LINE
5
138
100
AcDbEntity
8
0
100
AcDbLine
10
400.00000000000006
20
885.00198594001517
30
0
11
435.46482614417096
21
885.00198594001517
31
0
0
LINE
5
139
100
AcDbEntity
8
0
100
AcDbLine
10
400
20
905.00198593927382
30
0
11
400
21
990
31
0
0
LINE
5
140
100
AcDbEntity
8
0
100
AcDbLine
10
400
20
505.00198593927382
30
0
11
400.00000000000006
21
885.00198594001517
31
0
0
LINE
5
141
100
AcDbEntity
8
0
100
AcDbLine
10
400
20
-1.2325951644078309e-30
30
0
11
400
21
85.001985940015174
31
0
0
LINE
5
142
100
AcDbEntity
8
0
100
AcDbLine
10
399.99999999958516
20
105.00198593953007
30
0
11
400.00000000000006
21
485.00198594001517
31
0
0
CIRCLE
5
143
100
AcDbEntity
8
0
100
AcDbCircle
10
380.00000566244125
20
20.000000298023224
30
0
40
4.0000000000000187
210
0
220
0
230
1
0
CIRCLE
5
144
100
AcDbEntity
8
0
100
AcDbCircle
10
20.000000298023224
20
20.000000298023224
30
0
40
3.9999999999999991
210
0
220
0
230
1
0
CIRCLE
5
145
100
AcDbEntity
8
0
100
AcDbCircle
10
20.000000298023224
20
970.00001445412636
30
0
40
4.0000000000000036
210
0
220
0
230
1
0
CIRCLE
5
146
100
AcDbEntity
8
0
100
AcDbCircle
10
380.00000566244125
20
970.00001445412636
30
0
40
4.0000000000000568
210
0
220
0
230
1
0
ENDSEC
0
SECTION
2
OBJECTS
0
DICTIONARY
5
C
100
AcDbDictionary
3
ACAD_GROUP
350
D
3
ACAD_MLINESTYLE
350
17
0
DICTIONARY
5
D
100
AcDbDictionary
0
DICTIONARY
5
1A
330
C
100
AcDbDictionary
0
DICTIONARY
5
17
100
AcDbDictionary
0
ENDSEC
0
EOF
