0
SECTION
2
HEADER
9
$INSUNITS
70
4
9
$ACADVER
1
AC1014
9
$HANDSEED
5
FFFF
0
ENDSEC
0
SECTION
2
TABLES
0
TABLE
2
VPORT
5
8
100
AcDbSymbolTable
0
ENDTAB
0
TABLE
2
LTYPE
5
5
100
AcDbSymbolTable
0
LTYPE
5
14
100
AcDbSymbolTableRecord
100
AcDbLinetypeTableRecord
2
BYBLOCK
70
0
0
LTYPE
5
15
100
AcDbSymbolTableRecord
100
AcDbLinetypeTableRecord
2
BYLAYER
70
0
0
ENDTAB
0
TABLE
2
LAYER
5
2
100
AcDbSymbolTable
70
2
0
LAYER
5
50
100
AcDbSymbolTableRecord
100
AcDbLayerTableRecord
2
0
70
0
6
CONTINUOUS
0
ENDTAB
0
TABLE
2
STYLE
5
3
100
AcDbSymbolTable
70
1
0
STYLE
5
11
100
AcDbSymbolTableRecord
100
AcDbTextStyleTableRecord
2
STANDARD
70
0
0
ENDTAB
0
TABLE
2
VIEW
5
6
100
AcDbSymbolTable
70
0
0
ENDTAB
0
TABLE
2
UCS
5
7
100
AcDbSymbolTable
70
0
0
ENDTAB
0
TABLE
2
APPID
5
9
100
AcDbSymbolTable
70
2
0
APPID
5
12
100
AcDbSymbolTableRecord
100
AcDbRegAppTableRecord
2
ACAD
70
0
0
ENDTAB
0
TABLE
2
DIMSTYLE
5
A
100
AcDbSymbolTable
70
1
0
ENDTAB
0
TABLE
2
BLOCK_RECORD
5
1
100
AcDbSymbolTable
70
1
0
BLOCK_RECORD
5
1F
100
AcDbSymbolTableRecord
100
AcDbBlockTableRecord
2
*MODEL_SPACE
0
BLOCK_RECORD
5
1B
100
AcDbSymbolTableRecord
100
AcDbBlockTableRecord
2
*PAPER_SPACE
0
ENDTAB
0
ENDSEC
0
SECTION
2
BLOCKS
0
BLOCK
5
20
100
AcDbEntity
100
AcDbBlockBegin
2
*MODEL_SPACE
0
ENDBLK
5
21
100
AcDbEntity
100
AcDbBlockEnd
0
BLOCK
5
1C
100
AcDbEntity
100
AcDbBlockBegin
2
*PAPER_SPACE
0
ENDBLK
5
1D
100
AcDbEntity
100
AcDbBlockEnd
0
ENDSEC
0
SECTION
2
ENTITIES
0
LINE
5
100
100
AcDbEntity
8
0
100
AcDbLine
10
4.9999999999999991
20
0
30
0
11
395
21
2.1649348980190553e-14
31
0
0
LINE
5
101
100
AcDbEntity
8
0
100
AcDbLine
10
395
20
2490
30
0
11
4.9999999999999991
21
2490
31
0
0
LINE
5
102
100
AcDbEntity
8
0
100
AcDbLine
10
0
20
2485
30
0
11
-1.1102230246251565e-15
21
5
31
0
0
LINE
5
103
100
AcDbEntity
8
0
100
AcDbLine
10
456.99992567965626
20
45.002029563397343
30
0
11
456.99992567965626
21
45.002029563397343
31
0
0
ARC
5
104
100
AcDbEntity
8
0
100
AcDbCircle
10
446.99992567977341
20
45.001985939652407
30
0
40
9.9999999999779838
210
0
220
-0
230
1
100
AcDbArc
50
0.0002499457892673648
51
90.000000000405478
0
ARC
5
105
100
AcDbEntity
8
0
100
AcDbCircle
10
446.99992567968491
20
45.001985939897935
30
0
40
10.000000000139089
210
0
220
0
230
1
100
AcDbArc
50
-90.000406919950834
51
0.00024994433108803822
0
CIRCLE
5
106
100
AcDbEntity
8
0
100
AcDbCircle
10
446.99992567968491
20
45.001985939897935
30
0
40
3.5000000000000142
210
0
220
0
230
1
0
ARC
5
107
100
AcDbEntity
8
0
100
AcDbCircle
10
437.0386727380627
20
55.001985939553172
30
0
40
1.5000000000664926
210
0
220
0
230
1
100
AcDbArc
50
-180
51
0
0
ARC
5
108
100
AcDbEntity
8
0
100
AcDbCircle
10
436.96482614413833
20
35.001985940015153
30
0
40
1.4999999999673719
210
-0
220
0
230
1
100
AcDbArc
50
0
51
180
0
LINE
5
109
100
AcDbEntity
8
0
100
AcDbLine
10
400
20
35.00198594001516
30
0
11
435.46482614412992
21
35.001985940015153
31
0
0
LINE
5
110
100
AcDbEntity
8
0
100
AcDbLine
10
438.4648261441057
20
35.001985940014031
30
0
11
446.99985465875557
21
35.001985940011046
31
0
0
LINE
5
111
100
AcDbEntity
8
0
100
AcDbLine
10
446.99992567970264
20
55.001985939639148
30
0
11
438.53867273808828
21
55.001985939564484
31
0
0
LINE
5
112
100
AcDbEntity
8
0
100
AcDbLine
10
435.53867273799619
20
55.001985939541854
30
0
11
400
21
55.001985939273787
31
0
0
LINE
5
113
100
AcDbEntity
8
0
100
AcDbLine
10
435.53870563391968
20
455.00039608468217
30
0
11
400
21
455.00039608468217
31
0
0
ARC
5
114
100
AcDbEntity
8
0
100
AcDbCircle
10
437.03870563391968
20
455.00039608468217
30
0
40
1.4999999999999858
210
0
220
0
230
1
100
AcDbArc
50
-180
51
0
0
LINE
5
115
100
AcDbEntity
8
0
100
AcDbLine
10
446.99997693272348
20
455.00039608468217
30
0
11
438.53870563391968
21
455.00039608468217
31
0
0
ARC
5
116
100
AcDbEntity
8
0
100
AcDbCircle
10
446.99997693272348
20
445.00039608468217
30
0
40
10.000000000000036
210
0
220
-0
230
1
100
AcDbArc
50
4.9951230913888959e-05
51
90
0
ARC
5
117
100
AcDbEntity
8
0
100
AcDbCircle
10
446.99997693272348
20
445.00039608468956
30
0
40
10
210
0
220
0
230
1
100
AcDbArc
50
-90.000000000000313
51
4.9951230913888959e-05
0
LINE
5
118
100
AcDbEntity
8
0
100
AcDbLine
10
438.4648472449594
20
435.00039608468956
30
0
11
446.99997693272343
21
435.00039608468956
31
0
0
CIRCLE
5
119
100
AcDbEntity
8
0
100
AcDbCircle
10
446.99997693272348
20
445.00039608468956
30
0
40
3.5000000000000142
210
0
220
0
230
1
0
ARC
5
120
100
AcDbEntity
8
0
100
AcDbCircle
10
436.9648472449594
20
435.00039608468956
30
0
40
1.4999999999999858
210
0
220
0
230
1
100
AcDbArc
50
0
51
180
0
LINE
5
121
100
AcDbEntity
8
0
100
AcDbLine
10
400
20
435.00039608468956
30
0
11
435.4648472449594
21
435.00039608468956
31
0
0
LINE
5
122
100
AcDbEntity
8
0
100
AcDbLine
10
400
20
4.9999999999999991
30
0
11
400
21
35.00198594001516
31
0
0
LINE
5
123
100
AcDbEntity
8
0
100
AcDbLine
10
435.53870563391968
20
855.00039608468217
30
0
11
400
21
855.00039608468217
31
0
0
ARC
5
124
100
AcDbEntity
8
0
100
AcDbCircle
10
437.03870563391968
20
855.00039608468217
30
0
40
1.4999999999999858
210
0
220
0
230
1
100
AcDbArc
50
-180
51
0
0
LINE
5
125
100
AcDbEntity
8
0
100
AcDbLine
10
446.99997693272348
20
855.00039608468217
30
0
11
438.53870563391968
21
855.00039608468217
31
0
0
ARC
5
126
100
AcDbEntity
8
0
100
AcDbCircle
10
446.99997693272348
20
845.00039608468217
30
0
40
10.000000000000036
210
0
220
-0
230
1
100
AcDbArc
50
4.9951230913888959e-05
51
90
0
ARC
5
127
100
AcDbEntity
8
0
100
AcDbCircle
10
446.99997693272348
20
845.00039608468956
30
0
40
10
210
0
220
0
230
1
100
AcDbArc
50
-90.000000000000313
51
4.9951230913888959e-05
0
CIRCLE
5
128
100
AcDbEntity
8
0
100
AcDbCircle
10
446.99997693272348
20
845.00039608468956
30
0
40
3.5000000000000142
210
0
220
0
230
1
0
LINE
5
129
100
AcDbEntity
8
0
100
AcDbLine
10
438.4648472449594
20
835.00039608468956
30
0
11
446.99997693272343
21
835.00039608468956
31
0
0
ARC
5
130
100
AcDbEntity
8
0
100
AcDbCircle
10
436.9648472449594
20
835.00039608468956
30
0
40
1.4999999999999858
210
0
220
0
230
1
100
AcDbArc
50
0
51
180
0
LINE
5
131
100
AcDbEntity
8
0
100
AcDbLine
10
400
20
835.00039608468956
30
0
11
435.4648472449594
21
835.00039608468956
31
0
0
LINE
5
132
100
AcDbEntity
8
0
100
AcDbLine
10
435.53870563391968
20
2455.0003960846825
30
0
11
400
21
2455.0003960846825
31
0
0
ARC
5
133
100
AcDbEntity
8
0
100
AcDbCircle
10
437.03870563391968
20
2455.0003960846825
30
0
40
1.4999999999999858
210
0
220
0
230
1
100
AcDbArc
50
-180
51
0
0
LINE
5
134
100
AcDbEntity
8
0
100
AcDbLine
10
446.99997693272348
20
2455.0003960846825
30
0
11
438.53870563391968
21
2455.0003960846825
31
0
0
ARC
5
135
100
AcDbEntity
8
0
100
AcDbCircle
10
446.99997693272348
20
2445.0003960846825
30
0
40
10.000000000000036
210
0
220
-0
230
1
100
AcDbArc
50
4.9951230913888959e-05
51
90
0
ARC
5
136
100
AcDbEntity
8
0
100
AcDbCircle
10
446.99997693272348
20
2445.0003960846898
30
0
40
10
210
0
220
0
230
1
100
AcDbArc
50
-90.000000000000313
51
4.9951230913888959e-05
0
CIRCLE
5
137
100
AcDbEntity
8
0
100
AcDbCircle
10
446.99997693272348
20
2445.0003960846898
30
0
40
3.5000000000000142
210
0
220
0
230
1
0
LINE
5
138
100
AcDbEntity
8
0
100
AcDbLine
10
438.4648472449594
20
2435.0003960846898
30
0
11
446.99997693272343
21
2435.0003960846898
31
0
0
ARC
5
139
100
AcDbEntity
8
0
100
AcDbCircle
10
436.9648472449594
20
2435.0003960846898
30
0
40
1.4999999999999858
210
0
220
0
230
1
100
AcDbArc
50
0
51
180
0
LINE
5
140
100
AcDbEntity
8
0
100
AcDbLine
10
400
20
2435.0003960846898
30
0
11
435.4648472449594
21
2435.0003960846898
31
0
0
LINE
5
141
100
AcDbEntity
8
0
100
AcDbLine
10
435.53870563391968
20
1255.0003960846821
30
0
11
400
21
1255.0003960846821
31
0
0
ARC
5
142
100
AcDbEntity
8
0
100
AcDbCircle
10
437.03870563391968
20
1255.0003960846821
30
0
40
1.4999999999999858
210
0
220
0
230
1
100
AcDbArc
50
-180
51
0
0
LINE
5
143
100
AcDbEntity
8
0
100
AcDbLine
10
446.99997693272348
20
1255.0003960846821
30
0
11
438.53870563391968
21
1255.0003960846821
31
0
0
ARC
5
144
100
AcDbEntity
8
0
100
AcDbCircle
10
446.99997693272348
20
1245.0003960846821
30
0
40
10.000000000000036
210
0
220
-0
230
1
100
AcDbArc
50
4.9951230913888959e-05
51
90
0
ARC
5
145
100
AcDbEntity
8
0
100
AcDbCircle
10
436.9648472449594
20
1635.0003960846898
30
0
40
1.4999999999999858
210
0
220
0
230
1
100
AcDbArc
50
0
51
180
0
ARC
5
146
100
AcDbEntity
8
0
100
AcDbCircle
10
446.99997693272348
20
1645.0003960846898
30
0
40
10
210
0
220
0
230
1
100
AcDbArc
50
-90
51
4.9951230913888959e-05
0
ARC
5
147
100
AcDbEntity
8
0
100
AcDbCircle
10
446.99997693272348
20
1645.0003960846823
30
0
40
10.000000000000036
210
0
220
-0
230
1
100
AcDbArc
50
4.9951230913888959e-05
51
90
0
CIRCLE
5
148
100
AcDbEntity
8
0
100
AcDbCircle
10
446.99997693272348
20
1645.0003960846898
30
0
40
3.5000000000000142
210
0
220
0
230
1
0
LINE
5
149
100
AcDbEntity
8
0
100
AcDbLine
10
446.99997693272348
20
1655.0003960846823
30
0
11
438.53870563391968
21
1655.0003960846823
31
0
0
LINE
5
150
100
AcDbEntity
8
0
100
AcDbLine
10
400
20
1235.0003960846896
30
0
11
435.4648472449594
21
1235.0003960846896
31
0
0
LINE
5
151
100
AcDbEntity
8
0
100
AcDbLine
10
438.4648472449594
20
1235.0003960846896
30
0
11
446.99997693272348
21
1235.0003960846896
31
0
0
ARC
5
152
100
AcDbEntity
8
0
100
AcDbCircle
10
446.99997693272348
20
1245.0003960846896
30
0
40
10
210
0
220
0
230
1
100
AcDbArc
50
-90
51
4.9951230913888959e-05
0
CIRCLE
5
153
100
AcDbEntity
8
0
100
AcDbCircle
10
446.99997693272348
20
1245.0003960846896
30
0
40
3.5000000000000142
210
0
220
0
230
1
0
ARC
5
154
100
AcDbEntity
8
0
100
AcDbCircle
10
436.9648472449594
20
1235.0003960846896
30
0
40
1.4999999999999858
210
0
220
0
230
1
100
AcDbArc
50
0
51
180
0
LINE
5
155
100
AcDbEntity
8
0
100
AcDbLine
10
435.53870563391968
20
1655.0003960846823
30
0
11
400
21
1655.0003960846823
31
0
0
LINE
5
156
100
AcDbEntity
8
0
100
AcDbLine
10
400
20
1635.0003960846898
30
0
11
435.4648472449594
21
1635.0003960846898
31
0
0
LINE
5
157
100
AcDbEntity
8
0
100
AcDbLine
10
438.4648472449594
20
1635.0003960846898
30
0
11
446.99997693272348
21
1635.0003960846898
31
0
0
CIRCLE
5
158
100
AcDbEntity
8
0
100
AcDbCircle
10
446.99997693272348
20
1645.0003960846898
30
0
40
3.5000000000000142
210
0
220
0
230
1
0
LINE
5
159
100
AcDbEntity
8
0
100
AcDbLine
10
446.99997693272348
20
1655.0003960846823
30
0
11
438.53870563391968
21
1655.0003960846823
31
0
0
ARC
5
160
100
AcDbEntity
8
0
100
AcDbCircle
10
437.03870563391968
20
1655.0003960846823
30
0
40
1.4999999999999858
210
0
220
0
230
1
100
AcDbArc
50
-180
51
0
0
LINE
5
161
100
AcDbEntity
8
0
100
AcDbLine
10
435.53870563391968
20
2055.0003960846825
30
0
11
400
21
2055.0003960846825
31
0
0
ARC
5
162
100
AcDbEntity
8
0
100
AcDbCircle
10
437.03870563391968
20
2055.0003960846825
30
0
40
1.4999999999999858
210
0
220
0
230
1
100
AcDbArc
50
-180
51
0
0
LINE
5
163
100
AcDbEntity
8
0
100
AcDbLine
10
446.99997693272348
20
2055.0003960846825
30
0
11
438.53870563391968
21
2055.0003960846825
31
0
0
ARC
5
164
100
AcDbEntity
8
0
100
AcDbCircle
10
446.99997693272348
20
2045.0003960846823
30
0
40
10.000000000000036
210
0
220
-0
230
1
100
AcDbArc
50
4.9951230913888959e-05
51
90
0
ARC
5
165
100
AcDbEntity
8
0
100
AcDbCircle
10
446.99997693272348
20
2045.0003960846898
30
0
40
10
210
0
220
0
230
1
100
AcDbArc
50
-90
51
4.9951230913888959e-05
0
CIRCLE
5
166
100
AcDbEntity
8
0
100
AcDbCircle
10
446.99997693272348
20
2045.0003960846898
30
0
40
3.5000000000000142
210
0
220
0
230
1
0
LINE
5
167
100
AcDbEntity
8
0
100
AcDbLine
10
438.4648472449594
20
2035.0003960846898
30
0
11
446.99997693272348
21
2035.0003960846898
31
0
0
ARC
5
168
100
AcDbEntity
8
0
100
AcDbCircle
10
436.9648472449594
20
2035.0003960846898
30
0
40
1.4999999999999858
210
0
220
0
230
1
100
AcDbArc
50
0
51
180
0
LINE
5
169
100
AcDbEntity
8
0
100
AcDbLine
10
400
20
2035.0003960846898
30
0
11
435.4648472449594
21
2035.0003960846898
31
0
0
LINE
5
170
100
AcDbEntity
8
0
100
AcDbLine
10
400
20
2455.0003960846825
30
0
11
400.00000000000006
21
2485
31
0
0
LINE
5
171
100
AcDbEntity
8
0
100
AcDbLine
10
400
20
2055.0003960846825
30
0
11
400
21
2435.0003960846898
31
0
0
LINE
5
172
100
AcDbEntity
8
0
100
AcDbLine
10
400
20
1655.0003960846823
30
0
11
400
21
2035.0003960846898
31
0
0
LINE
5
173
100
AcDbEntity
8
0
100
AcDbLine
10
400
20
1255.0003960846821
30
0
11
400
21
1635.0003960846898
31
0
0
LINE
5
174
100
AcDbEntity
8
0
100
AcDbLine
10
400
20
855.00039608468217
30
0
11
400
21
1235.0003960846896
31
0
0
CIRCLE
5
175
100
AcDbEntity
8
0
100
AcDbCircle
10
380.00000566244125
20
20.000000298023224
30
0
40
4.0000000000000124
210
0
220
0
230
1
0
CIRCLE
5
176
100
AcDbEntity
8
0
100
AcDbCircle
10
20
20
20
30
0
40
3.9999999999999991
210
0
220
0
230
1
0
CIRCLE
5
177
100
AcDbEntity
8
0
100
AcDbCircle
10
380.00000566244125
20
2470.0000368058681
30
0
40
3.9999999999999574
210
0
220
0
230
1
0
CIRCLE
5
178
100
AcDbEntity
8
0
100
AcDbCircle
10
20.000000298023224
20
2470.0000368058681
30
0
40
3.9999999999999458
210
0
220
0
230
1
0
ARC
5
179
100
AcDbEntity
8
0
100
AcDbCircle
10
4.9999999999999503
20
2485
30
0
40
5
210
0
220
-0
230
1
100
AcDbArc
50
89.999999999999446
51
180
0
ARC
5
180
100
AcDbEntity
8
0
100
AcDbCircle
10
395.00000000000006
20
2485
30
0
40
5
210
0
220
-0
230
1
100
AcDbArc
50
0
51
90.000000000000654
0
ARC
5
181
100
AcDbEntity
8
0
100
AcDbCircle
10
395.00000000000006
20
4.9999999999999503
30
0
40
4.9999999999999281
210
0
220
0
230
1
100
AcDbArc
50
-90.000000000000654
51
0
0
ARC
5
182
100
AcDbEntity
8
0
100
AcDbCircle
10
4.9999999999999929
20
4.9999999999999947
30
0
40
4.9999999999999947
210
0
220
-0
230
1
100
AcDbArc
50
180
51
270.00000000000006
0
LINE
5
183
100
AcDbEntity
8
0
100
AcDbLine
10
400
20
55.001985939273787
30
0
11
400
21
435.00039608468956
31
0
0
LINE
5
184
100
AcDbEntity
8
0
100
AcDbLine
10
400
20
455.00039608468217
30
0
11
400
21
835.00039608468956
31
0
0
CIRCLE
5
185
100
AcDbEntity
8
0
100
AcDbCircle
10
29.999999850988388
20
1245
30
0
40
4
210
0
220
0
230
1
0
ENDSEC
0
SECTION
2
OBJECTS
0
DICTIONARY
5
C
100
AcDbDictionary
3
ACAD_GROUP
350
D
3
ACAD_MLINESTYLE
350
17
0
DICTIONARY
5
D
100
AcDbDictionary
0
DICTIONARY
5
1A
330
C
100
AcDbDictionary
0
DICTIONARY
5
17
100
AcDbDictionary
0
ENDSEC
0
EOF
