0
SECTION
2
HEADER
9
$INSUNITS
70
4
9
$ACADVER
1
AC1014
9
$HANDSEED
5
FFFF
0
ENDSEC
0
SECTION
2
TABLES
0
TABLE
2
VPORT
5
8
100
AcDbSymbolTable
0
ENDTAB
0
TABLE
2
LTYPE
5
5
100
AcDbSymbolTable
0
LTYPE
5
14
100
AcDbSymbolTableRecord
100
AcDbLinetypeTableRecord
2
BYBLOCK
70
0
0
LTYPE
5
15
100
AcDbSymbolTableRecord
100
AcDbLinetypeTableRecord
2
BYLAYER
70
0
0
ENDTAB
0
TABLE
2
LAYER
5
2
100
AcDbSymbolTable
70
2
0
LAYER
5
50
100
AcDbSymbolTableRecord
100
AcDbLayerTableRecord
2
0
70
0
6
CONTINUOUS
0
ENDTAB
0
TABLE
2
STYLE
5
3
100
AcDbSymbolTable
70
1
0
STYLE
5
11
100
AcDbSymbolTableRecord
100
AcDbTextStyleTableRecord
2
STANDARD
70
0
0
ENDTAB
0
TABLE
2
VIEW
5
6
100
AcDbSymbolTable
70
0
0
ENDTAB
0
TABLE
2
UCS
5
7
100
AcDbSymbolTable
70
0
0
ENDTAB
0
TABLE
2
APPID
5
9
100
AcDbSymbolTable
70
2
0
APPID
5
12
100
AcDbSymbolTableRecord
100
AcDbRegAppTableRecord
2
ACAD
70
0
0
ENDTAB
0
TABLE
2
DIMSTYLE
5
A
100
AcDbSymbolTable
70
1
0
ENDTAB
0
TABLE
2
BLOCK_RECORD
5
1
100
AcDbSymbolTable
70
1
0
BLOCK_RECORD
5
1F
100
AcDbSymbolTableRecord
100
AcDbBlockTableRecord
2
*MODEL_SPACE
0
BLOCK_RECORD
5
1B
100
AcDbSymbolTableRecord
100
AcDbBlockTableRecord
2
*PAPER_SPACE
0
ENDTAB
0
ENDSEC
0
SECTION
2
BLOCKS
0
BLOCK
5
20
100
AcDbEntity
100
AcDbBlockBegin
2
*MODEL_SPACE
0
ENDBLK
5
21
100
AcDbEntity
100
AcDbBlockEnd
0
BLOCK
5
1C
100
AcDbEntity
100
AcDbBlockBegin
2
*PAPER_SPACE
0
ENDBLK
5
1D
100
AcDbEntity
100
AcDbBlockEnd
0
ENDSEC
0
SECTION
2
ENTITIES
0
LWPOLYLINE
5
100
100
AcDbEntity
8
0
100
AcDbPolyline
90
49
70
1
43
0.0
10
400
20
205.00198593927379
10
435.53867273799619
20
205.00198593954184
42
0.99999999999999989
10
438.53867273808828
20
205.00198593956446
10
446.99992567968513
20
205.0019859396304
42
-0.41421228466634985
10
456.99992567972885
20
195.00202956339734
42
-0.41421692023465778
10
446.99985465875557
20
185.00198594001105
10
438.4648261441057
20
185.00198594001404
42
0.99999999999999989
10
435.46482614412992
20
185.00198594001515
10
400
20
185.00198594001517
10
400
20
9.8607613152626476e-31
10
0
20
0
10
0
20
2390
10
400
20
2390
10
400
20
2205.0019859392742
10
435.53867273799619
20
2205.001985939542
42
0.99999999999999989
10
438.53867273808828
20
2205.0019859395643
10
446.99992567968513
20
2205.0019859396307
42
-0.41421228466635301
10
456.99992567972885
20
2195.0020295633972
42
-0.41421692023465362
10
446.99985465875557
20
2185.0019859400113
10
438.4648261441057
20
2185.001985940014
42
0.99999999999999989
10
435.46482614412992
20
2185.0019859400154
10
400
20
2185.0019859400154
10
400
20
1805.0019859392739
10
435.53867273799619
20
1805.001985939542
42
0.99999999999999989
10
438.53867273808828
20
1805.0019859395643
10
446.99992567968513
20
1805.0019859396307
42
-0.41421228466635301
10
456.99992567972885
20
1795.0020295633974
42
-0.41421692023465362
10
446.99985465875557
20
1785.0019859400113
10
438.4648261441057
20
1785.001985940014
42
0.99999999999999989
10
435.46482614412992
20
1785.0019859400152
10
400
20
1785.0019859400152
10
400
20
1405.0019859392739
10
435.53867273799619
20
1405.001985939542
42
0.99999999999999989
10
438.53867273808828
20
1405.0019859395643
10
446.99992567968513
20
1405.0019859396307
42
-0.41421228466635301
10
456.99992567972885
20
1395.0020295633974
42
-0.41421692023465362
10
446.99985465875557
20
1385.0019859400113
10
438.4648261441057
20
1385.001985940014
42
0.99999999999999989
10
435.46482614412992
20
1385.0019859400152
10
400
20
1385.0019859400152
10
400
20
605.00198593927382
10
435.53867273799619
20
605.00198593954178
42
0.99999999999999989
10
438.53867273808828
20
605.00198593956452
10
446.99992567968513
20
605.00198593963034
42
-0.41421228466634885
10
456.99992567972885
20
595.0020295633974
42
-0.41421692023465778
10
446.99985465875557
20
585.00198594001108
10
438.4648261441057
20
585.00198594001404
42
0.99999999999999989
10
435.46482614412992
20
585.00198594001517
10
400
20
585.00198594001517
0
CIRCLE
5
101
100
AcDbEntity
8
0
100
AcDbCircle
10
446.99992567968491
20
195.00198593989793
30
0
40
3.5000000000000142
210
0
220
0
230
1
0
CIRCLE
5
102
100
AcDbEntity
8
0
100
AcDbCircle
10
446.99992567968491
20
595.00198593989796
30
0
40
3.5000000000000142
210
0
220
0
230
1
0
LINE
5
103
100
AcDbEntity
8
0
100
AcDbLine
10
435.53867273799619
20
1005.0019859395418
30
0
11
400
21
1005.0019859392738
31
0
0
LINE
5
104
100
AcDbEntity
8
0
100
AcDbLine
10
446.99992567968513
20
1005.0019859396348
30
0
11
438.53867273808828
21
1005.0019859395644
31
0
0
ARC
5
105
100
AcDbEntity
8
0
100
AcDbCircle
10
446.99992567977341
20
995.0019859396524
30
0
40
9.9999999999779838
210
0
220
-0
230
1
100
AcDbArc
50
0.0002499457892673648
51
90.000000000505793
0
ARC
5
106
100
AcDbEntity
8
0
100
AcDbCircle
10
446.99992567968491
20
995.00198593989796
30
0
40
10.00000000013908
210
0
220
0
230
1
100
AcDbArc
50
-90.000406919950834
51
0.00024994433108803822
0
LINE
5
107
100
AcDbEntity
8
0
100
AcDbLine
10
438.4648261441057
20
985.00198594001404
30
0
11
446.99985465875557
21
985.00198594001108
31
0
0
ARC
5
108
100
AcDbEntity
8
0
100
AcDbCircle
10
436.96482614413833
20
985.00198594001517
30
0
40
1.4999999999673719
210
-0
220
0
230
1
100
AcDbArc
50
0
51
180
0
CIRCLE
5
109
100
AcDbEntity
8
0
100
AcDbCircle
10
446.99992567968491
20
995.00198593989796
30
0
40
3.5000000000000142
210
0
220
0
230
1
0
LINE
5
110
100
AcDbEntity
8
0
100
AcDbLine
10
400
20
985.00198594001517
30
0
11
435.46482614412992
21
985.00198594001517
31
0
0
CIRCLE
5
111
100
AcDbEntity
8
0
100
AcDbCircle
10
446.99992567968491
20
1395.0019859398981
30
0
40
3.5000000000000142
210
0
220
0
230
1
0
CIRCLE
5
112
100
AcDbEntity
8
0
100
AcDbCircle
10
446.99992567968491
20
1795.0019859398981
30
0
40
3.5000000000000142
210
0
220
0
230
1
0
CIRCLE
5
113
100
AcDbEntity
8
0
100
AcDbCircle
10
446.99992567968491
20
2195.0019859398981
30
0
40
3.5000000000000142
210
0
220
0
230
1
0
CIRCLE
5
114
100
AcDbEntity
8
0
100
AcDbCircle
10
380.00000566244125
20
2370.000035315752
30
0
40
4.0000000000000195
210
0
220
0
230
1
0
CIRCLE
5
115
100
AcDbEntity
8
0
100
AcDbCircle
10
20.000000298023224
20
2370.000035315752
30
0
40
4.0000000000000586
210
0
220
0
230
1
0
CIRCLE
5
116
100
AcDbEntity
8
0
100
AcDbCircle
10
380
20
20
30
0
40
4.0000000000000124
210
0
220
0
230
1
0
CIRCLE
5
117
100
AcDbEntity
8
0
100
AcDbCircle
10
20
20
20
30
0
40
4
210
0
220
0
230
1
0
ARC
5
118
100
AcDbEntity
8
0
100
AcDbCircle
10
437.0386727380627
20
1005.0019859395532
30
0
40
1.5000000000664926
210
0
220
0
230
1
100
AcDbArc
50
-180
51
0
0
ENDSEC
0
SECTION
2
OBJECTS
0
DICTIONARY
5
C
100
AcDbDictionary
3
ACAD_GROUP
350
D
3
ACAD_MLINESTYLE
350
17
0
DICTIONARY
5
D
100
AcDbDictionary
0
DICTIONARY
5
1A
330
C
100
AcDbDictionary
0
DICTIONARY
5
17
100
AcDbDictionary
0
ENDSEC
0
EOF
