0
SECTION
2
HEADER
9
$INSUNITS
70
4
9
$ACADVER
1
AC1014
9
$HANDSEED
5
FFFF
0
ENDSEC
0
SECTION
2
TABLES
0
TABLE
2
VPORT
5
8
100
AcDbSymbolTable
0
ENDTAB
0
TABLE
2
LTYPE
5
5
100
AcDbSymbolTable
0
LTYPE
5
14
100
AcDbSymbolTableRecord
100
AcDbLinetypeTableRecord
2
BYBLOCK
70
0
0
LTYPE
5
15
100
AcDbSymbolTableRecord
100
AcDbLinetypeTableRecord
2
BYLAYER
70
0
0
ENDTAB
0
TABLE
2
LAYER
5
2
100
AcDbSymbolTable
70
2
0
LAYER
5
50
100
AcDbSymbolTableRecord
100
AcDbLayerTableRecord
2
0
70
0
6
CONTINUOUS
0
ENDTAB
0
TABLE
2
STYLE
5
3
100
AcDbSymbolTable
70
1
0
STYLE
5
11
100
AcDbSymbolTableRecord
100
AcDbTextStyleTableRecord
2
STANDARD
70
0
0
ENDTAB
0
TABLE
2
VIEW
5
6
100
AcDbSymbolTable
70
0
0
ENDTAB
0
TABLE
2
UCS
5
7
100
AcDbSymbolTable
70
0
0
ENDTAB
0
TABLE
2
APPID
5
9
100
AcDbSymbolTable
70
2
0
APPID
5
12
100
AcDbSymbolTableRecord
100
AcDbRegAppTableRecord
2
ACAD
70
0
0
ENDTAB
0
TABLE
2
DIMSTYLE
5
A
100
AcDbSymbolTable
70
1
0
ENDTAB
0
TABLE
2
BLOCK_RECORD
5
1
100
AcDbSymbolTable
70
1
0
BLOCK_RECORD
5
1F
100
AcDbSymbolTableRecord
100
AcDbBlockTableRecord
2
*MODEL_SPACE
0
BLOCK_RECORD
5
1B
100
AcDbSymbolTableRecord
100
AcDbBlockTableRecord
2
*PAPER_SPACE
0
ENDTAB
0
ENDSEC
0
SECTION
2
BLOCKS
0
BLOCK
5
20
100
AcDbEntity
100
AcDbBlockBegin
2
*MODEL_SPACE
0
ENDBLK
5
21
100
AcDbEntity
100
AcDbBlockEnd
0
BLOCK
5
1C
100
AcDbEntity
100
AcDbBlockBegin
2
*PAPER_SPACE
0
ENDBLK
5
1D
100
AcDbEntity
100
AcDbBlockEnd
0
ENDSEC
0
SECTION
2
ENTITIES
0
LINE
5
100
100
AcDbEntity
8
0
100
AcDbLine
10
4.9999999999999991
20
0
30
0
11
395
21
2.1094237467877974e-14
31
0
0
LINE
5
101
100
AcDbEntity
8
0
100
AcDbLine
10
-4.4408920985006262e-15
20
2165
30
0
11
-1.1102230246251565e-15
21
5
31
0
0
CIRCLE
5
102
100
AcDbEntity
8
0
100
AcDbCircle
10
20.000000298023224
20
20.000000298023224
30
0
40
3.9999999999999987
210
0
220
0
230
1
0
CIRCLE
5
103
100
AcDbEntity
8
0
100
AcDbCircle
10
380.00000566244125
20
22.500000298023224
30
0
40
3.9999999999999969
210
0
220
0
230
1
0
LINE
5
104
100
AcDbEntity
8
0
100
AcDbLine
10
20.007576403535481
20
2190
30
0
11
20.007576403535481
21
2190
31
0
0
LINE
5
105
100
AcDbEntity
8
0
100
AcDbLine
10
10.007576403535481
20
2180
30
0
11
10.007576403535481
21
2171.5
31
0
0
CIRCLE
5
106
100
AcDbEntity
8
0
100
AcDbCircle
10
19.969573342170655
20
2180
30
0
40
4.0000000000000604
210
0
220
0
230
1
0
ARC
5
107
100
AcDbEntity
8
0
100
AcDbCircle
10
20.007576403535381
20
2180
30
0
40
10
210
0
220
-0
230
1
100
AcDbArc
50
89.999999999999417
51
180
0
ARC
5
108
100
AcDbEntity
8
0
100
AcDbCircle
10
20.00757640353558
20
2180
30
0
40
10
210
0
220
-0
230
1
100
AcDbArc
50
0
51
90.000000000000583
0
ARC
5
109
100
AcDbEntity
8
0
100
AcDbCircle
10
10.007576403535481
20
2170
30
0
40
1.499999999999907
210
0
220
0
230
1
100
AcDbArc
50
-180
51
90
0
LINE
5
110
100
AcDbEntity
8
0
100
AcDbLine
10
4.9999999999999938
20
2170
30
0
11
8.5075764035355732
21
2170
31
0
0
ARC
5
111
100
AcDbEntity
8
0
100
AcDbCircle
10
4.9999999999999458
20
2165
30
0
40
5
210
0
220
-0
230
1
100
AcDbArc
50
89.99999999999946
51
180
0
CIRCLE
5
112
100
AcDbEntity
8
0
100
AcDbCircle
10
19.999999850988388
20
1082.5
30
0
40
4
210
0
220
0
230
1
0
LINE
5
113
100
AcDbEntity
8
0
100
AcDbLine
10
435.50000782330591
20
75.001985940012119
30
0
11
400.00000000000006
21
75.001985940015174
31
0
0
LINE
5
114
100
AcDbEntity
8
0
100
AcDbLine
10
446.99992567968144
20
75.001985940011124
30
0
11
438.50000520030898
21
75.001985940011878
31
0
0
ARC
5
115
100
AcDbEntity
8
0
100
AcDbCircle
10
446.99992567968491
20
85.001985939897935
30
0
40
9.9999999998868105
210
0
220
0
230
1
100
AcDbArc
50
-90.000000000019853
51
0.00024994433108803822
0
ARC
5
116
100
AcDbEntity
8
0
100
AcDbCircle
10
437.0386727380627
20
95.00198593955318
30
0
40
1.5000000000664926
210
0
220
0
230
1
100
AcDbArc
50
-180
51
0
0
ARC
5
117
100
AcDbEntity
8
0
100
AcDbCircle
10
446.99992567977341
20
85.0019859396524
30
0
40
9.9999999999779838
210
0
220
-0
230
1
100
AcDbArc
50
0.0002499457892673648
51
90.000000000505793
0
LINE
5
118
100
AcDbEntity
8
0
100
AcDbLine
10
435.53867273799619
20
95.001985939541839
30
0
11
400
21
95.001985939273794
31
0
0
CIRCLE
5
119
100
AcDbEntity
8
0
100
AcDbCircle
10
446.99992567995173
20
85.001985940154228
30
0
40
3.5000000000000142
210
0
220
0
230
1
0
LINE
5
120
100
AcDbEntity
8
0
100
AcDbLine
10
446.99992567968513
20
95.00198593963475
30
0
11
438.53867273808828
21
95.001985939564477
31
0
0
ARC
5
121
100
AcDbEntity
8
0
100
AcDbCircle
10
437.00000651180744
20
75.000002384185791
30
0
40
1.4999999999999989
210
0
220
-0
230
1
100
AcDbArc
50
0.075766273587873328
51
179.92423372640249
0
LINE
5
122
100
AcDbEntity
8
0
100
AcDbLine
10
435.53867273799619
20
495.00198593954178
30
0
11
400
21
495.00198593927382
31
0
0
ARC
5
123
100
AcDbEntity
8
0
100
AcDbCircle
10
437.0386727380627
20
495.00198593955315
30
0
40
1.5000000000664926
210
0
220
0
230
1
100
AcDbArc
50
-180
51
0
0
LINE
5
124
100
AcDbEntity
8
0
100
AcDbLine
10
446.99992567968513
20
495.00198593963478
30
0
11
438.53867273808828
21
495.00198593956446
31
0
0
ARC
5
125
100
AcDbEntity
8
0
100
AcDbCircle
10
446.99992567977341
20
485.0019859396524
30
0
40
9.9999999999779838
210
0
220
-0
230
1
100
AcDbArc
50
0.0002499457892673648
51
90.000000000505793
0
ARC
5
126
100
AcDbEntity
8
0
100
AcDbCircle
10
446.99992567968491
20
485.00198593989796
30
0
40
9.9999999998868105
210
0
220
0
230
1
100
AcDbArc
50
-90.000000000019853
51
0.00024994433108803822
0
CIRCLE
5
127
100
AcDbEntity
8
0
100
AcDbCircle
10
446.99992567995173
20
485.00198594015421
30
0
40
3.5000000000000142
210
0
220
0
230
1
0
LINE
5
128
100
AcDbEntity
8
0
100
AcDbLine
10
446.99992567968144
20
475.00198594001114
30
0
11
438.50000520030898
21
475.00198594001188
31
0
0
ARC
5
129
100
AcDbEntity
8
0
100
AcDbCircle
10
437.00000651180744
20
475.00000238418579
30
0
40
1.4999999999999989
210
0
220
-0
230
1
100
AcDbArc
50
0.075766273587873328
51
179.92423372640249
0
LINE
5
130
100
AcDbEntity
8
0
100
AcDbLine
10
435.50000782330591
20
475.0019859400121
30
0
11
400.00000000000006
21
475.00198594001517
31
0
0
LINE
5
131
100
AcDbEntity
8
0
100
AcDbLine
10
435.53867273799619
20
895.00198593954178
30
0
11
400
21
895.00198593927382
31
0
0
ARC
5
132
100
AcDbEntity
8
0
100
AcDbCircle
10
437.0386727380627
20
895.00198593955315
30
0
40
1.5000000000664926
210
0
220
0
230
1
100
AcDbArc
50
-180
51
0
0
LINE
5
133
100
AcDbEntity
8
0
100
AcDbLine
10
446.99992567968513
20
895.00198593963478
30
0
11
438.53867273808828
21
895.00198593956441
31
0
0
ARC
5
134
100
AcDbEntity
8
0
100
AcDbCircle
10
446.99992567977341
20
885.0019859396524
30
0
40
9.9999999999779838
210
0
220
-0
230
1
100
AcDbArc
50
0.0002499457892673648
51
90.000000000505793
0
ARC
5
135
100
AcDbEntity
8
0
100
AcDbCircle
10
446.99992567968491
20
885.00198593989796
30
0
40
9.9999999998867395
210
0
220
0
230
1
100
AcDbArc
50
-90.000000000019853
51
0.00024994433108803822
0
CIRCLE
5
136
100
AcDbEntity
8
0
100
AcDbCircle
10
446.99992567995173
20
885.0019859401541
30
0
40
3.5000000000000142
210
0
220
0
230
1
0
LINE
5
137
100
AcDbEntity
8
0
100
AcDbLine
10
446.99992567968144
20
875.0019859400112
30
0
11
438.50000520030898
21
875.00198594001188
31
0
0
ARC
5
138
100
AcDbEntity
8
0
100
AcDbCircle
10
437.00000651180744
20
875.00000238418579
30
0
40
1.4999999999999989
210
0
220
-0
230
1
100
AcDbArc
50
0.075766273587873328
51
179.92423372640729
0
LINE
5
139
100
AcDbEntity
8
0
100
AcDbLine
10
435.50000782330591
20
875.00198594001199
30
0
11
400.00000000000006
21
875.00198594001517
31
0
0
LINE
5
140
100
AcDbEntity
8
0
100
AcDbLine
10
435.53867273799619
20
1295.001985939542
30
0
11
400
21
1295.0019859392739
31
0
0
ARC
5
141
100
AcDbEntity
8
0
100
AcDbCircle
10
437.0386727380627
20
1295.0019859395529
30
0
40
1.5000000000664926
210
0
220
0
230
1
100
AcDbArc
50
-180
51
0
0
LINE
5
142
100
AcDbEntity
8
0
100
AcDbLine
10
446.99992567968513
20
1295.0019859396348
30
0
11
438.53867273808828
21
1295.0019859395643
31
0
0
ARC
5
143
100
AcDbEntity
8
0
100
AcDbCircle
10
446.99992567977341
20
1285.0019859396525
30
0
40
9.9999999999779838
210
0
220
-0
230
1
100
AcDbArc
50
0.0002499457892673648
51
90.000000000505793
0
ARC
5
144
100
AcDbEntity
8
0
100
AcDbCircle
10
446.99992567968491
20
1285.0019859398981
30
0
40
9.9999999998868816
210
0
220
0
230
1
100
AcDbArc
50
-90.000000000019853
51
0.00024994433108803822
0
CIRCLE
5
145
100
AcDbEntity
8
0
100
AcDbCircle
10
446.99992567995173
20
1285.0019859401541
30
0
40
3.5000000000000142
210
0
220
0
230
1
0
LINE
5
146
100
AcDbEntity
8
0
100
AcDbLine
10
446.99992567968144
20
1275.0019859400113
30
0
11
438.50000520030898
21
1275.001985940012
31
0
0
ARC
5
147
100
AcDbEntity
8
0
100
AcDbCircle
10
437.00000651180744
20
1275.0000023841858
30
0
40
1.4999999999999989
210
0
220
-0
230
1
100
AcDbArc
50
0.075766273592683717
51
179.92423372640729
0
LINE
5
148
100
AcDbEntity
8
0
100
AcDbLine
10
435.50000782330591
20
1275.001985940012
30
0
11
400.00000000000006
21
1275.0019859400152
31
0
0
LINE
5
149
100
AcDbEntity
8
0
100
AcDbLine
10
435.53867273799619
20
1695.001985939542
30
0
11
400
21
1695.0019859392739
31
0
0
ARC
5
150
100
AcDbEntity
8
0
100
AcDbCircle
10
437.0386727380627
20
1695.0019859395529
30
0
40
1.5000000000664926
210
0
220
0
230
1
100
AcDbArc
50
-180
51
0
0
LINE
5
151
100
AcDbEntity
8
0
100
AcDbLine
10
446.99992567968513
20
1695.0019859396348
30
0
11
438.53867273808828
21
1695.0019859395643
31
0
0
ARC
5
152
100
AcDbEntity
8
0
100
AcDbCircle
10
446.99992567977341
20
1685.0019859396525
30
0
40
9.9999999999779838
210
0
220
-0
230
1
100
AcDbArc
50
0.0002499457892673648
51
90.000000000505793
0
ARC
5
153
100
AcDbEntity
8
0
100
AcDbCircle
10
446.99992567968491
20
1685.0019859398981
30
0
40
9.9999999998868816
210
0
220
0
230
1
100
AcDbArc
50
-90.000000000019853
51
0.00024994433108803822
0
CIRCLE
5
154
100
AcDbEntity
8
0
100
AcDbCircle
10
446.99992567995173
20
1685.0019859401541
30
0
40
3.5000000000000142
210
0
220
0
230
1
0
LINE
5
155
100
AcDbEntity
8
0
100
AcDbLine
10
446.99992567968144
20
1675.0019859400113
30
0
11
438.50000520030898
21
1675.0019859400118
31
0
0
ARC
5
156
100
AcDbEntity
8
0
100
AcDbCircle
10
437.00000651180744
20
1675.0000023841858
30
0
40
1.4999999999999989
210
0
220
-0
230
1
100
AcDbArc
50
0.07576627358306294
51
179.92423372640729
0
LINE
5
157
100
AcDbEntity
8
0
100
AcDbLine
10
435.50000782330591
20
1675.001985940012
30
0
11
400.00000000000006
21
1675.0019859400152
31
0
0
LINE
5
158
100
AcDbEntity
8
0
100
AcDbLine
10
435.53867273799619
20
2095.001985939542
30
0
11
400
21
2095.0019859392742
31
0
0
ARC
5
159
100
AcDbEntity
8
0
100
AcDbCircle
10
437.0386727380627
20
2095.0019859395529
30
0
40
1.5000000000664926
210
0
220
0
230
1
100
AcDbArc
50
-180
51
0
0
LINE
5
160
100
AcDbEntity
8
0
100
AcDbLine
10
446.99992567968513
20
2095.0019859396348
30
0
11
438.53867273808828
21
2095.0019859395643
31
0
0
ARC
5
161
100
AcDbEntity
8
0
100
AcDbCircle
10
446.99992567977341
20
2085.0019859396525
30
0
40
9.9999999999779838
210
0
220
-0
230
1
100
AcDbArc
50
0.0002499457892673648
51
90.000000000505793
0
ARC
5
162
100
AcDbEntity
8
0
100
AcDbCircle
10
446.99992567968491
20
2085.0019859398981
30
0
40
9.9999999998868816
210
0
220
0
230
1
100
AcDbArc
50
-90.000000000019853
51
0.00024994433108803822
0
CIRCLE
5
163
100
AcDbEntity
8
0
100
AcDbCircle
10
446.99992567995173
20
2085.0019859401541
30
0
40
3.5000000000000142
210
0
220
0
230
1
0
LINE
5
164
100
AcDbEntity
8
0
100
AcDbLine
10
446.99992567968144
20
2075.0019859400113
30
0
11
438.50000520030898
21
2075.0019859400118
31
0
0
ARC
5
165
100
AcDbEntity
8
0
100
AcDbCircle
10
437.00000651180744
20
2075.0000023841858
30
0
40
1.4999999999999989
210
0
220
-0
230
1
100
AcDbArc
50
0.07576627358306294
51
179.92423372639769
0
LINE
5
166
100
AcDbEntity
8
0
100
AcDbLine
10
435.50000782330591
20
2075.0019859400122
30
0
11
400.00000000000006
21
2075.0019859400154
31
0
0
LINE
5
167
100
AcDbEntity
8
0
100
AcDbLine
10
400.00000000000006
20
2075.0019859400154
30
0
11
400
21
1695.0019859392739
31
0
0
LINE
5
168
100
AcDbEntity
8
0
100
AcDbLine
10
400.00000000000006
20
1675.0019859400152
30
0
11
400
21
1295.0019859392739
31
0
0
LINE
5
169
100
AcDbEntity
8
0
100
AcDbLine
10
400.00000000000006
20
1275.0019859400152
30
0
11
400
21
895.00198593927382
31
0
0
LINE
5
170
100
AcDbEntity
8
0
100
AcDbLine
10
400.00000000000006
20
875.00198594001517
30
0
11
400
21
495.00198593927382
31
0
0
LINE
5
171
100
AcDbEntity
8
0
100
AcDbLine
10
400.00000000000006
20
475.00198594001517
30
0
11
400
21
95.001985939273794
31
0
0
LINE
5
172
100
AcDbEntity
8
0
100
AcDbLine
10
400.00000000000006
20
75.001985940015174
30
0
11
400
21
4.9999999999999822
31
0
0
ARC
5
173
100
AcDbEntity
8
0
100
AcDbCircle
10
395.00000000000006
20
4.9999999999999503
30
0
40
4.9999999999999289
210
0
220
0
230
1
100
AcDbArc
50
-90.000000000000654
51
0
0
ARC
5
174
100
AcDbEntity
8
0
100
AcDbCircle
10
4.9999999999999929
20
4.9999999999999947
30
0
40
4.9999999999999947
210
0
220
-0
230
1
100
AcDbArc
50
180
51
270.00000000000006
0
LINE
5
175
100
AcDbEntity
8
0
100
AcDbLine
10
400
20
2095.0019859392742
30
0
11
400.00000000000006
21
2165
31
0
0
LINE
5
176
100
AcDbEntity
8
0
100
AcDbLine
10
30.00757640353558
20
2180
30
0
11
30.00757640353558
21
2170
31
0
0
ARC
5
177
100
AcDbEntity
8
0
100
AcDbCircle
10
30.00757640353558
20
2170
30
0
40
1.5000000000000568
210
0
220
-0
230
1
100
AcDbArc
50
-270
51
0
0
ARC
5
178
100
AcDbEntity
8
0
100
AcDbCircle
10
370.0075764035355
20
2170
30
0
40
1.4999999999999147
210
0
220
0
230
1
100
AcDbArc
50
-180
51
90
0
LINE
5
179
100
AcDbEntity
8
0
100
AcDbLine
10
370.0075764035355
20
2180
30
0
11
370.0075764035355
21
2171.5
31
0
0
ARC
5
180
100
AcDbEntity
8
0
100
AcDbCircle
10
380.00757640353538
20
2180
30
0
40
10
210
0
220
-0
230
1
100
AcDbArc
50
89.999999999999346
51
180
0
ARC
5
181
100
AcDbEntity
8
0
100
AcDbCircle
10
380.00757640353555
20
2180
30
0
40
10
210
0
220
-0
230
1
100
AcDbArc
50
0
51
90.000000000000327
0
LINE
5
182
100
AcDbEntity
8
0
100
AcDbLine
10
390.00757640353555
20
2180
30
0
11
390.00757640353555
21
2170
31
0
0
ARC
5
183
100
AcDbEntity
8
0
100
AcDbCircle
10
390.00757640353555
20
2170
30
0
40
1.5000000000000568
210
0
220
-0
230
1
100
AcDbArc
50
-270
51
0
0
CIRCLE
5
184
100
AcDbEntity
8
0
100
AcDbCircle
10
379.96957334217063
20
2180
30
0
40
4.0000000000000604
210
0
220
0
230
1
0
LINE
5
185
100
AcDbEntity
8
0
100
AcDbLine
10
31.507576403535648
20
2170
30
0
11
368.50757640353555
21
2170
31
0
0
LINE
5
186
100
AcDbEntity
8
0
100
AcDbLine
10
391.50757640353567
20
2170
30
0
11
395
21
2170
31
0
0
ARC
5
187
100
AcDbEntity
8
0
100
AcDbCircle
10
395.00000000000006
20
2165
30
0
40
5
210
0
220
-0
230
1
100
AcDbArc
50
0
51
90.000000000000654
0
ENDSEC
0
SECTION
2
OBJECTS
0
DICTIONARY
5
C
100
AcDbDictionary
3
ACAD_GROUP
350
D
3
ACAD_MLINESTYLE
350
17
0
DICTIONARY
5
D
100
AcDbDictionary
0
DICTIONARY
5
1A
330
C
100
AcDbDictionary
0
DICTIONARY
5
17
100
AcDbDictionary
0
ENDSEC
0
EOF
