0
SECTION
2
HEADER
9
$INSUNITS
70
4
9
$ACADVER
1
AC1014
9
$HANDSEED
5
FFFF
0
ENDSEC
0
SECTION
2
TABLES
0
TABLE
2
VPORT
5
8
100
AcDbSymbolTable
0
ENDTAB
0
TABLE
2
LTYPE
5
5
100
AcDbSymbolTable
0
LTYPE
5
14
100
AcDbSymbolTableRecord
100
AcDbLinetypeTableRecord
2
BYBLOCK
70
0
0
LTYPE
5
15
100
AcDbSymbolTableRecord
100
AcDbLinetypeTableRecord
2
BYLAYER
70
0
0
ENDTAB
0
TABLE
2
LAYER
5
2
100
AcDbSymbolTable
70
2
0
LAYER
5
50
100
AcDbSymbolTableRecord
100
AcDbLayerTableRecord
2
0
70
0
6
CONTINUOUS
0
ENDTAB
0
TABLE
2
STYLE
5
3
100
AcDbSymbolTable
70
1
0
STYLE
5
11
100
AcDbSymbolTableRecord
100
AcDbTextStyleTableRecord
2
STANDARD
70
0
0
ENDTAB
0
TABLE
2
VIEW
5
6
100
AcDbSymbolTable
70
0
0
ENDTAB
0
TABLE
2
UCS
5
7
100
AcDbSymbolTable
70
0
0
ENDTAB
0
TABLE
2
APPID
5
9
100
AcDbSymbolTable
70
2
0
APPID
5
12
100
AcDbSymbolTableRecord
100
AcDbRegAppTableRecord
2
ACAD
70
0
0
ENDTAB
0
TABLE
2
DIMSTYLE
5
A
100
AcDbSymbolTable
70
1
0
ENDTAB
0
TABLE
2
BLOCK_RECORD
5
1
100
AcDbSymbolTable
70
1
0
BLOCK_RECORD
5
1F
100
AcDbSymbolTableRecord
100
AcDbBlockTableRecord
2
*MODEL_SPACE
0
BLOCK_RECORD
5
1B
100
AcDbSymbolTableRecord
100
AcDbBlockTableRecord
2
*PAPER_SPACE
0
ENDTAB
0
ENDSEC
0
SECTION
2
BLOCKS
0
BLOCK
5
20
100
AcDbEntity
100
AcDbBlockBegin
2
*MODEL_SPACE
0
ENDBLK
5
21
100
AcDbEntity
100
AcDbBlockEnd
0
BLOCK
5
1C
100
AcDbEntity
100
AcDbBlockBegin
2
*PAPER_SPACE
0
ENDBLK
5
1D
100
AcDbEntity
100
AcDbBlockEnd
0
ENDSEC
0
SECTION
2
ENTITIES
0
LWPOLYLINE
5
100
100
AcDbEntity
8
0
100
AcDbPolyline
90
44
70
1
43
0.0
10
400
20
50.001985939273794
10
435.53867273799619
20
50.001985939541846
42
0.99999999999999989
10
438.53867273808828
20
50.001985939564477
10
446.99992567968513
20
50.001985939630387
42
-0.41421228466634985
10
456.99992567972885
20
40.00202956339735
42
-0.41421692023465778
10
446.99985465875557
20
30.001985940011053
10
438.4648261441057
20
30.001985940014038
42
0.99999999999999989
10
435.46482614412992
20
30.001985940015139
10
400
20
30.001985940015174
10
400
20
4.9999999999999991
42
-0.41421356237310197
10
395
20
2.1649348980190553e-14
10
4.9999999999999991
20
5.5511151231257827e-16
42
-0.41421356237310392
10
0
20
5.0000000000001421
10
-4.9960036108132044e-14
20
1274
42
-0.41421356237309798
10
5
20
1279
10
395
20
1279
42
-0.41421356237310752
10
400
20
1274
10
400
20
1250.0019859392737
10
435.53867273799619
20
1250.0019859395418
42
0.99999999999999989
10
438.53867273808828
20
1250.0019859395643
10
446.99992567968513
20
1250.0019859396302
42
-0.41421228466634885
10
456.99992567972885
20
1240.0020295633974
42
-0.41421692023465778
10
446.99985465875557
20
1230.0019859400111
10
438.4648261441057
20
1230.001985940014
42
0.99999999999999989
10
435.46482614412992
20
1230.0019859400152
10
400
20
1230.0019859400152
10
400
20
850.00198593927382
10
435.53867273799619
20
850.00198593954178
42
0.99999999999999989
10
438.53867273808828
20
850.00198593956441
10
446.99992567968513
20
850.00198593963034
42
-0.41421228466634885
10
456.99992567972885
20
840.0020295633974
42
-0.41421692023465778
10
446.99985465875557
20
830.00198594001108
10
438.4648261441057
20
830.00198594001404
42
0.99999999999999989
10
435.46482614412992
20
830.00198594001517
10
400
20
830.00198594001517
10
400
20
450.00198593927382
10
435.53867273799619
20
450.00198593954178
42
0.99999999999999989
10
438.53867273808828
20
450.00198593956446
10
446.99992567968513
20
450.00198593963034
42
-0.41421228466634885
10
456.99992567972885
20
440.00202956339734
42
-0.41421692023465778
10
446.99985465875557
20
430.00198594001108
10
438.4648261441057
20
430.00198594001404
42
0.99999999999999989
10
435.46482614412992
20
430.00198594001517
10
400
20
430.00198594001517
0
CIRCLE
5
101
100
AcDbEntity
8
0
100
AcDbCircle
10
446.99992567968491
20
40.001985939897935
30
0
40
3.5000000000000142
210
0
220
0
230
1
0
CIRCLE
5
102
100
AcDbEntity
8
0
100
AcDbCircle
10
446.99992567968491
20
440.00198593989796
30
0
40
3.5000000000000142
210
0
220
0
230
1
0
CIRCLE
5
103
100
AcDbEntity
8
0
100
AcDbCircle
10
446.99992567968491
20
840.00198593989796
30
0
40
3.5000000000000142
210
0
220
0
230
1
0
CIRCLE
5
104
100
AcDbEntity
8
0
100
AcDbCircle
10
446.99992567968491
20
1240.0019859398978
30
0
40
3.5000000000000142
210
0
220
0
230
1
0
CIRCLE
5
105
100
AcDbEntity
8
0
100
AcDbCircle
10
380.00000566244125
20
1259.0000187754631
30
0
40
3.9999999999999671
210
0
220
0
230
1
0
CIRCLE
5
106
100
AcDbEntity
8
0
100
AcDbCircle
10
20.000000298023224
20
1259.0000187605619
30
0
40
3.999999999999968
210
0
220
0
230
1
0
CIRCLE
5
107
100
AcDbEntity
8
0
100
AcDbCircle
10
20.000000298023224
20
20.000000298023224
30
0
40
3.9999999999999996
210
0
220
0
230
1
0
CIRCLE
5
108
100
AcDbEntity
8
0
100
AcDbCircle
10
380.00000566244125
20
20.000000298023224
30
0
40
3.9999999999999951
210
0
220
0
230
1
0
LINE
5
109
100
AcDbEntity
8
0
100
AcDbLine
10
1000
20
0
30
0
11
1000
21
1000
31
0
0
ENDSEC
0
SECTION
2
OBJECTS
0
DICTIONARY
5
C
100
AcDbDictionary
3
ACAD_GROUP
350
D
3
ACAD_MLINESTYLE
350
17
0
DICTIONARY
5
D
100
AcDbDictionary
0
DICTIONARY
5
1A
330
C
100
AcDbDictionary
0
DICTIONARY
5
17
100
AcDbDictionary
0
ENDSEC
0
EOF
