0
SECTION
2
HEADER
9
$INSUNITS
70
4
9
$ACADVER
1
AC1014
9
$HANDSEED
5
FFFF
0
ENDSEC
0
SECTION
2
TABLES
0
TABLE
2
VPORT
5
8
100
AcDbSymbolTable
0
ENDTAB
0
TABLE
2
LTYPE
5
5
100
AcDbSymbolTable
0
LTYPE
5
14
100
AcDbSymbolTableRecord
100
AcDbLinetypeTableRecord
2
BYBLOCK
70
0
0
LTYPE
5
15
100
AcDbSymbolTableRecord
100
AcDbLinetypeTableRecord
2
BYLAYER
70
0
0
ENDTAB
0
TABLE
2
LAYER
5
2
100
AcDbSymbolTable
70
2
0
LAYER
5
50
100
AcDbSymbolTableRecord
100
AcDbLayerTableRecord
2
0
70
0
6
CONTINUOUS
0
ENDTAB
0
TABLE
2
STYLE
5
3
100
AcDbSymbolTable
70
1
0
STYLE
5
11
100
AcDbSymbolTableRecord
100
AcDbTextStyleTableRecord
2
STANDARD
70
0
0
ENDTAB
0
TABLE
2
VIEW
5
6
100
AcDbSymbolTable
70
0
0
ENDTAB
0
TABLE
2
UCS
5
7
100
AcDbSymbolTable
70
0
0
ENDTAB
0
TABLE
2
APPID
5
9
100
AcDbSymbolTable
70
2
0
APPID
5
12
100
AcDbSymbolTableRecord
100
AcDbRegAppTableRecord
2
ACAD
70
0
0
ENDTAB
0
TABLE
2
DIMSTYLE
5
A
100
AcDbSymbolTable
70
1
0
ENDTAB
0
TABLE
2
BLOCK_RECORD
5
1
100
AcDbSymbolTable
70
1
0
BLOCK_RECORD
5
1F
100
AcDbSymbolTableRecord
100
AcDbBlockTableRecord
2
*MODEL_SPACE
0
BLOCK_RECORD
5
1B
100
AcDbSymbolTableRecord
100
AcDbBlockTableRecord
2
*PAPER_SPACE
0
ENDTAB
0
ENDSEC
0
SECTION
2
BLOCKS
0
BLOCK
5
20
100
AcDbEntity
100
AcDbBlockBegin
2
*MODEL_SPACE
0
ENDBLK
5
21
100
AcDbEntity
100
AcDbBlockEnd
0
BLOCK
5
1C
100
AcDbEntity
100
AcDbBlockBegin
2
*PAPER_SPACE
0
ENDBLK
5
1D
100
AcDbEntity
100
AcDbBlockEnd
0
ENDSEC
0
SECTION
2
ENTITIES
0
LINE
5
100
100
AcDbEntity
8
0
100
AcDbLine
10
435.53867273799619
20
180.00198593954184
30
0
11
400
21
180.00198593927379
31
0
0
ARC
5
101
100
AcDbEntity
8
0
100
AcDbCircle
10
437.0386727380627
20
180.00198593955318
30
0
40
1.5000000000664926
210
0
220
0
230
1
100
AcDbArc
50
-180
51
0
0
LINE
5
102
100
AcDbEntity
8
0
100
AcDbLine
10
446.99992567968513
20
180.00198593963475
30
0
11
438.53867273808828
21
180.00198593956446
31
0
0
ARC
5
103
100
AcDbEntity
8
0
100
AcDbCircle
10
446.99992567977341
20
170.0019859396524
30
0
40
9.9999999999779838
210
0
220
-0
230
1
100
AcDbArc
50
0.0002499457892673648
51
90.000000000505793
0
ARC
5
104
100
AcDbEntity
8
0
100
AcDbCircle
10
446.99992567968491
20
170.00198593989793
30
0
40
9.9999999998868105
210
0
220
0
230
1
100
AcDbArc
50
-90.000000000019853
51
0.00024994433108803822
0
CIRCLE
5
105
100
AcDbEntity
8
0
100
AcDbCircle
10
446.99992567995173
20
170.00198594015421
30
0
40
3.5000000000000142
210
0
220
0
230
1
0
LINE
5
106
100
AcDbEntity
8
0
100
AcDbLine
10
438.46482614410536
20
160.00198594001404
30
0
11
446.99985465902239
21
160.00198594026733
31
0
0
ARC
5
107
100
AcDbEntity
8
0
100
AcDbCircle
10
436.96482614413799
20
160.00198594001512
30
0
40
1.4999999999673719
210
-0
220
0
230
1
100
AcDbArc
50
0
51
180
0
LINE
5
108
100
AcDbEntity
8
0
100
AcDbLine
10
400.00000000000006
20
160.00198594001517
30
0
11
435.46482614417096
21
160.00198594001512
31
0
0
LINE
5
109
100
AcDbEntity
8
0
100
AcDbLine
10
0
20
0
30
0
11
400
21
-1.7834111285025804e-30
31
0
0
LINE
5
110
100
AcDbEntity
8
0
100
AcDbLine
10
400
20
4340
30
0
11
0
21
4340
31
0
0
LINE
5
111
100
AcDbEntity
8
0
100
AcDbLine
10
0
20
4340
30
0
11
0
21
0
31
0
0
LINE
5
112
100
AcDbEntity
8
0
100
AcDbLine
10
435.53867273799619
20
580.00198593954178
30
0
11
400
21
580.00198593927382
31
0
0
ARC
5
113
100
AcDbEntity
8
0
100
AcDbCircle
10
437.0386727380627
20
580.00198593955315
30
0
40
1.5000000000664926
210
0
220
0
230
1
100
AcDbArc
50
-180
51
0
0
LINE
5
114
100
AcDbEntity
8
0
100
AcDbLine
10
446.99992567968513
20
580.00198593963478
30
0
11
438.53867273808828
21
580.00198593956452
31
0
0
ARC
5
115
100
AcDbEntity
8
0
100
AcDbCircle
10
446.99992567977341
20
570.0019859396524
30
0
40
9.9999999999779838
210
0
220
-0
230
1
100
AcDbArc
50
0.0002499457892673648
51
90.000000000505793
0
ARC
5
116
100
AcDbEntity
8
0
100
AcDbCircle
10
446.99992567968491
20
570.00198593989796
30
0
40
9.9999999998868105
210
0
220
0
230
1
100
AcDbArc
50
-90.000000000019853
51
0.00024994433108803822
0
LINE
5
117
100
AcDbEntity
8
0
100
AcDbLine
10
438.46482614410536
20
560.00198594001404
30
0
11
446.99985465902239
21
560.00198594026733
31
0
0
ARC
5
118
100
AcDbEntity
8
0
100
AcDbCircle
10
436.96482614413799
20
560.00198594001506
30
0
40
1.4999999999673719
210
-0
220
0
230
1
100
AcDbArc
50
0
51
180
0
LINE
5
119
100
AcDbEntity
8
0
100
AcDbLine
10
400.00000000000006
20
560.00198594001517
30
0
11
435.46482614417096
21
560.00198594001506
31
0
0
CIRCLE
5
120
100
AcDbEntity
8
0
100
AcDbCircle
10
446.99992567995173
20
570.00198594015421
30
0
40
3.5000000000000142
210
0
220
0
230
1
0
LINE
5
121
100
AcDbEntity
8
0
100
AcDbLine
10
435.53867273799619
20
980.00198593954178
30
0
11
400
21
980.00198593927382
31
0
0
ARC
5
122
100
AcDbEntity
8
0
100
AcDbCircle
10
437.0386727380627
20
980.00198593955315
30
0
40
1.5000000000664926
210
0
220
0
230
1
100
AcDbArc
50
-180
51
0
0
LINE
5
123
100
AcDbEntity
8
0
100
AcDbLine
10
446.99992567968513
20
980.00198593963478
30
0
11
438.53867273808828
21
980.00198593956441
31
0
0
ARC
5
124
100
AcDbEntity
8
0
100
AcDbCircle
10
446.99992567977341
20
970.0019859396524
30
0
40
9.9999999999779838
210
0
220
-0
230
1
100
AcDbArc
50
0.0002499457892673648
51
90.000000000505793
0
ARC
5
125
100
AcDbEntity
8
0
100
AcDbCircle
10
446.99992567968491
20
970.00198593989796
30
0
40
9.9999999998867395
210
0
220
0
230
1
100
AcDbArc
50
-90.000000000019853
51
0.00024994433108803822
0
LINE
5
126
100
AcDbEntity
8
0
100
AcDbLine
10
438.46482614410536
20
960.00198594001404
30
0
11
446.99985465902239
21
960.00198594026733
31
0
0
ARC
5
127
100
AcDbEntity
8
0
100
AcDbCircle
10
436.96482614413799
20
960.00198594001517
30
0
40
1.4999999999673719
210
-0
220
0
230
1
100
AcDbArc
50
0
51
180
0
LINE
5
128
100
AcDbEntity
8
0
100
AcDbLine
10
400.00000000000006
20
960.00198594001517
30
0
11
435.46482614417096
21
960.00198594001517
31
0
0
CIRCLE
5
129
100
AcDbEntity
8
0
100
AcDbCircle
10
446.99992567995173
20
970.0019859401541
30
0
40
3.5000000000000142
210
0
220
0
230
1
0
LINE
5
130
100
AcDbEntity
8
0
100
AcDbLine
10
435.53867273799619
20
1380.001985939542
30
0
11
400
21
1380.0019859392739
31
0
0
ARC
5
131
100
AcDbEntity
8
0
100
AcDbCircle
10
437.0386727380627
20
1380.0019859395529
30
0
40
1.5000000000664926
210
0
220
0
230
1
100
AcDbArc
50
-180
51
0
0
LINE
5
132
100
AcDbEntity
8
0
100
AcDbLine
10
446.99992567968513
20
1380.0019859396348
30
0
11
438.53867273808828
21
1380.0019859395643
31
0
0
ARC
5
133
100
AcDbEntity
8
0
100
AcDbCircle
10
446.99992567977341
20
1370.0019859396525
30
0
40
9.9999999999779838
210
0
220
-0
230
1
100
AcDbArc
50
0.0002499457892673648
51
90.000000000505793
0
ARC
5
134
100
AcDbEntity
8
0
100
AcDbCircle
10
446.99992567968491
20
1370.0019859398981
30
0
40
9.9999999998868816
210
0
220
0
230
1
100
AcDbArc
50
-90.000000000019853
51
0.00024994433108803822
0
LINE
5
135
100
AcDbEntity
8
0
100
AcDbLine
10
438.46482614410536
20
1360.001985940014
30
0
11
446.99985465902239
21
1360.0019859402673
31
0
0
ARC
5
136
100
AcDbEntity
8
0
100
AcDbCircle
10
436.96482614413799
20
1360.0019859400152
30
0
40
1.4999999999673719
210
-0
220
0
230
1
100
AcDbArc
50
0
51
180
0
LINE
5
137
100
AcDbEntity
8
0
100
AcDbLine
10
400.00000000000006
20
1360.0019859400152
30
0
11
435.46482614417096
21
1360.0019859400152
31
0
0
CIRCLE
5
138
100
AcDbEntity
8
0
100
AcDbCircle
10
446.99992567995173
20
1370.0019859401541
30
0
40
3.5000000000000142
210
0
220
0
230
1
0
LINE
5
139
100
AcDbEntity
8
0
100
AcDbLine
10
435.53867273799619
20
1780.001985939542
30
0
11
400
21
1780.0019859392739
31
0
0
ARC
5
140
100
AcDbEntity
8
0
100
AcDbCircle
10
437.0386727380627
20
1780.0019859395529
30
0
40
1.5000000000664926
210
0
220
0
230
1
100
AcDbArc
50
-180
51
0
0
LINE
5
141
100
AcDbEntity
8
0
100
AcDbLine
10
446.99992567968513
20
1780.0019859396348
30
0
11
438.53867273808828
21
1780.0019859395643
31
0
0
ARC
5
142
100
AcDbEntity
8
0
100
AcDbCircle
10
446.99992567977341
20
1770.0019859396525
30
0
40
9.9999999999779838
210
0
220
-0
230
1
100
AcDbArc
50
0.0002499457892673648
51
90.000000000505793
0
ARC
5
143
100
AcDbEntity
8
0
100
AcDbCircle
10
446.99992567968491
20
1770.0019859398981
30
0
40
9.9999999998868816
210
0
220
0
230
1
100
AcDbArc
50
-90.000000000019853
51
0.00024994433108803822
0
LINE
5
144
100
AcDbEntity
8
0
100
AcDbLine
10
438.46482614410536
20
1760.001985940014
30
0
11
446.99985465902239
21
1760.0019859402673
31
0
0
ARC
5
145
100
AcDbEntity
8
0
100
AcDbCircle
10
436.96482614413799
20
1760.0019859400152
30
0
40
1.4999999999673719
210
-0
220
0
230
1
100
AcDbArc
50
0
51
180
0
LINE
5
146
100
AcDbEntity
8
0
100
AcDbLine
10
400.00000000000006
20
1760.0019859400152
30
0
11
435.46482614417096
21
1760.0019859400152
31
0
0
CIRCLE
5
147
100
AcDbEntity
8
0
100
AcDbCircle
10
446.99992567995173
20
1770.0019859401541
30
0
40
3.5000000000000142
210
0
220
0
230
1
0
LINE
5
148
100
AcDbEntity
8
0
100
AcDbLine
10
435.53867273799619
20
2180.001985939542
30
0
11
400
21
2180.0019859392742
31
0
0
ARC
5
149
100
AcDbEntity
8
0
100
AcDbCircle
10
437.0386727380627
20
2180.0019859395529
30
0
40
1.5000000000664926
210
0
220
0
230
1
100
AcDbArc
50
-180
51
0
0
LINE
5
150
100
AcDbEntity
8
0
100
AcDbLine
10
446.99992567968513
20
2180.0019859396348
30
0
11
438.53867273808828
21
2180.0019859395643
31
0
0
ARC
5
151
100
AcDbEntity
8
0
100
AcDbCircle
10
446.99992567977341
20
2170.0019859396525
30
0
40
9.9999999999779838
210
0
220
-0
230
1
100
AcDbArc
50
0.0002499457892673648
51
90.000000000505793
0
ARC
5
152
100
AcDbEntity
8
0
100
AcDbCircle
10
446.99992567968491
20
2170.0019859398981
30
0
40
9.9999999998868816
210
0
220
0
230
1
100
AcDbArc
50
-90.000000000019853
51
0.00024994433108803822
0
LINE
5
153
100
AcDbEntity
8
0
100
AcDbLine
10
438.46482614410536
20
2160.001985940014
30
0
11
446.99985465902239
21
2160.0019859402673
31
0
0
ARC
5
154
100
AcDbEntity
8
0
100
AcDbCircle
10
436.96482614413799
20
2160.0019859400154
30
0
40
1.4999999999673719
210
-0
220
0
230
1
100
AcDbArc
50
0
51
180
0
LINE
5
155
100
AcDbEntity
8
0
100
AcDbLine
10
400.00000000000006
20
2160.0019859400154
30
0
11
435.46482614417096
21
2160.0019859400154
31
0
0
CIRCLE
5
156
100
AcDbEntity
8
0
100
AcDbCircle
10
446.99992567995173
20
2170.0019859401541
30
0
40
3.5000000000000142
210
0
220
0
230
1
0
LINE
5
157
100
AcDbEntity
8
0
100
AcDbLine
10
435.53867273799619
20
2580.0019859395425
30
0
11
400
21
2580.0019859392742
31
0
0
ARC
5
158
100
AcDbEntity
8
0
100
AcDbCircle
10
437.0386727380627
20
2580.0019859395534
30
0
40
1.5000000000664926
210
0
220
0
230
1
100
AcDbArc
50
-180
51
0
0
LINE
5
159
100
AcDbEntity
8
0
100
AcDbLine
10
446.99992567968513
20
2580.0019859396348
30
0
11
438.53867273808828
21
2580.0019859395652
31
0
0
ARC
5
160
100
AcDbEntity
8
0
100
AcDbCircle
10
446.99992567977341
20
2570.0019859396525
30
0
40
9.9999999999779838
210
0
220
-0
230
1
100
AcDbArc
50
0.0002499457892673648
51
90.000000000505793
0
ARC
5
161
100
AcDbEntity
8
0
100
AcDbCircle
10
446.99992567968491
20
2570.0019859398981
30
0
40
9.9999999998868816
210
0
220
0
230
1
100
AcDbArc
50
-90.000000000019853
51
0.00024994433108803822
0
LINE
5
162
100
AcDbEntity
8
0
100
AcDbLine
10
438.46482614410536
20
2560.001985940014
30
0
11
446.99985465902239
21
2560.0019859402673
31
0
0
ARC
5
163
100
AcDbEntity
8
0
100
AcDbCircle
10
436.96482614413799
20
2560.0019859400154
30
0
40
1.4999999999673719
210
-0
220
0
230
1
100
AcDbArc
50
0
51
180
0
LINE
5
164
100
AcDbEntity
8
0
100
AcDbLine
10
400.00000000000006
20
2560.0019859400154
30
0
11
435.46482614417096
21
2560.0019859400154
31
0
0
CIRCLE
5
165
100
AcDbEntity
8
0
100
AcDbCircle
10
446.99992567995173
20
2570.0019859401546
30
0
40
3.5000000000000142
210
0
220
0
230
1
0
LINE
5
166
100
AcDbEntity
8
0
100
AcDbLine
10
435.53867273799619
20
2980.0019859395416
30
0
11
400
21
2980.0019859392742
31
0
0
ARC
5
167
100
AcDbEntity
8
0
100
AcDbCircle
10
437.0386727380627
20
2980.0019859395529
30
0
40
1.5000000000664926
210
0
220
0
230
1
100
AcDbArc
50
-180
51
0
0
LINE
5
168
100
AcDbEntity
8
0
100
AcDbLine
10
446.99992567968513
20
2980.0019859396348
30
0
11
438.53867273808828
21
2980.0019859395643
31
0
0
ARC
5
169
100
AcDbEntity
8
0
100
AcDbCircle
10
446.99992567977341
20
2970.0019859396525
30
0
40
9.9999999999779838
210
0
220
-0
230
1
100
AcDbArc
50
0.0002499457892673648
51
90.000000000505793
0
ARC
5
170
100
AcDbEntity
8
0
100
AcDbCircle
10
446.99992567968491
20
2970.0019859398981
30
0
40
9.9999999998868816
210
0
220
0
230
1
100
AcDbArc
50
-90.000000000019853
51
0.00024994433108803822
0
LINE
5
171
100
AcDbEntity
8
0
100
AcDbLine
10
438.46482614410536
20
2960.001985940014
30
0
11
446.99985465902239
21
2960.0019859402673
31
0
0
ARC
5
172
100
AcDbEntity
8
0
100
AcDbCircle
10
436.96482614413799
20
2960.0019859400154
30
0
40
1.4999999999673719
210
-0
220
0
230
1
100
AcDbArc
50
0
51
180
0
LINE
5
173
100
AcDbEntity
8
0
100
AcDbLine
10
400.00000000000006
20
2960.0019859400154
30
0
11
435.46482614417096
21
2960.0019859400154
31
0
0
CIRCLE
5
174
100
AcDbEntity
8
0
100
AcDbCircle
10
446.99992567995173
20
2970.0019859401546
30
0
40
3.5000000000000142
210
0
220
0
230
1
0
LINE
5
175
100
AcDbEntity
8
0
100
AcDbLine
10
435.53867273799619
20
3380.0019859395416
30
0
11
400
21
3380.0019859392742
31
0
0
ARC
5
176
100
AcDbEntity
8
0
100
AcDbCircle
10
437.0386727380627
20
3380.0019859395529
30
0
40
1.5000000000664926
210
0
220
0
230
1
100
AcDbArc
50
-180
51
0
0
LINE
5
177
100
AcDbEntity
8
0
100
AcDbLine
10
446.99992567968513
20
3380.0019859396348
30
0
11
438.53867273808828
21
3380.0019859395643
31
0
0
ARC
5
178
100
AcDbEntity
8
0
100
AcDbCircle
10
446.99992567977341
20
3370.0019859396525
30
0
40
9.9999999999779838
210
0
220
-0
230
1
100
AcDbArc
50
0.0002499457892673648
51
90.000000000505793
0
ARC
5
179
100
AcDbEntity
8
0
100
AcDbCircle
10
446.99992567968491
20
3370.0019859398981
30
0
40
9.9999999998868816
210
0
220
0
230
1
100
AcDbArc
50
-90.000000000019853
51
0.00024994433108803822
0
LINE
5
180
100
AcDbEntity
8
0
100
AcDbLine
10
438.46482614410536
20
3360.001985940014
30
0
11
446.99985465902239
21
3360.0019859402673
31
0
0
ARC
5
181
100
AcDbEntity
8
0
100
AcDbCircle
10
436.96482614413799
20
3360.0019859400154
30
0
40
1.4999999999673719
210
-0
220
0
230
1
100
AcDbArc
50
0
51
180
0
LINE
5
182
100
AcDbEntity
8
0
100
AcDbLine
10
400.00000000000006
20
3360.0019859400154
30
0
11
435.46482614417096
21
3360.0019859400154
31
0
0
CIRCLE
5
183
100
AcDbEntity
8
0
100
AcDbCircle
10
446.99992567995173
20
3370.0019859401546
30
0
40
3.5000000000000142
210
0
220
0
230
1
0
LINE
5
184
100
AcDbEntity
8
0
100
AcDbLine
10
435.53867273799619
20
3780.0019859395416
30
0
11
400
21
3780.0019859392742
31
0
0
ARC
5
185
100
AcDbEntity
8
0
100
AcDbCircle
10
437.0386727380627
20
3780.0019859395529
30
0
40
1.5000000000664926
210
0
220
0
230
1
100
AcDbArc
50
-180
51
0
0
LINE
5
186
100
AcDbEntity
8
0
100
AcDbLine
10
446.99992567968513
20
3780.0019859396348
30
0
11
438.53867273808828
21
3780.0019859395643
31
0
0
ARC
5
187
100
AcDbEntity
8
0
100
AcDbCircle
10
446.99992567977341
20
3770.0019859396525
30
0
40
9.9999999999779838
210
0
220
-0
230
1
100
AcDbArc
50
0.0002499457892673648
51
90.000000000505793
0
ARC
5
188
100
AcDbEntity
8
0
100
AcDbCircle
10
446.99992567968491
20
3770.0019859398981
30
0
40
9.9999999998868816
210
0
220
0
230
1
100
AcDbArc
50
-90.000000000019853
51
0.00024994433108803822
0
LINE
5
189
100
AcDbEntity
8
0
100
AcDbLine
10
438.46482614410536
20
3760.001985940014
30
0
11
446.99985465902239
21
3760.0019859402673
31
0
0
ARC
5
190
100
AcDbEntity
8
0
100
AcDbCircle
10
436.96482614413799
20
3760.0019859400154
30
0
40
1.4999999999673719
210
-0
220
0
230
1
100
AcDbArc
50
0
51
180
0
LINE
5
191
100
AcDbEntity
8
0
100
AcDbLine
10
400.00000000000006
20
3760.0019859400154
30
0
11
435.46482614417096
21
3760.0019859400154
31
0
0
CIRCLE
5
192
100
AcDbEntity
8
0
100
AcDbCircle
10
446.99992567995173
20
3770.0019859401546
30
0
40
3.5000000000000142
210
0
220
0
230
1
0
LINE
5
193
100
AcDbEntity
8
0
100
AcDbLine
10
435.53867273799619
20
4180.0019859395416
30
0
11
400
21
4180.0019859392742
31
0
0
ARC
5
194
100
AcDbEntity
8
0
100
AcDbCircle
10
437.0386727380627
20
4180.0019859395534
30
0
40
1.5000000000664926
210
0
220
0
230
1
100
AcDbArc
50
-180
51
0
0
LINE
5
195
100
AcDbEntity
8
0
100
AcDbLine
10
446.99992567968513
20
4180.0019859396352
30
0
11
438.53867273808828
21
4180.0019859395643
31
0
0
ARC
5
196
100
AcDbEntity
8
0
100
AcDbCircle
10
446.99992567977341
20
4170.0019859396525
30
0
40
9.9999999999779838
210
0
220
-0
230
1
100
AcDbArc
50
0.0002499457892673648
51
90.000000000505793
0
ARC
5
197
100
AcDbEntity
8
0
100
AcDbCircle
10
446.99992567968491
20
4170.0019859398981
30
0
40
9.9999999998868816
210
0
220
0
230
1
100
AcDbArc
50
-90.000000000019853
51
0.00024994433108803822
0
LINE
5
198
100
AcDbEntity
8
0
100
AcDbLine
10
438.46482614410536
20
4160.0019859400145
30
0
11
446.99985465902239
21
4160.0019859402673
31
0
0
ARC
5
199
100
AcDbEntity
8
0
100
AcDbCircle
10
436.96482614413799
20
4160.0019859400154
30
0
40
1.4999999999673719
210
-0
220
0
230
1
100
AcDbArc
50
0
51
180
0
LINE
5
200
100
AcDbEntity
8
0
100
AcDbLine
10
400.00000000000006
20
4160.0019859400154
30
0
11
435.46482614417096
21
4160.0019859400154
31
0
0
CIRCLE
5
201
100
AcDbEntity
8
0
100
AcDbCircle
10
446.99992567995173
20
4170.0019859401546
30
0
40
3.5000000000000142
210
0
220
0
230
1
0
LINE
5
202
100
AcDbEntity
8
0
100
AcDbLine
10
400
20
-1.7834111285025804e-30
30
0
11
400.00000000000006
21
160.00198594001517
31
0
0
LINE
5
203
100
AcDbEntity
8
0
100
AcDbLine
10
400
20
180.00198593927379
30
0
11
400.00000000000006
21
560.00198594001517
31
0
0
LINE
5
204
100
AcDbEntity
8
0
100
AcDbLine
10
400
20
580.00198593927382
30
0
11
400.00000000000006
21
960.00198594001517
31
0
0
LINE
5
205
100
AcDbEntity
8
0
100
AcDbLine
10
400
20
980.00198593927382
30
0
11
400.00000000000006
21
1360.0019859400152
31
0
0
LINE
5
206
100
AcDbEntity
8
0
100
AcDbLine
10
400
20
1380.0019859392739
30
0
11
400.00000000000006
21
1760.0019859400152
31
0
0
LINE
5
207
100
AcDbEntity
8
0
100
AcDbLine
10
400
20
1780.0019859392739
30
0
11
400.00000000000006
21
2160.0019859400154
31
0
0
LINE
5
208
100
AcDbEntity
8
0
100
AcDbLine
10
400
20
2180.0019859392742
30
0
11
400.00000000000006
21
2560.0019859400154
31
0
0
LINE
5
209
100
AcDbEntity
8
0
100
AcDbLine
10
400
20
2580.0019859392742
30
0
11
400.00000000000006
21
2960.0019859400154
31
0
0
LINE
5
210
100
AcDbEntity
8
0
100
AcDbLine
10
400
20
2980.0019859392742
30
0
11
400.00000000000006
21
3360.0019859400154
31
0
0
LINE
5
211
100
AcDbEntity
8
0
100
AcDbLine
10
400
20
3380.0019859392742
30
0
11
400.00000000000006
21
3760.0019859400154
31
0
0
LINE
5
212
100
AcDbEntity
8
0
100
AcDbLine
10
400
20
3780.0019859392742
30
0
11
400.00000000000006
21
4160.0019859400154
31
0
0
LINE
5
213
100
AcDbEntity
8
0
100
AcDbLine
10
400
20
4180.0019859392742
30
0
11
400
21
4340
31
0
0
CIRCLE
5
214
100
AcDbEntity
8
0
100
AcDbCircle
10
380.00000566244125
20
4320.0000643730164
30
0
40
3.9999999999999636
210
0
220
0
230
1
0
CIRCLE
5
215
100
AcDbEntity
8
0
100
AcDbCircle
10
20.000000298023224
20
4320.0000643730164
30
0
40
4.0000000000000959
210
0
220
0
230
1
0
CIRCLE
5
216
100
AcDbEntity
8
0
100
AcDbCircle
10
20.000000298023224
20
20.000000298023224
30
0
40
3.9999999999999987
210
0
220
0
230
1
0
CIRCLE
5
217
100
AcDbEntity
8
0
100
AcDbCircle
10
380.00000566244125
20
20.000000298023224
30
0
40
3.9999999999999969
210
0
220
0
230
1
0
ENDSEC
0
SECTION
2
OBJECTS
0
DICTIONARY
5
C
100
AcDbDictionary
3
ACAD_GROUP
350
D
3
ACAD_MLINESTYLE
350
17
0
DICTIONARY
5
D
100
AcDbDictionary
0
DICTIONARY
5
1A
330
C
100
AcDbDictionary
0
DICTIONARY
5
17
100
AcDbDictionary
0
ENDSEC
0
EOF
