0
SECTION
2
HEADER
9
$INSUNITS
70
4
9
$ACADVER
1
AC1014
9
$HANDSEED
5
FFFF
0
ENDSEC
0
SECTION
2
TABLES
0
TABLE
2
VPORT
5
8
100
AcDbSymbolTable
0
ENDTAB
0
TABLE
2
LTYPE
5
5
100
AcDbSymbolTable
0
LTYPE
5
14
100
AcDbSymbolTableRecord
100
AcDbLinetypeTableRecord
2
BYBLOCK
70
0
0
LTYPE
5
15
100
AcDbSymbolTableRecord
100
AcDbLinetypeTableRecord
2
BYLAYER
70
0
0
ENDTAB
0
TABLE
2
LAYER
5
2
100
AcDbSymbolTable
70
2
0
LAYER
5
50
100
AcDbSymbolTableRecord
100
AcDbLayerTableRecord
2
0
70
0
6
CONTINUOUS
0
ENDTAB
0
TABLE
2
STYLE
5
3
100
AcDbSymbolTable
70
1
0
STYLE
5
11
100
AcDbSymbolTableRecord
100
AcDbTextStyleTableRecord
2
STANDARD
70
0
0
ENDTAB
0
TABLE
2
VIEW
5
6
100
AcDbSymbolTable
70
0
0
ENDTAB
0
TABLE
2
UCS
5
7
100
AcDbSymbolTable
70
0
0
ENDTAB
0
TABLE
2
APPID
5
9
100
AcDbSymbolTable
70
2
0
APPID
5
12
100
AcDbSymbolTableRecord
100
AcDbRegAppTableRecord
2
ACAD
70
0
0
ENDTAB
0
TABLE
2
DIMSTYLE
5
A
100
AcDbSymbolTable
70
1
0
ENDTAB
0
TABLE
2
BLOCK_RECORD
5
1
100
AcDbSymbolTable
70
1
0
BLOCK_RECORD
5
1F
100
AcDbSymbolTableRecord
100
AcDbBlockTableRecord
2
*MODEL_SPACE
0
BLOCK_RECORD
5
1B
100
AcDbSymbolTableRecord
100
AcDbBlockTableRecord
2
*PAPER_SPACE
0
ENDTAB
0
ENDSEC
0
SECTION
2
BLOCKS
0
BLOCK
5
20
100
AcDbEntity
100
AcDbBlockBegin
2
*MODEL_SPACE
0
ENDBLK
5
21
100
AcDbEntity
100
AcDbBlockEnd
0
BLOCK
5
1C
100
AcDbEntity
100
AcDbBlockBegin
2
*PAPER_SPACE
0
ENDBLK
5
1D
100
AcDbEntity
100
AcDbBlockEnd
0
ENDSEC
0
SECTION
2
ENTITIES
0
LINE
5
100
100
AcDbEntity
8
0
100
AcDbLine
10
-23.532532687149814
20
62.50000025331974
30
0
11
-8.1954466904930571e-34
21
62.50000025331974
31
0
0
ARC
5
101
100
AcDbEntity
8
0
100
AcDbCircle
10
-25.032532687149818
20
62.50000025331974
30
0
40
1.5000000000000036
210
0
220
0
230
1
100
AcDbArc
50
-180
51
0
0
LINE
5
102
100
AcDbEntity
8
0
100
AcDbLine
10
-35
20
62.50000025331974
30
0
11
-26.532532687149821
21
62.50000025331974
31
0
0
ARC
5
103
100
AcDbEntity
8
0
100
AcDbCircle
10
-35
20
52.50000025331974
30
0
40
10
210
0
220
-0
230
1
100
AcDbArc
50
90
51
180
0
ARC
5
104
100
AcDbEntity
8
0
100
AcDbCircle
10
-35
20
52.50000062584877
30
0
40
10.00000000049628
210
0
220
0
230
1
100
AcDbArc
50
179.99942917649184
51
270
0
LINE
5
105
100
AcDbEntity
8
0
100
AcDbLine
10
-35
20
42.50000062584877
30
0
11
-26.45224192167333
21
42.50000062584877
31
0
0
ARC
5
106
100
AcDbEntity
8
0
100
AcDbCircle
10
-24.95224192167333
20
42.50000062584877
30
0
40
1.5000000000000011
210
0
220
0
230
1
100
AcDbArc
50
-45.054779459553501
51
180
0
LINE
5
107
100
AcDbEntity
8
0
100
AcDbLine
10
-23.892596312535698
20
41.43832686096836
30
0
11
-8.1954466904930571e-34
21
17.50000025331974
31
0
0
LINE
5
108
100
AcDbEntity
8
0
100
AcDbLine
10
10
20
-6.5887988293627921e-06
30
0
11
11.845208128486851
21
-6.5887988287549604e-06
31
0
0
LINE
5
109
100
AcDbEntity
8
0
100
AcDbLine
10
398.5598460494283
20
1835.2397351718896
30
0
11
21.639015390450993
21
7.9797609207443534
31
0
0
CIRCLE
5
110
100
AcDbEntity
8
0
100
AcDbCircle
10
20.355083300527305
20
1864.2952802710638
30
0
40
3.4999999999999964
210
0
220
0
230
1
0
ARC
5
111
100
AcDbEntity
8
0
100
AcDbCircle
10
20.367258762335275
20
1864.2948550963438
30
0
40
9.9999999982511607
210
-0
220
0
230
1
100
AcDbArc
50
-2.0000000192249803
51
88.000000000840174
0
ARC
5
112
100
AcDbEntity
8
0
100
AcDbCircle
10
20.355083300527305
20
1864.2952802710638
30
0
40
10.000000000000453
210
0
220
-0
230
1
100
AcDbArc
50
88.000000000840203
51
177.99999999978698
0
LINE
5
113
100
AcDbEntity
8
0
100
AcDbLine
10
20.704078267405784
20
1874.2891885412605
30
0
11
20.716253729151841
21
1874.2887633647674
31
0
0
LINE
5
114
100
AcDbEntity
8
0
100
AcDbLine
10
30.012172060321795
20
1853.9519518577683
30
0
11
30.361167030661353
21
1863.9458601260264
31
0
0
LINE
5
115
100
AcDbEntity
8
0
100
AcDbLine
10
10.012180063305763
20
1854.6503669677518
30
0
11
10.361175030374259
21
1864.6442752381247
31
0
0
CIRCLE
5
116
100
AcDbEntity
8
0
100
AcDbCircle
10
379.93791559390468
20
1851.645054268919
30
0
40
3.4999999999999964
210
0
220
0
230
1
0
ARC
5
117
100
AcDbEntity
8
0
100
AcDbCircle
10
379.93791559390468
20
1851.645054268919
30
0
40
10.000000000000579
210
0
220
-0
230
1
100
AcDbArc
50
87.999981075737225
51
177.99998107589704
0
LINE
5
118
100
AcDbEntity
8
0
100
AcDbLine
10
30.012172060321795
20
1853.9519518577683
30
0
11
30.012172350261167
21
1854.6503669678978
31
0
0
LINE
5
119
100
AcDbEntity
8
0
100
AcDbLine
10
369.59826094758733
20
1842.0932621954503
30
0
11
369.94400743898257
21
1851.9940525368111
31
0
0
LINE
5
120
100
AcDbEntity
8
0
100
AcDbLine
10
389.59826404341385
20
1841.3949419214146
30
0
11
389.94400698548259
21
1851.2956305462485
31
0
0
LINE
5
121
100
AcDbEntity
8
0
100
AcDbLine
10
30.012172060321795
20
1853.9519518577683
30
0
11
60.000000298023281
21
1853.9519518474729
31
0
0
LINE
5
122
100
AcDbEntity
8
0
100
AcDbLine
10
380.28691386182459
20
1861.6389624238402
30
0
11
380.29909709726434
21
1861.6385369718548
31
0
0
ARC
5
123
100
AcDbEntity
8
0
100
AcDbCircle
10
379.95009883065683
20
1851.6446288168886
30
0
40
10.000000000000144
210
-0
220
0
230
1
100
AcDbArc
50
-2.0000189398578243
51
87.999981083261147
0
LINE
5
124
100
AcDbEntity
8
0
100
AcDbLine
10
5.1744986905651889
20
1854.819303693848
30
0
11
10.012180063305763
21
1854.6503669677518
31
0
0
LINE
5
125
100
AcDbEntity
8
0
100
AcDbLine
10
389.59826404341385
20
1841.3949419214146
30
0
11
389.59826055344024
21
1841.3948419823325
31
0
0
LINE
5
126
100
AcDbEntity
8
0
100
AcDbLine
10
30.012172060321795
20
1853.9519518577683
30
0
11
369.59826094758733
21
1842.0932621954503
31
0
0
LINE
5
127
100
AcDbEntity
8
0
100
AcDbLine
10
389.59826055344024
20
1841.3948419823325
30
0
11
393.83744110901154
21
1841.2468055100617
31
0
0
ARC
5
128
100
AcDbEntity
8
0
100
AcDbCircle
10
10
20
9.9999934112011708
30
0
40
10
210
0
220
0
230
1
100
AcDbArc
50
180
51
270
0
ARC
5
129
100
AcDbEntity
8
0
100
AcDbCircle
10
11.845208128486862
20
9.9999934112010891
30
0
40
9.9999999999999183
210
0
220
0
230
1
100
AcDbArc
50
269.99999999999994
51
348.34470187653608
0
CIRCLE
5
130
100
AcDbEntity
8
0
100
AcDbCircle
10
-35
20
52.50000025331974
30
0
40
3.5000000000000009
210
0
220
0
230
1
0
LINE
5
131
100
AcDbEntity
8
0
100
AcDbLine
10
-23.532532687149814
20
462.50000025331974
30
0
11
-8.1954466904930571e-34
21
462.50000025331974
31
0
0
ARC
5
132
100
AcDbEntity
8
0
100
AcDbCircle
10
-25.032532687149818
20
462.50000025331974
30
0
40
1.5000000000000036
210
0
220
0
230
1
100
AcDbArc
50
-180
51
0
0
LINE
5
133
100
AcDbEntity
8
0
100
AcDbLine
10
-35
20
462.50000025331974
30
0
11
-26.532532687149821
21
462.50000025331974
31
0
0
ARC
5
134
100
AcDbEntity
8
0
100
AcDbCircle
10
-35
20
452.50000025331974
30
0
40
10
210
0
220
-0
230
1
100
AcDbArc
50
90
51
180
0
CIRCLE
5
135
100
AcDbEntity
8
0
100
AcDbCircle
10
-35
20
452.50000025331974
30
0
40
3.5000000000000009
210
0
220
0
230
1
0
ARC
5
136
100
AcDbEntity
8
0
100
AcDbCircle
10
-35
20
452.50000062584877
30
0
40
10.00000000049628
210
0
220
0
230
1
100
AcDbArc
50
179.99942917649184
51
270
0
LINE
5
137
100
AcDbEntity
8
0
100
AcDbLine
10
-35
20
442.50000062584877
30
0
11
-26.45224192167333
21
442.50000062584877
31
0
0
ARC
5
138
100
AcDbEntity
8
0
100
AcDbCircle
10
-24.95224192167333
20
442.50000062584877
30
0
40
1.4999999999999825
210
0
220
0
230
1
100
AcDbArc
50
-45.054779459553906
51
180
0
LINE
5
139
100
AcDbEntity
8
0
100
AcDbLine
10
-23.892596312535698
20
441.43832686096835
30
0
11
-8.1954466904930571e-34
21
417.50000025331974
31
0
0
LINE
5
140
100
AcDbEntity
8
0
100
AcDbLine
10
-23.532532687149814
20
862.50000025331974
30
0
11
-8.1954466904930571e-34
21
862.50000025331974
31
0
0
ARC
5
141
100
AcDbEntity
8
0
100
AcDbCircle
10
-25.032532687149818
20
862.50000025331974
30
0
40
1.5000000000000036
210
0
220
0
230
1
100
AcDbArc
50
-180
51
0
0
LINE
5
142
100
AcDbEntity
8
0
100
AcDbLine
10
-35
20
862.50000025331974
30
0
11
-26.532532687149821
21
862.50000025331974
31
0
0
ARC
5
143
100
AcDbEntity
8
0
100
AcDbCircle
10
-35
20
852.50000025331974
30
0
40
10
210
0
220
-0
230
1
100
AcDbArc
50
90
51
180
0
CIRCLE
5
144
100
AcDbEntity
8
0
100
AcDbCircle
10
-35
20
852.50000025331974
30
0
40
3.5000000000000009
210
0
220
0
230
1
0
ARC
5
145
100
AcDbEntity
8
0
100
AcDbCircle
10
-35
20
852.50000062584877
30
0
40
10.00000000049628
210
0
220
0
230
1
100
AcDbArc
50
179.99942917649184
51
270
0
LINE
5
146
100
AcDbEntity
8
0
100
AcDbLine
10
-35
20
842.50000062584877
30
0
11
-26.45224192167333
21
842.50000062584877
31
0
0
ARC
5
147
100
AcDbEntity
8
0
100
AcDbCircle
10
-24.95224192167333
20
842.50000062584877
30
0
40
1.5000000000000326
210
0
220
0
230
1
100
AcDbArc
50
-45.054779459553906
51
180
0
LINE
5
148
100
AcDbEntity
8
0
100
AcDbLine
10
-23.892596312535698
20
841.43832686096835
30
0
11
-8.1954466904930571e-34
21
817.50000025331974
31
0
0
LINE
5
149
100
AcDbEntity
8
0
100
AcDbLine
10
-23.532532687149814
20
1262.5000002533197
30
0
11
-8.1954466904930571e-34
21
1262.5000002533197
31
0
0
ARC
5
150
100
AcDbEntity
8
0
100
AcDbCircle
10
-25.032532687149818
20
1262.5000002533197
30
0
40
1.5000000000000036
210
0
220
0
230
1
100
AcDbArc
50
-180
51
0
0
LINE
5
151
100
AcDbEntity
8
0
100
AcDbLine
10
-35
20
1262.5000002533197
30
0
11
-26.532532687149821
21
1262.5000002533197
31
0
0
ARC
5
152
100
AcDbEntity
8
0
100
AcDbCircle
10
-35
20
1252.5000002533197
30
0
40
10
210
0
220
-0
230
1
100
AcDbArc
50
90
51
180
0
CIRCLE
5
153
100
AcDbEntity
8
0
100
AcDbCircle
10
-35
20
1252.5000002533197
30
0
40
3.5000000000000009
210
0
220
0
230
1
0
ARC
5
154
100
AcDbEntity
8
0
100
AcDbCircle
10
-35
20
1252.5000006258488
30
0
40
10.00000000049628
210
0
220
0
230
1
100
AcDbArc
50
179.99942917649184
51
270
0
LINE
5
155
100
AcDbEntity
8
0
100
AcDbLine
10
-35
20
1242.5000006258488
30
0
11
-26.45224192167333
21
1242.5000006258488
31
0
0
ARC
5
156
100
AcDbEntity
8
0
100
AcDbCircle
10
-24.95224192167333
20
1242.5000006258488
30
0
40
1.5000000000000326
210
0
220
0
230
1
100
AcDbArc
50
-45.054779459553906
51
180
0
LINE
5
157
100
AcDbEntity
8
0
100
AcDbLine
10
-23.892596312535698
20
1241.4383268609683
30
0
11
-8.1954466904930571e-34
21
1217.5000002533197
31
0
0
LINE
5
158
100
AcDbEntity
8
0
100
AcDbLine
10
-23.532532687149814
20
1662.5000002533197
30
0
11
-8.1954466904930571e-34
21
1662.5000002533197
31
0
0
ARC
5
159
100
AcDbEntity
8
0
100
AcDbCircle
10
-25.032532687149818
20
1662.5000002533197
30
0
40
1.5000000000000036
210
0
220
0
230
1
100
AcDbArc
50
-180
51
0
0
LINE
5
160
100
AcDbEntity
8
0
100
AcDbLine
10
-35
20
1662.5000002533197
30
0
11
-26.532532687149821
21
1662.5000002533197
31
0
0
ARC
5
161
100
AcDbEntity
8
0
100
AcDbCircle
10
-35
20
1652.5000002533197
30
0
40
10
210
0
220
-0
230
1
100
AcDbArc
50
90
51
180
0
CIRCLE
5
162
100
AcDbEntity
8
0
100
AcDbCircle
10
-35
20
1652.5000002533197
30
0
40
3.5000000000000009
210
0
220
0
230
1
0
ARC
5
163
100
AcDbEntity
8
0
100
AcDbCircle
10
-35
20
1652.5000006258488
30
0
40
10.00000000049628
210
0
220
0
230
1
100
AcDbArc
50
179.99942917649184
51
270
0
LINE
5
164
100
AcDbEntity
8
0
100
AcDbLine
10
-35
20
1642.5000006258488
30
0
11
-26.45224192167333
21
1642.5000006258488
31
0
0
ARC
5
165
100
AcDbEntity
8
0
100
AcDbCircle
10
-24.95224192167333
20
1642.5000006258488
30
0
40
1.5000000000001332
210
0
220
0
230
1
100
AcDbArc
50
-45.054779459553906
51
180
0
LINE
5
166
100
AcDbEntity
8
0
100
AcDbLine
10
-23.892596312535698
20
1641.4383268609683
30
0
11
-8.1954466904930571e-34
21
1617.5000002533197
31
0
0
LINE
5
167
100
AcDbEntity
8
0
100
AcDbLine
10
8.4376949871511897e-14
20
1849.8223496009039
30
0
11
-8.1954466904930571e-34
21
1662.5000002533197
31
0
0
LINE
5
168
100
AcDbEntity
8
0
100
AcDbLine
10
-8.1954466904930571e-34
20
1617.5000002533197
30
0
11
-8.1954466904930571e-34
21
1262.5000002533197
31
0
0
LINE
5
169
100
AcDbEntity
8
0
100
AcDbLine
10
-8.1954466904930571e-34
20
1217.5000002533197
30
0
11
-8.1954466904930571e-34
21
862.50000025331974
31
0
0
LINE
5
170
100
AcDbEntity
8
0
100
AcDbLine
10
-8.1954466904930571e-34
20
817.50000025331974
30
0
11
-8.1954466904930571e-34
21
462.50000025331974
31
0
0
LINE
5
171
100
AcDbEntity
8
0
100
AcDbLine
10
-8.1954466904930571e-34
20
417.50000025331974
30
0
11
-8.1954466904930571e-34
21
62.50000025331974
31
0
0
LINE
5
172
100
AcDbEntity
8
0
100
AcDbLine
10
-8.1954466904930571e-34
20
17.50000025331974
30
0
11
0
21
9.9999934112011708
31
0
0
ARC
5
173
100
AcDbEntity
8
0
100
AcDbCircle
10
393.66294241844639
20
1836.249851417118
30
0
40
4.9999999999998144
210
-0
220
0
230
1
100
AcDbArc
50
-11.655298123464064
51
87.999986159764305
0
ARC
5
174
100
AcDbEntity
8
0
100
AcDbCircle
10
4.9999999999998597
20
1849.8223496009041
30
0
40
4.9999999999997762
210
0
220
-0
230
1
100
AcDbArc
50
87.999986159762287
51
180
0
ENDSEC
0
SECTION
2
OBJECTS
0
DICTIONARY
5
C
100
AcDbDictionary
3
ACAD_GROUP
350
D
3
ACAD_MLINESTYLE
350
17
0
DICTIONARY
5
D
100
AcDbDictionary
0
DICTIONARY
5
1A
330
C
100
AcDbDictionary
0
DICTIONARY
5
17
100
AcDbDictionary
0
ENDSEC
0
EOF
