0
SECTION
2
HEADER
9
$INSUNITS
70
4
9
$ACADVER
1
AC1014
9
$HANDSEED
5
FFFF
0
ENDSEC
0
SECTION
2
TABLES
0
TABLE
2
VPORT
5
8
100
AcDbSymbolTable
0
ENDTAB
0
TABLE
2
LTYPE
5
5
100
AcDbSymbolTable
0
LTYPE
5
14
100
AcDbSymbolTableRecord
100
AcDbLinetypeTableRecord
2
BYBLOCK
70
0
0
LTYPE
5
15
100
AcDbSymbolTableRecord
100
AcDbLinetypeTableRecord
2
BYLAYER
70
0
0
ENDTAB
0
TABLE
2
LAYER
5
2
100
AcDbSymbolTable
70
2
0
LAYER
5
50
100
AcDbSymbolTableRecord
100
AcDbLayerTableRecord
2
0
70
0
6
CONTINUOUS
0
ENDTAB
0
TABLE
2
STYLE
5
3
100
AcDbSymbolTable
70
1
0
STYLE
5
11
100
AcDbSymbolTableRecord
100
AcDbTextStyleTableRecord
2
STANDARD
70
0
0
ENDTAB
0
TABLE
2
VIEW
5
6
100
AcDbSymbolTable
70
0
0
ENDTAB
0
TABLE
2
UCS
5
7
100
AcDbSymbolTable
70
0
0
ENDTAB
0
TABLE
2
APPID
5
9
100
AcDbSymbolTable
70
2
0
APPID
5
12
100
AcDbSymbolTableRecord
100
AcDbRegAppTableRecord
2
ACAD
70
0
0
ENDTAB
0
TABLE
2
DIMSTYLE
5
A
100
AcDbSymbolTable
70
1
0
ENDTAB
0
TABLE
2
BLOCK_RECORD
5
1
100
AcDbSymbolTable
70
1
0
BLOCK_RECORD
5
1F
100
AcDbSymbolTableRecord
100
AcDbBlockTableRecord
2
*MODEL_SPACE
0
BLOCK_RECORD
5
1B
100
AcDbSymbolTableRecord
100
AcDbBlockTableRecord
2
*PAPER_SPACE
0
ENDTAB
0
ENDSEC
0
SECTION
2
BLOCKS
0
BLOCK
5
20
100
AcDbEntity
100
AcDbBlockBegin
2
*MODEL_SPACE
0
ENDBLK
5
21
100
AcDbEntity
100
AcDbBlockEnd
0
BLOCK
5
1C
100
AcDbEntity
100
AcDbBlockBegin
2
*PAPER_SPACE
0
ENDBLK
5
1D
100
AcDbEntity
100
AcDbBlockEnd
0
ENDSEC
0
SECTION
2
ENTITIES
0
LINE
5
100
100
AcDbEntity
8
0
100
AcDbLine
10
4.1477212024554442
20
-4.6485356438740238e-05
30
0
11
9.999999999986203
21
-6.8427268641451668e-05
31
0
0
LINE
5
101
100
AcDbEntity
8
0
100
AcDbLine
10
-34.999997420693752
20
45.000000714220548
30
0
11
-26.532532687149821
21
45.000000713390179
31
0
0
ARC
5
102
100
AcDbEntity
8
0
100
AcDbCircle
10
4.1477586953927483
20
9.9999535145732761
30
0
40
10.000000000000014
210
0
220
0
230
1
100
AcDbArc
50
224.94516570688089
51
269.99978518129308
0
ARC
5
103
100
AcDbEntity
8
0
100
AcDbCircle
10
-34.999997420700382
20
35.000008229112417
30
0
40
10.000000000496298
210
0
220
0
230
1
100
AcDbArc
50
179.99942117798736
51
269.99999318688486
0
LINE
5
104
100
AcDbEntity
8
0
100
AcDbLine
10
-34.999998609813296
20
25.00000822861621
30
0
11
-26.452232649017255
21
25.000007212190319
31
0
0
ARC
5
105
100
AcDbEntity
8
0
100
AcDbCircle
10
-25.032532687149818
20
45.000000713390179
30
0
40
1.5000000000000036
210
0
220
0
230
1
100
AcDbArc
50
-180
51
0
0
LINE
5
106
100
AcDbEntity
8
0
100
AcDbLine
10
-23.892587335798826
20
23.938332733208
30
0
11
-2.9300731645312399
21
2.9356562273234532
31
0
0
LINE
5
107
100
AcDbEntity
8
0
100
AcDbLine
10
-23.532532687149814
20
45.000000713390179
30
0
11
2.0798497079820347e-06
21
45.000000291487652
31
0
0
ARC
5
108
100
AcDbEntity
8
0
100
AcDbCircle
10
32.482008455691897
20
9.9999553677755912
30
0
40
10.000023795044244
210
0
220
0
230
1
100
AcDbArc
50
269.56122061806695
51
320.8688264344874
0
LINE
5
109
100
AcDbEntity
8
0
100
AcDbLine
10
8.1724965308832331e-05
20
399.99998876117263
30
0
11
2.0798497079820347e-06
21
45.000000291487652
31
0
0
ARC
5
110
100
AcDbEntity
8
0
100
AcDbCircle
10
-24.952232649017311
20
25.000006793442175
30
0
40
1.5000000000000044
210
0
220
0
230
1
100
AcDbArc
50
-45.054795429540277
51
179.99998400455587
0
CIRCLE
5
111
100
AcDbEntity
8
0
100
AcDbCircle
10
-35.000000192542544
20
1234.9999947426918
30
0
40
3.5000000000000009
210
0
220
0
230
1
0
LINE
5
112
100
AcDbEntity
8
0
100
AcDbLine
10
-23.53253270929757
20
1244.9999947426918
30
0
11
3.0283029690910017e-05
21
1244.9999947426918
31
0
0
LINE
5
113
100
AcDbEntity
8
0
100
AcDbLine
10
-35.000000876392988
20
1225.0000080963762
30
0
11
-26.452211534382116
21
1225.0000081020739
31
0
0
ARC
5
114
100
AcDbEntity
8
0
100
AcDbCircle
10
-35.000000936624019
20
835.0000131495965
30
0
40
10.000000000496286
210
0
220
0
230
1
100
AcDbArc
50
179.99942921544101
51
270.0000000542592
0
LINE
5
115
100
AcDbEntity
8
0
100
AcDbLine
10
-35.000000927154005
20
825.00001314910037
30
0
11
-26.452191098736691
21
825.00001315719499
31
0
0
LINE
5
116
100
AcDbEntity
8
0
100
AcDbLine
10
-23.532532742311567
20
844.99999093203076
30
0
11
6.679046174019819e-05
21
844.99999093203076
31
0
0
ARC
5
117
100
AcDbEntity
8
0
100
AcDbCircle
10
-24.95219109873662
20
825.00001306453669
30
0
40
1.5000000000000258
210
0
220
0
230
1
100
AcDbArc
50
-45.054782989121541
51
179.9999964798011
0
LINE
5
118
100
AcDbEntity
8
0
100
AcDbLine
10
-35.000000480041763
20
844.99999093203076
30
0
11
-26.532532742311574
21
844.99999093203076
31
0
0
CIRCLE
5
119
100
AcDbEntity
8
0
100
AcDbCircle
10
-35.000000480041763
20
834.99999093203076
30
0
40
3.5000000000000009
210
0
220
0
230
1
0
ARC
5
120
100
AcDbEntity
8
0
100
AcDbCircle
10
-35.000000480041763
20
834.99999093203076
30
0
40
10
210
0
220
0
230
1
100
AcDbArc
50
90
51
180
0
LINE
5
121
100
AcDbEntity
8
0
100
AcDbLine
10
-23.89254555500079
20
823.93833923437933
30
0
11
6.9919670863781213e-05
21
799.99999093203087
31
0
0
ARC
5
122
100
AcDbEntity
8
0
100
AcDbCircle
10
-35.000000192542544
20
1234.9999947426918
30
0
40
10
210
0
220
-0
230
1
100
AcDbArc
50
90
51
180
0
ARC
5
123
100
AcDbEntity
8
0
100
AcDbCircle
10
-25.032532742311567
20
844.99999093203076
30
0
40
1.5000000000000036
210
0
220
0
230
1
100
AcDbArc
50
-180
51
0
0
ARC
5
124
100
AcDbEntity
8
0
100
AcDbCircle
10
-25.032532709297573
20
1244.9999947426918
30
0
40
1.5000000000000036
210
0
220
0
230
1
100
AcDbArc
50
-180
51
0
0
LINE
5
125
100
AcDbEntity
8
0
100
AcDbLine
10
-23.89256595158523
20
1223.9383342736169
30
0
11
4.2104483758626238e-05
21
1199.9999947426918
31
0
0
LINE
5
126
100
AcDbEntity
8
0
100
AcDbLine
10
-35.000000192542544
20
1244.9999947426918
30
0
11
-26.532532709297577
21
1244.9999947426918
31
0
0
LINE
5
127
100
AcDbEntity
8
0
100
AcDbLine
10
-35.000000614188515
20
1625.000003198777
30
0
11
-26.45223175925231
21
1625.000003201925
31
0
0
ARC
5
128
100
AcDbEntity
8
0
100
AcDbCircle
10
-24.952211534382084
20
1225.0000080647876
30
0
40
1.4999999999999671
210
0
220
0
230
1
100
AcDbArc
50
-45.054780881093301
51
179.99999879258175
0
ARC
5
129
100
AcDbEntity
8
0
100
AcDbCircle
10
-35.000000050038722
20
1634.9999983600628
30
0
40
9.9999999999997158
210
0
220
-0
230
1
100
AcDbArc
50
89.999999999999972
51
180
0
CIRCLE
5
130
100
AcDbEntity
8
0
100
AcDbCircle
10
-35.000000050038722
20
1634.9999983600628
30
0
40
3.5000000000000089
210
0
220
0
230
1
0
ARC
5
131
100
AcDbEntity
8
0
100
AcDbCircle
10
-25.032532692910099
20
1644.9999983600626
30
0
40
1.5000000000000036
210
0
220
0
230
1
100
AcDbArc
50
-180
51
0
0
LINE
5
132
100
AcDbEntity
8
0
100
AcDbLine
10
-35.000000050038715
20
1644.9999983600626
30
0
11
-26.532532692910102
21
1644.9999983600626
31
0
0
ARC
5
133
100
AcDbEntity
8
0
100
AcDbCircle
10
-35.00000061787145
20
1635.0000031992729
30
0
40
10.000000000496286
210
0
220
0
230
1
100
AcDbArc
50
179.99942919692387
51
270.0000000211017
0
LINE
5
134
100
AcDbEntity
8
0
100
AcDbLine
10
-23.532532692910095
20
1644.9999983600626
30
0
11
2.4678425353872674e-06
21
1645.0000070689455
31
0
0
ARC
5
135
100
AcDbEntity
8
0
100
AcDbCircle
10
-35.000000267611611
20
2034.9999983764528
30
0
40
10.00000000049628
210
0
220
0
230
1
100
AcDbArc
50
179.99942918543078
51
270.00000000784479
0
ARC
5
136
100
AcDbEntity
8
0
100
AcDbCircle
10
-25.032532683141081
20
2045.0000018910991
30
0
40
1.5000000000000036
210
0
220
0
230
1
100
AcDbArc
50
-180
51
0
0
LINE
5
137
100
AcDbEntity
8
0
100
AcDbLine
10
-23.892586156755552
20
1623.9383294210186
30
0
11
5.597050939686661e-06
21
1600.0000070689457
31
0
0
ARC
5
138
100
AcDbEntity
8
0
100
AcDbCircle
10
-35.000000883058597
20
1235.0000080968725
30
0
40
10.00000000049628
210
0
220
0
230
1
100
AcDbArc
50
179.99942921097133
51
270.0000000381911
0
ARC
5
139
100
AcDbEntity
8
0
100
AcDbCircle
10
-24.952231759252179
20
1625.0000031925276
30
0
40
1.5000000000002676
210
0
220
0
230
1
100
AcDbArc
50
-45.054779817959975
51
180
0
LINE
5
140
100
AcDbEntity
8
0
100
AcDbLine
10
-23.892606223099683
20
2023.9383246247899
30
0
11
-2.2218134861116665e-05
21
2000.0000018910996
31
0
0
LINE
5
141
100
AcDbEntity
8
0
100
AcDbLine
10
-23.532532683141078
20
2045.0000018910991
30
0
11
-2.534734330715921e-05
21
2045.0000018910991
31
0
0
CIRCLE
5
142
100
AcDbEntity
8
0
100
AcDbCircle
10
-35.000001119520093
20
434.99998876117075
30
0
40
3.5000000000000142
210
0
220
0
230
1
0
LINE
5
143
100
AcDbEntity
8
0
100
AcDbLine
10
-35.000000266242438
20
2024.9999983759562
30
0
11
-26.45225183743711
21
2024.9999983771268
31
0
0
CIRCLE
5
144
100
AcDbEntity
8
0
100
AcDbCircle
10
-34.999999965197361
20
2035.0000018910991
30
0
40
3.5000000000000404
210
0
220
0
230
1
0
LINE
5
145
100
AcDbEntity
8
0
100
AcDbLine
10
-34.999999965197361
20
2045.0000018910991
30
0
11
-26.532532683141085
21
2045.0000018910991
31
0
0
ARC
5
146
100
AcDbEntity
8
0
100
AcDbCircle
10
-24.952251837436982
20
2024.9999983844807
30
0
40
1.5000000000000837
210
0
220
0
230
1
100
AcDbArc
50
-45.05477917894558
51
180
0
ARC
5
147
100
AcDbEntity
8
0
100
AcDbCircle
10
-34.999999965197361
20
2035.0000018910991
30
0
40
10
210
0
220
-0
230
1
100
AcDbArc
50
90
51
180
0
ARC
5
148
100
AcDbEntity
8
0
100
AcDbCircle
10
-35.000001119520093
20
434.99998876117075
30
0
40
10.000000000000071
210
0
220
-0
230
1
100
AcDbArc
50
90
51
180
0
LINE
5
149
100
AcDbEntity
8
0
100
AcDbLine
10
-35.000000537235813
20
425.00001561966474
30
0
11
-26.452183004532429
21
425.00001562434824
31
0
0
ARC
5
150
100
AcDbEntity
8
0
100
AcDbCircle
10
-35.000000542714844
20
435.00001562016104
30
0
40
10.00000000049628
210
0
220
0
230
1
100
AcDbArc
50
179.99942913562998
51
270.00000003139252
0
ARC
5
151
100
AcDbEntity
8
0
100
AcDbCircle
10
-34.999997420693752
20
35.000000714220548
30
0
40
10.000000000000004
210
0
220
-0
230
1
100
AcDbArc
50
90
51
179.99999758516347
0
CIRCLE
5
152
100
AcDbEntity
8
0
100
AcDbCircle
10
-34.999997420700382
20
35.000008229112417
30
0
40
3.5000000000000004
210
0
220
0
230
1
0
LINE
5
153
100
AcDbEntity
8
0
100
AcDbLine
10
9.999999999986203
20
-6.8427268641451668e-05
30
0
11
11.564693225308032
21
-6.8427268641451668e-05
31
0
0
LINE
5
154
100
AcDbEntity
8
0
100
AcDbLine
10
-44.999997420686391
20
35.00010925259712
30
0
11
-44.999997420693745
21
35.000001131428526
31
0
0
LINE
5
155
100
AcDbEntity
8
0
100
AcDbLine
10
-35.000001119520093
20
444.99998876117081
30
0
11
-26.532532815893607
21
444.99998876117081
31
0
0
ARC
5
156
100
AcDbEntity
8
0
100
AcDbCircle
10
-25.032532815893603
20
444.99998876117081
30
0
40
1.5000000000000036
210
0
220
0
230
1
100
AcDbArc
50
-180
51
0
0
ARC
5
157
100
AcDbEntity
8
0
100
AcDbCircle
10
-24.952183004532237
20
425.00001541567741
30
0
40
1.500000000000163
210
0
220
0
230
1
100
AcDbArc
50
-45.054787389363518
51
179.99999208242895
0
LINE
5
158
100
AcDbEntity
8
0
100
AcDbLine
10
-23.5325328158936
20
444.99998876117081
30
0
11
9.4605647861868068e-05
21
444.99998876117081
31
0
0
LINE
5
159
100
AcDbEntity
8
0
100
AcDbLine
10
-23.892537542331517
20
423.93834150414057
30
0
11
8.1724965308832331e-05
21
399.99998876117263
31
0
0
LINE
5
160
100
AcDbEntity
8
0
100
AcDbLine
10
9.9995300776136045
20
-6.8425506764444627e-05
30
0
11
32.3288475969308
21
-6.8421038088030222e-05
31
0
0
LINE
5
161
100
AcDbEntity
8
0
100
AcDbLine
10
398.82075599896325
20
2150.4208216630022
30
0
11
42.193072576147763
21
8.3576570830540025
31
0
0
LINE
5
162
100
AcDbEntity
8
0
100
AcDbLine
10
20.704199020087085
20
2199.2891000946024
30
0
11
20.716300807154802
21
2199.2886774902681
31
0
0
CIRCLE
5
163
100
AcDbEntity
8
0
100
AcDbCircle
10
20.355203543538632
20
2189.2951918422036
30
0
40
3.4999999999999964
210
0
220
0
230
1
0
LINE
5
164
100
AcDbEntity
8
0
100
AcDbLine
10
29.715783860137911
20
2170.4630937442794
30
0
11
30.361213593214206
21
2188.9457741038036
31
0
0
ARC
5
165
100
AcDbEntity
8
0
100
AcDbCircle
10
379.94994512223388
20
2176.644539852362
30
0
40
10.000000002634117
210
-0
220
0
230
1
100
AcDbArc
50
-2.0001580557839689
51
87.999813529650581
0
ARC
5
166
100
AcDbEntity
8
0
100
AcDbCircle
10
379.93503313696345
20
2176.645060579961
30
0
40
9.9999999999999307
210
0
220
-0
230
1
100
AcDbArc
50
88.000050570379614
51
178.00006921433493
0
ARC
5
167
100
AcDbEntity
8
0
100
AcDbCircle
10
20.367305330667406
20
2189.2947692396178
30
0
40
9.9999999982511518
210
-0
220
0
230
1
100
AcDbArc
50
-2.0000009680301396
51
87.999997078866386
0
CIRCLE
5
168
100
AcDbEntity
8
0
100
AcDbCircle
10
379.93503313696351
20
2176.6450605799605
30
0
40
3.4999999999999964
210
0
220
0
230
1
0
LINE
5
169
100
AcDbEntity
8
0
100
AcDbLine
10
380.28401928316873
20
2186.638969158178
30
0
11
380.29897261474673
21
2186.6384469895461
31
0
0
ARC
5
170
100
AcDbEntity
8
0
100
AcDbCircle
10
20.355203543538632
20
2189.2951918422036
30
0
40
10.00000000000086
210
0
220
-0
230
1
100
AcDbArc
50
87.999997078866414
51
177.99999723013687
0
LINE
5
171
100
AcDbEntity
8
0
100
AcDbLine
10
9.7158649096868075
20
2171.1615050570163
30
0
11
10.361295290218802
21
2189.6441872923665
31
0
0
LINE
5
172
100
AcDbEntity
8
0
100
AcDbLine
10
31.162520828173715
20
2168.9116581835005
30
0
11
369.24662580703841
21
2157.1055156654693
31
0
0
LINE
5
173
100
AcDbEntity
8
0
100
AcDbLine
10
369.29897323918055
20
2158.6046019693044
30
0
11
369.94112444518754
21
2176.9940434741643
31
0
0
LINE
5
174
100
AcDbEntity
8
0
100
AcDbLine
10
5.1744635887312747
20
2169.8191800190948
30
0
11
8.164429358675072
21
2169.7147682426044
31
0
0
LINE
5
175
100
AcDbEntity
8
0
100
AcDbLine
10
389.24869486487717
20
2156.3887845629024
30
0
11
389.24933078198433
21
2156.4069948687352
31
0
0
LINE
5
176
100
AcDbEntity
8
0
100
AcDbLine
10
31.162520828173715
20
2168.9116581835005
30
0
11
367.74753956425508
21
2157.1578648459495
31
0
0
LINE
5
177
100
AcDbEntity
8
0
100
AcDbLine
10
390.74830668345567
20
2156.3546613512158
30
0
11
394.06314760894884
21
2156.2389046983153
31
0
0
ARC
5
178
100
AcDbEntity
8
0
100
AcDbCircle
10
393.88865059127284
20
2151.2419577317373
30
0
40
4.9999928195895373
210
0
220
0
230
1
100
AcDbArc
50
-9.452358394951899
51
88.000002468020085
0
ARC
5
179
100
AcDbEntity
8
0
100
AcDbCircle
10
4.9999663204173261
20
2164.8222258764822
30
0
40
5.0000000000021627
210
0
220
-0
230
1
100
AcDbArc
50
88.000002467497822
51
180.00000400455335
0
LINE
5
180
100
AcDbEntity
8
0
100
AcDbLine
10
-2.2218134861116665e-05
20
2000.0000018910996
30
0
11
2.4678425353872674e-06
21
1645.0000070689455
31
0
0
LINE
5
181
100
AcDbEntity
8
0
100
AcDbLine
10
5.597050939686661e-06
20
1600.0000070689457
30
0
11
3.0283029690910017e-05
21
1244.9999947426918
31
0
0
LINE
5
182
100
AcDbEntity
8
0
100
AcDbLine
10
4.2104483758626238e-05
20
1199.9999947426918
30
0
11
6.679046174019819e-05
21
844.99999093203076
31
0
0
LINE
5
183
100
AcDbEntity
8
0
100
AcDbLine
10
6.9919670863781213e-05
20
799.99999093203087
30
0
11
9.4605647861868068e-05
21
444.99998876117081
31
0
0
ARC
5
184
100
AcDbEntity
8
0
100
AcDbCircle
10
32.328847594929535
20
9.9999315789618599
30
0
40
9.9999999999999485
210
0
220
0
230
1
100
AcDbArc
50
270.0000000114664
51
350.54764160506727
0
ARC
5
185
100
AcDbEntity
8
0
100
AcDbCircle
10
29.663434590301069
20
2168.9640075046163
30
0
40
1.4999999999997737
210
0
220
-0
230
1
100
AcDbArc
50
87.999999052778435
51
357.99999709287312
0
ARC
5
186
100
AcDbEntity
8
0
100
AcDbCircle
10
9.6635155929682455
20
2169.6624188189899
30
0
40
1.500000000000012
210
0
220
0
230
1
100
AcDbArc
50
-182.00000682467507
51
87.999997260937775
0
ARC
5
187
100
AcDbEntity
8
0
100
AcDbCircle
10
389.24869486487717
20
2156.3887845629024
30
0
40
1.5000000000004297
210
0
220
-0
230
1
100
AcDbArc
50
88.000002467645899
51
358.69647687746323
0
LINE
5
188
100
AcDbEntity
8
0
100
AcDbLine
10
389.24869486487717
20
2156.3887845629024
30
0
11
389.24933078198433
21
2156.4069948687352
31
0
0
LINE
5
189
100
AcDbEntity
8
0
100
AcDbLine
10
389.30104404536746
20
2157.8878708056859
30
0
11
389.94385243228396
21
2176.2955173161126
31
0
0
ARC
5
190
100
AcDbEntity
8
0
100
AcDbCircle
10
369.24662580703841
20
2157.1055156654693
30
0
40
1.4999999999997198
210
0
220
0
230
1
100
AcDbArc
50
-181.99999753196812
51
88.000069290330032
0
LINE
5
191
100
AcDbEntity
8
0
100
AcDbLine
10
-3.3679537024242845e-05
20
2164.8222255287928
30
0
11
-2.534734330715921e-05
21
2045.0000018910991
31
0
0
LINE
5
192
100
AcDbEntity
8
0
100
AcDbLine
10
1000
20
0
30
0
11
1000
21
1000
31
0
0
ENDSEC
0
SECTION
2
OBJECTS
0
DICTIONARY
5
C
100
AcDbDictionary
3
ACAD_GROUP
350
D
3
ACAD_MLINESTYLE
350
17
0
DICTIONARY
5
D
100
AcDbDictionary
0
DICTIONARY
5
1A
330
C
100
AcDbDictionary
0
DICTIONARY
5
17
100
AcDbDictionary
0
ENDSEC
0
EOF
