0
SECTION
2
HEADER
9
$INSUNITS
70
4
9
$ACADVER
1
AC1014
9
$HANDSEED
5
FFFF
0
ENDSEC
0
SECTION
2
TABLES
0
TABLE
2
VPORT
5
8
100
AcDbSymbolTable
0
ENDTAB
0
TABLE
2
LTYPE
5
5
100
AcDbSymbolTable
0
LTYPE
5
14
100
AcDbSymbolTableRecord
100
AcDbLinetypeTableRecord
2
BYBLOCK
70
0
0
LTYPE
5
15
100
AcDbSymbolTableRecord
100
AcDbLinetypeTableRecord
2
BYLAYER
70
0
0
ENDTAB
0
TABLE
2
LAYER
5
2
100
AcDbSymbolTable
70
2
0
LAYER
5
50
100
AcDbSymbolTableRecord
100
AcDbLayerTableRecord
2
0
70
0
6
CONTINUOUS
0
ENDTAB
0
TABLE
2
STYLE
5
3
100
AcDbSymbolTable
70
1
0
STYLE
5
11
100
AcDbSymbolTableRecord
100
AcDbTextStyleTableRecord
2
STANDARD
70
0
0
ENDTAB
0
TABLE
2
VIEW
5
6
100
AcDbSymbolTable
70
0
0
ENDTAB
0
TABLE
2
UCS
5
7
100
AcDbSymbolTable
70
0
0
ENDTAB
0
TABLE
2
APPID
5
9
100
AcDbSymbolTable
70
2
0
APPID
5
12
100
AcDbSymbolTableRecord
100
AcDbRegAppTableRecord
2
ACAD
70
0
0
ENDTAB
0
TABLE
2
DIMSTYLE
5
A
100
AcDbSymbolTable
70
1
0
ENDTAB
0
TABLE
2
BLOCK_RECORD
5
1
100
AcDbSymbolTable
70
1
0
BLOCK_RECORD
5
1F
100
AcDbSymbolTableRecord
100
AcDbBlockTableRecord
2
*MODEL_SPACE
0
BLOCK_RECORD
5
1B
100
AcDbSymbolTableRecord
100
AcDbBlockTableRecord
2
*PAPER_SPACE
0
ENDTAB
0
ENDSEC
0
SECTION
2
BLOCKS
0
BLOCK
5
20
100
AcDbEntity
100
AcDbBlockBegin
2
*MODEL_SPACE
0
ENDBLK
5
21
100
AcDbEntity
100
AcDbBlockEnd
0
BLOCK
5
1C
100
AcDbEntity
100
AcDbBlockBegin
2
*PAPER_SPACE
0
ENDBLK
5
1D
100
AcDbEntity
100
AcDbBlockEnd
0
ENDSEC
0
SECTION
2
ENTITIES
0
CIRCLE
5
100
100
AcDbEntity
8
0
100
AcDbCircle
10
-35
20
35.00000062584877
30
0
40
3.5000000000000004
210
0
220
0
230
1
0
ARC
5
101
100
AcDbEntity
8
0
100
AcDbCircle
10
-35
20
35.00000025331974
30
0
40
10
210
0
220
-0
230
1
100
AcDbArc
50
90
51
180
0
ARC
5
102
100
AcDbEntity
8
0
100
AcDbCircle
10
-25.032532687149818
20
45.00000025331974
30
0
40
1.5000000000000036
210
0
220
0
230
1
100
AcDbArc
50
-180
51
0
0
ARC
5
103
100
AcDbEntity
8
0
100
AcDbCircle
10
-24.95224192167333
20
25.00000062584877
30
0
40
1.5000000000000011
210
0
220
0
230
1
100
AcDbArc
50
-45.054779459553501
51
180
0
LINE
5
104
100
AcDbEntity
8
0
100
AcDbLine
10
-45
20
35.000100253319744
30
0
11
-45
21
35.00000025331974
31
0
0
LINE
5
105
100
AcDbEntity
8
0
100
AcDbLine
10
-35
20
45.00000025331974
30
0
11
-26.532532687149821
21
45.00000025331974
31
0
0
ARC
5
106
100
AcDbEntity
8
0
100
AcDbCircle
10
-35
20
35.00000062584877
30
0
40
10.00000000049628
210
0
220
0
230
1
100
AcDbArc
50
179.99942917649184
51
270
0
LINE
5
107
100
AcDbEntity
8
0
100
AcDbLine
10
-35
20
25.000000625600627
30
0
11
-26.45224192167333
21
25.00000062584877
31
0
0
LINE
5
108
100
AcDbEntity
8
0
100
AcDbLine
10
-23.892596312535698
20
23.93832686096836
30
0
11
-2.9300875147208405
21
2.9356959390824411
31
0
0
LINE
5
109
100
AcDbEntity
8
0
100
AcDbLine
10
-23.532532687149814
20
45.00000025331974
30
0
11
9.7989036672698932e-33
21
45.00000025331974
31
0
0
LINE
5
110
100
AcDbEntity
8
0
100
AcDbLine
10
9.9999999999999982
20
-2.2204460492503131e-15
30
0
11
11.564693225308032
21
-2.2204460492503131e-15
31
0
0
LINE
5
111
100
AcDbEntity
8
0
100
AcDbLine
10
398.79200858843069
20
2215.4002731761011
30
0
11
21.421649057042842
21
8.3146449242875065
31
0
0
LINE
5
112
100
AcDbEntity
8
0
100
AcDbLine
10
30.012172060313649
20
2233.9519518575348
30
0
11
30.012172350261167
21
2234.6503669678978
31
0
0
LINE
5
113
100
AcDbEntity
8
0
100
AcDbLine
10
389.59826404341385
20
2221.3949419214146
30
0
11
394.03802488843996
21
2221.2399049631604
31
0
0
ARC
5
114
100
AcDbEntity
8
0
100
AcDbCircle
10
379.93791559390468
20
2231.645054268919
30
0
40
10.000000000000579
210
0
220
-0
230
1
100
AcDbArc
50
87.999981075737267
51
177.99998107589704
0
LINE
5
115
100
AcDbEntity
8
0
100
AcDbLine
10
5.1744974835127913
20
2234.8193025661426
30
0
11
10.01218006331089
21
2234.6503669678987
31
0
0
ARC
5
116
100
AcDbEntity
8
0
100
AcDbCircle
10
20.355085131634883
20
2244.2952802544501
30
0
40
9.9999999526996302
210
0
220
-0
230
1
100
AcDbArc
50
88.000010536193628
51
177.99999999999733
0
ARC
5
117
100
AcDbEntity
8
0
100
AcDbCircle
10
379.95009883065683
20
2231.6446288168886
30
0
40
10.000000000000144
210
-0
220
0
230
1
100
AcDbArc
50
-2.0000189398578243
51
87.999981083261204
0
LINE
5
118
100
AcDbEntity
8
0
100
AcDbLine
10
10.01218006331089
20
2234.6503669678987
30
0
11
10.361176861231129
21
2244.644275221483
31
0
0
CIRCLE
5
119
100
AcDbEntity
8
0
100
AcDbCircle
10
379.93791559390468
20
2231.645054268919
30
0
40
3.4999999999999964
210
0
220
0
230
1
0
CIRCLE
5
120
100
AcDbEntity
8
0
100
AcDbCircle
10
20.355085131634883
20
2244.2952802544501
30
0
40
3.4999999999999964
210
0
220
0
230
1
0
LINE
5
121
100
AcDbEntity
8
0
100
AcDbLine
10
30.012172060313649
20
2233.9519518575348
30
0
11
60.000000298023281
21
2233.9519518474726
31
0
0
LINE
5
122
100
AcDbEntity
8
0
100
AcDbLine
10
10.01218006331089
20
2234.6503669678987
30
0
11
30.012172350261167
21
2234.6503669678978
31
0
0
LINE
5
123
100
AcDbEntity
8
0
100
AcDbLine
10
20.704078259216661
20
2254.2891885415465
30
0
11
20.716253729151841
21
2254.2887633647674
31
0
0
ARC
5
124
100
AcDbEntity
8
0
100
AcDbCircle
10
20.36725876252682
20
2244.2948551018289
30
0
40
10.000001224180474
210
-0
220
0
230
1
100
AcDbArc
50
-1.9999998683699485
51
88.000000000840174
0
LINE
5
125
100
AcDbEntity
8
0
100
AcDbLine
10
380.28691386182459
20
2241.6389624238404
30
0
11
380.29909709726434
21
2241.638536971855
31
0
0
LINE
5
126
100
AcDbEntity
8
0
100
AcDbLine
10
389.59826404341385
20
2221.3949419214146
30
0
11
389.94400698548259
21
2231.2956305462485
31
0
0
LINE
5
127
100
AcDbEntity
8
0
100
AcDbLine
10
30.012172060313649
20
2233.9519518575348
30
0
11
30.361168256954283
21
2243.9458601150404
31
0
0
LINE
5
128
100
AcDbEntity
8
0
100
AcDbLine
10
369.59826381214469
20
2222.0933442248661
30
0
11
369.94400743898257
21
2231.9940525368111
31
0
0
LINE
5
129
100
AcDbEntity
8
0
100
AcDbLine
10
30.012172060313649
20
2233.9519518575348
30
0
11
369.59826381214469
21
2222.0933442248661
31
0
0
LINE
5
130
100
AcDbEntity
8
0
100
AcDbLine
10
399.75633080763828
20
2221.0402013189996
30
0
11
399.69999999999999
21
2221.0421881424468
31
0
0
ARC
5
131
100
AcDbEntity
8
0
100
AcDbCircle
10
11.564693225308002
20
10.000000000000078
30
0
40
10.00000000000008
210
0
220
0
230
1
100
AcDbArc
50
270.00000000000017
51
350.29731871629735
0
LINE
5
132
100
AcDbEntity
8
0
100
AcDbLine
10
-23.532532687149814
20
445.00000025331974
30
0
11
9.7989036672698959e-33
21
445.00000025331974
31
0
0
ARC
5
133
100
AcDbEntity
8
0
100
AcDbCircle
10
-25.032532687149818
20
445.00000025331974
30
0
40
1.5000000000000036
210
0
220
0
230
1
100
AcDbArc
50
-180
51
0
0
LINE
5
134
100
AcDbEntity
8
0
100
AcDbLine
10
-35
20
445.00000025331974
30
0
11
-26.532532687149821
21
445.00000025331974
31
0
0
ARC
5
135
100
AcDbEntity
8
0
100
AcDbCircle
10
-35
20
435.00000025331974
30
0
40
10
210
0
220
-0
230
1
100
AcDbArc
50
90
51
180
0
ARC
5
136
100
AcDbEntity
8
0
100
AcDbCircle
10
-35
20
435.00000062584877
30
0
40
10.00000000049628
210
0
220
0
230
1
100
AcDbArc
50
179.99942917649184
51
270
0
LINE
5
137
100
AcDbEntity
8
0
100
AcDbLine
10
-35
20
425.00000062560059
30
0
11
-26.45224192167333
21
425.00000062584877
31
0
0
ARC
5
138
100
AcDbEntity
8
0
100
AcDbCircle
10
-24.95224192167333
20
425.00000062584877
30
0
40
1.4999999999999825
210
0
220
0
230
1
100
AcDbArc
50
-45.054779459553906
51
180
0
LINE
5
139
100
AcDbEntity
8
0
100
AcDbLine
10
-23.892596312535698
20
423.93832686096835
30
0
11
1.1081669238100404e-32
21
400.00000025331974
31
0
0
LINE
5
140
100
AcDbEntity
8
0
100
AcDbLine
10
-23.532532687149814
20
845.00000025331974
30
0
11
9.7157614543456979e-33
21
845.00000025331974
31
0
0
ARC
5
141
100
AcDbEntity
8
0
100
AcDbCircle
10
-25.032532687149818
20
845.00000025331974
30
0
40
1.5000000000000036
210
0
220
0
230
1
100
AcDbArc
50
-180
51
0
0
LINE
5
142
100
AcDbEntity
8
0
100
AcDbLine
10
-35
20
845.00000025331974
30
0
11
-26.532532687149821
21
845.00000025331974
31
0
0
ARC
5
143
100
AcDbEntity
8
0
100
AcDbCircle
10
-35
20
835.00000025331974
30
0
40
10
210
0
220
-0
230
1
100
AcDbArc
50
90
51
180
0
ARC
5
144
100
AcDbEntity
8
0
100
AcDbCircle
10
-35
20
835.00000062584877
30
0
40
10.00000000049628
210
0
220
0
230
1
100
AcDbArc
50
179.99942917649184
51
270
0
LINE
5
145
100
AcDbEntity
8
0
100
AcDbLine
10
-35
20
825.00000062584877
30
0
11
-26.45224192167333
21
825.00000062584877
31
0
0
ARC
5
146
100
AcDbEntity
8
0
100
AcDbCircle
10
-24.95224192167333
20
825.00000062584877
30
0
40
1.5000000000000326
210
0
220
0
230
1
100
AcDbArc
50
-45.054779459553906
51
180
0
LINE
5
147
100
AcDbEntity
8
0
100
AcDbLine
10
-23.892596312535698
20
823.93832686096835
30
0
11
1.0998527025176206e-32
21
800.00000025331974
31
0
0
LINE
5
148
100
AcDbEntity
8
0
100
AcDbLine
10
-23.532532687149814
20
1245.0000002533197
30
0
11
9.7157614543456979e-33
21
1245.0000002533197
31
0
0
ARC
5
149
100
AcDbEntity
8
0
100
AcDbCircle
10
-25.032532687149818
20
1245.0000002533197
30
0
40
1.5000000000000036
210
0
220
0
230
1
100
AcDbArc
50
-180
51
0
0
LINE
5
150
100
AcDbEntity
8
0
100
AcDbLine
10
-35
20
1245.0000002533197
30
0
11
-26.532532687149821
21
1245.0000002533197
31
0
0
ARC
5
151
100
AcDbEntity
8
0
100
AcDbCircle
10
-35
20
1235.0000002533197
30
0
40
10
210
0
220
-0
230
1
100
AcDbArc
50
90
51
180
0
ARC
5
152
100
AcDbEntity
8
0
100
AcDbCircle
10
-35
20
1235.0000006258488
30
0
40
10.00000000049628
210
0
220
0
230
1
100
AcDbArc
50
179.99942917649184
51
270
0
LINE
5
153
100
AcDbEntity
8
0
100
AcDbLine
10
-35
20
1225.0000006258488
30
0
11
-26.45224192167333
21
1225.0000006258488
31
0
0
ARC
5
154
100
AcDbEntity
8
0
100
AcDbCircle
10
-24.95224192167333
20
1225.0000006258488
30
0
40
1.5000000000000326
210
0
220
0
230
1
100
AcDbArc
50
-45.054779459553906
51
180
0
LINE
5
155
100
AcDbEntity
8
0
100
AcDbLine
10
-23.892596312535698
20
1223.9383268609683
30
0
11
9.7157614543456979e-33
21
1200.0000002533197
31
0
0
LINE
5
156
100
AcDbEntity
8
0
100
AcDbLine
10
-23.532532687149814
20
1645.0000002533197
30
0
11
9.7157614543456979e-33
21
1645.0000002533197
31
0
0
ARC
5
157
100
AcDbEntity
8
0
100
AcDbCircle
10
-25.032532687149818
20
1645.0000002533197
30
0
40
1.5000000000000036
210
0
220
0
230
1
100
AcDbArc
50
-180
51
0
0
LINE
5
158
100
AcDbEntity
8
0
100
AcDbLine
10
-35
20
1645.0000002533197
30
0
11
-26.532532687149821
21
1645.0000002533197
31
0
0
ARC
5
159
100
AcDbEntity
8
0
100
AcDbCircle
10
-35
20
1635.0000002533197
30
0
40
10
210
0
220
-0
230
1
100
AcDbArc
50
90
51
180
0
ARC
5
160
100
AcDbEntity
8
0
100
AcDbCircle
10
-35
20
1635.0000006258488
30
0
40
10.00000000049628
210
0
220
0
230
1
100
AcDbArc
50
179.99942917649184
51
270
0
LINE
5
161
100
AcDbEntity
8
0
100
AcDbLine
10
-35
20
1625.0000006258488
30
0
11
-26.45224192167333
21
1625.0000006258488
31
0
0
ARC
5
162
100
AcDbEntity
8
0
100
AcDbCircle
10
-24.95224192167333
20
1625.0000006258488
30
0
40
1.5000000000001332
210
0
220
0
230
1
100
AcDbArc
50
-45.054779459553906
51
180
0
LINE
5
163
100
AcDbEntity
8
0
100
AcDbLine
10
-23.892596312535698
20
1623.9383268609683
30
0
11
9.7157614543456979e-33
21
1600.0000002533197
31
0
0
LINE
5
164
100
AcDbEntity
8
0
100
AcDbLine
10
-23.532532687149814
20
2045.0000002533197
30
0
11
9.7157614543456965e-33
21
2045.0000002533197
31
0
0
ARC
5
165
100
AcDbEntity
8
0
100
AcDbCircle
10
-25.032532687149818
20
2045.0000002533197
30
0
40
1.5000000000000036
210
0
220
0
230
1
100
AcDbArc
50
-180
51
0
0
LINE
5
166
100
AcDbEntity
8
0
100
AcDbLine
10
-35
20
2045.0000002533197
30
0
11
-26.532532687149821
21
2045.0000002533197
31
0
0
ARC
5
167
100
AcDbEntity
8
0
100
AcDbCircle
10
-35
20
2035.0000002533197
30
0
40
10
210
0
220
-0
230
1
100
AcDbArc
50
90
51
180
0
ARC
5
168
100
AcDbEntity
8
0
100
AcDbCircle
10
-35
20
2035.0000006258488
30
0
40
10.00000000049628
210
0
220
0
230
1
100
AcDbArc
50
179.99942917649184
51
270
0
LINE
5
169
100
AcDbEntity
8
0
100
AcDbLine
10
-35
20
2025.0000006258488
30
0
11
-26.45224192167333
21
2025.0000006258488
31
0
0
ARC
5
170
100
AcDbEntity
8
0
100
AcDbCircle
10
-24.95224192167333
20
2025.0000006258488
30
0
40
1.5000000000001332
210
0
220
0
230
1
100
AcDbArc
50
-45.054779459553906
51
180
0
LINE
5
171
100
AcDbEntity
8
0
100
AcDbLine
10
-23.892596312535698
20
2023.9383268609683
30
0
11
9.7157614543456979e-33
21
2000.0000002533197
31
0
0
LINE
5
172
100
AcDbEntity
8
0
100
AcDbLine
10
0
20
2229.8223484310474
30
0
11
9.7157614543456965e-33
21
2045.0000002533197
31
0
0
LINE
5
173
100
AcDbEntity
8
0
100
AcDbLine
10
9.7157614543456979e-33
20
2000.0000002533197
30
0
11
9.7157614543456979e-33
21
1645.0000002533197
31
0
0
LINE
5
174
100
AcDbEntity
8
0
100
AcDbLine
10
9.7157614543456979e-33
20
1600.0000002533197
30
0
11
9.7157614543456979e-33
21
1245.0000002533197
31
0
0
LINE
5
175
100
AcDbEntity
8
0
100
AcDbLine
10
9.7157614543456979e-33
20
1200.0000002533197
30
0
11
9.7157614543456979e-33
21
845.00000025331974
31
0
0
LINE
5
176
100
AcDbEntity
8
0
100
AcDbLine
10
1.0998527025176206e-32
20
800.00000025331974
30
0
11
9.7989036672698959e-33
21
445.00000025331974
31
0
0
LINE
5
177
100
AcDbEntity
8
0
100
AcDbLine
10
1.1081669238100404e-32
20
400.00000025331974
30
0
11
9.7989036672698932e-33
21
45.00000025331974
31
0
0
LINE
5
178
100
AcDbEntity
8
0
100
AcDbLine
10
0
20
2235
30
0
11
30.048771934966179
21
2235
31
0
0
LINE
5
179
100
AcDbEntity
8
0
100
AcDbLine
10
4.1477375844818534
20
1.1102230246251565e-15
30
0
11
9.9999999999999982
21
-2.2204460492503131e-15
31
0
0
ARC
5
180
100
AcDbEntity
8
0
100
AcDbCircle
10
4.1477375844818631
20
10.000000000000011
30
0
40
10.000000000000011
210
0
220
0
230
1
100
AcDbArc
50
224.94522054044668
51
269.99999999999994
0
CIRCLE
5
181
100
AcDbEntity
8
0
100
AcDbCircle
10
-35
20
2035.0000002533197
30
0
40
3.5000000000000404
210
0
220
0
230
1
0
CIRCLE
5
182
100
AcDbEntity
8
0
100
AcDbCircle
10
-35
20
1635.0000002533197
30
0
40
3.5000000000000089
210
0
220
0
230
1
0
CIRCLE
5
183
100
AcDbEntity
8
0
100
AcDbCircle
10
-35
20
1235.0000002533197
30
0
40
3.5000000000000009
210
0
220
0
230
1
0
CIRCLE
5
184
100
AcDbEntity
8
0
100
AcDbCircle
10
-35
20
835.00000025331974
30
0
40
3.5000000000000009
210
0
220
0
230
1
0
CIRCLE
5
185
100
AcDbEntity
8
0
100
AcDbCircle
10
-35
20
435.00000025331974
30
0
40
3.5000000000000142
210
0
220
0
230
1
0
ARC
5
186
100
AcDbEntity
8
0
100
AcDbCircle
10
393.86353067256334
20
2216.2429507139577
30
0
40
4.9999999999999716
210
-0
220
0
230
1
100
AcDbArc
50
-9.7026812837065943
51
88.000037467172547
0
ARC
5
187
100
AcDbEntity
8
0
100
AcDbCircle
10
4.9999999999989484
20
2229.8223484310479
30
0
40
4.9999999999989955
210
0
220
-0
230
1
100
AcDbArc
50
87.999999999984382
51
180
0
ENDSEC
0
SECTION
2
OBJECTS
0
DICTIONARY
5
C
100
AcDbDictionary
3
ACAD_GROUP
350
D
3
ACAD_MLINESTYLE
350
17
0
DICTIONARY
5
D
100
AcDbDictionary
0
DICTIONARY
5
1A
330
C
100
AcDbDictionary
0
DICTIONARY
5
17
100
AcDbDictionary
0
ENDSEC
0
EOF
