0
SECTION
2
HEADER
9
$INSUNITS
70
4
9
$ACADVER
1
AC1014
9
$HANDSEED
5
FFFF
0
ENDSEC
0
SECTION
2
TABLES
0
TABLE
2
VPORT
5
8
100
AcDbSymbolTable
0
ENDTAB
0
TABLE
2
LTYPE
5
5
100
AcDbSymbolTable
0
LTYPE
5
14
100
AcDbSymbolTableRecord
100
AcDbLinetypeTableRecord
2
BYBLOCK
70
0
0
LTYPE
5
15
100
AcDbSymbolTableRecord
100
AcDbLinetypeTableRecord
2
BYLAYER
70
0
0
ENDTAB
0
TABLE
2
LAYER
5
2
100
AcDbSymbolTable
70
2
0
LAYER
5
50
100
AcDbSymbolTableRecord
100
AcDbLayerTableRecord
2
0
70
0
6
CONTINUOUS
0
ENDTAB
0
TABLE
2
STYLE
5
3
100
AcDbSymbolTable
70
1
0
STYLE
5
11
100
AcDbSymbolTableRecord
100
AcDbTextStyleTableRecord
2
STANDARD
70
0
0
ENDTAB
0
TABLE
2
VIEW
5
6
100
AcDbSymbolTable
70
0
0
ENDTAB
0
TABLE
2
UCS
5
7
100
AcDbSymbolTable
70
0
0
ENDTAB
0
TABLE
2
APPID
5
9
100
AcDbSymbolTable
70
2
0
APPID
5
12
100
AcDbSymbolTableRecord
100
AcDbRegAppTableRecord
2
ACAD
70
0
0
ENDTAB
0
TABLE
2
DIMSTYLE
5
A
100
AcDbSymbolTable
70
1
0
ENDTAB
0
TABLE
2
BLOCK_RECORD
5
1
100
AcDbSymbolTable
70
1
0
BLOCK_RECORD
5
1F
100
AcDbSymbolTableRecord
100
AcDbBlockTableRecord
2
*MODEL_SPACE
0
BLOCK_RECORD
5
1B
100
AcDbSymbolTableRecord
100
AcDbBlockTableRecord
2
*PAPER_SPACE
0
ENDTAB
0
ENDSEC
0
SECTION
2
BLOCKS
0
BLOCK
5
20
100
AcDbEntity
100
AcDbBlockBegin
2
*MODEL_SPACE
0
ENDBLK
5
21
100
AcDbEntity
100
AcDbBlockEnd
0
BLOCK
5
1C
100
AcDbEntity
100
AcDbBlockBegin
2
*PAPER_SPACE
0
ENDBLK
5
1D
100
AcDbEntity
100
AcDbBlockEnd
0
ENDSEC
0
SECTION
2
ENTITIES
0
CIRCLE
5
100
100
AcDbEntity
8
0
100
AcDbCircle
10
-35
20
35.00000062584877
30
0
40
3.5000000000000004
210
0
220
0
230
1
0
ARC
5
101
100
AcDbEntity
8
0
100
AcDbCircle
10
-35
20
35.00000025331974
30
0
40
10
210
0
220
-0
230
1
100
AcDbArc
50
90
51
180
0
ARC
5
102
100
AcDbEntity
8
0
100
AcDbCircle
10
-25.032532687149818
20
45.00000025331974
30
0
40
1.5000000000000036
210
0
220
0
230
1
100
AcDbArc
50
-180
51
0
0
ARC
5
103
100
AcDbEntity
8
0
100
AcDbCircle
10
-24.95224192167333
20
25.00000062584877
30
0
40
1.5000000000000011
210
0
220
0
230
1
100
AcDbArc
50
-45.054779459553501
51
180
0
LINE
5
104
100
AcDbEntity
8
0
100
AcDbLine
10
-45
20
35.000100253319744
30
0
11
-45
21
35.00000025331974
31
0
0
LINE
5
105
100
AcDbEntity
8
0
100
AcDbLine
10
-35
20
45.00000025331974
30
0
11
-26.532532687149821
21
45.00000025331974
31
0
0
ARC
5
106
100
AcDbEntity
8
0
100
AcDbCircle
10
-35
20
35.00000062584877
30
0
40
10.00000000049628
210
0
220
0
230
1
100
AcDbArc
50
179.99942917649184
51
270
0
LINE
5
107
100
AcDbEntity
8
0
100
AcDbLine
10
-35
20
25.000000625600627
30
0
11
-26.45224192167333
21
25.00000062584877
31
0
0
LINE
5
108
100
AcDbEntity
8
0
100
AcDbLine
10
-23.892596312535698
20
23.93832686096836
30
0
11
-2.9300875147208405
21
2.9356959390824411
31
0
0
LINE
5
109
100
AcDbEntity
8
0
100
AcDbLine
10
-23.532532687149814
20
45.00000025331974
30
0
11
9.7989036672698932e-33
21
45.00000025331974
31
0
0
LINE
5
110
100
AcDbEntity
8
0
100
AcDbLine
10
9.9999999999999982
20
-2.2204460492503131e-15
30
0
11
11.564693830793786
21
0
31
0
0
LINE
5
111
100
AcDbEntity
8
0
100
AcDbLine
10
398.79227947203469
20
2090.4003064629901
30
0
11
46.396383962483497
21
29.381596742717065
31
0
0
LINE
5
112
100
AcDbEntity
8
0
100
AcDbLine
10
390.74856583376152
20
2096.3548178382989
30
0
11
394.0382977880007
21
2096.239938756732
31
0
0
ARC
5
113
100
AcDbEntity
8
0
100
AcDbCircle
10
379.93791559389638
20
2116.6450542689199
30
0
40
10.000000000001087
210
0
220
-0
230
1
100
AcDbArc
50
87.999981075700177
51
177.99998356767307
0
LINE
5
114
100
AcDbEntity
8
0
100
AcDbLine
10
5.1744961338245696
20
2109.8192567710744
30
0
11
8.164262887238916
21
2109.7148526240167
31
0
0
ARC
5
115
100
AcDbEntity
8
0
100
AcDbCircle
10
20.355030933402475
20
2129.2952814564824
30
0
40
9.9999999526990813
210
0
220
-0
230
1
100
AcDbArc
50
88.002896853269448
51
178.0000154765886
0
ARC
5
116
100
AcDbEntity
8
0
100
AcDbCircle
10
379.95009883064233
20
2116.64462881689
30
0
40
10.000000000000206
210
-0
220
0
230
1
100
AcDbArc
50
-2.0000199805828465
51
87.999981083261844
0
LINE
5
117
100
AcDbEntity
8
0
100
AcDbLine
10
9.7156980748731598
20
2111.1615899409062
30
0
11
10.361122616213851
21
2129.6442737223279
31
0
0
CIRCLE
5
118
100
AcDbEntity
8
0
100
AcDbCircle
10
379.93791559389638
20
2116.6450542689199
30
0
40
3.4999999999999964
210
0
220
0
230
1
0
CIRCLE
5
119
100
AcDbEntity
8
0
100
AcDbCircle
10
20.355030933402475
20
2129.2952814564824
30
0
40
3.4999999999999964
210
0
220
0
230
1
0
LINE
5
120
100
AcDbEntity
8
0
100
AcDbLine
10
20.703520610053854
20
2139.2892073116832
30
0
11
20.715743380336598
21
2139.2887811018704
31
0
0
ARC
5
121
100
AcDbEntity
8
0
100
AcDbCircle
10
20.367253659375418
20
2129.2948539759609
30
0
40
10.000001224180441
210
-0
220
0
230
1
100
AcDbArc
50
-1.9999928649037013
51
88.002896853269448
0
LINE
5
122
100
AcDbEntity
8
0
100
AcDbLine
10
380.28691386182277
20
2126.6389624238413
30
0
11
380.29909709724973
21
2126.6385369718564
31
0
0
LINE
5
123
100
AcDbEntity
8
0
100
AcDbLine
10
389.30182934691805
20
2097.9062529006969
30
0
11
389.94400697912897
21
2116.2956303647197
31
0
0
LINE
5
124
100
AcDbEntity
8
0
100
AcDbLine
10
29.715736056000477
20
2110.4631791494112
30
0
11
30.361163196461661
21
2128.9458602107634
31
0
0
LINE
5
125
100
AcDbEntity
8
0
100
AcDbLine
10
369.30183051982459
20
2098.6046628406393
30
0
11
369.94400742379696
21
2116.9940521021799
31
0
0
LINE
5
126
100
AcDbEntity
8
0
100
AcDbLine
10
31.162473238194298
20
2108.9117436414163
30
0
11
367.75039459016648
21
2097.1579254552494
31
0
0
LINE
5
127
100
AcDbEntity
8
0
100
AcDbLine
10
399.75660207633814
20
2096.0402329065178
30
0
11
399.70000140797703
21
2096.0422292408771
31
0
0
ARC
5
128
100
AcDbEntity
8
0
100
AcDbCircle
10
11.564693830793786
20
35.337168411318714
30
0
40
35.337168411318714
210
0
220
0
230
1
100
AcDbArc
50
270
51
350.29731204729831
0
LINE
5
129
100
AcDbEntity
8
0
100
AcDbLine
10
-23.532532687149814
20
430.00000025331974
30
0
11
-4.1159371153192122e-30
21
430.00000025331974
31
0
0
ARC
5
130
100
AcDbEntity
8
0
100
AcDbCircle
10
-25.032532687149818
20
430.00000025331974
30
0
40
1.5000000000000036
210
0
220
0
230
1
100
AcDbArc
50
-180
51
0
0
LINE
5
131
100
AcDbEntity
8
0
100
AcDbLine
10
-35
20
430.00000025331974
30
0
11
-26.532532687149821
21
430.00000025331974
31
0
0
ARC
5
132
100
AcDbEntity
8
0
100
AcDbCircle
10
-35
20
420.00000025331974
30
0
40
10
210
0
220
-0
230
1
100
AcDbArc
50
90
51
180
0
ARC
5
133
100
AcDbEntity
8
0
100
AcDbCircle
10
-35
20
420.00000062584877
30
0
40
10.00000000049628
210
0
220
0
230
1
100
AcDbArc
50
179.99942917649184
51
270
0
LINE
5
134
100
AcDbEntity
8
0
100
AcDbLine
10
-35
20
410.00000062560059
30
0
11
-26.45224192167333
21
410.00000062584877
31
0
0
ARC
5
135
100
AcDbEntity
8
0
100
AcDbCircle
10
-24.95224192167333
20
410.00000062584877
30
0
40
1.4999999999999825
210
0
220
0
230
1
100
AcDbArc
50
-45.054779459553906
51
180
0
LINE
5
136
100
AcDbEntity
8
0
100
AcDbLine
10
-23.892596312535698
20
408.93832686096835
30
0
11
-4.1161032324569072e-30
21
385.00000025331974
31
0
0
LINE
5
137
100
AcDbEntity
8
0
100
AcDbLine
10
-23.532532687149814
20
815.00000025331974
30
0
11
1.0781047143184218e-28
21
815.00000025331974
31
0
0
ARC
5
138
100
AcDbEntity
8
0
100
AcDbCircle
10
-25.032532687149818
20
815.00000025331974
30
0
40
1.5000000000000036
210
0
220
0
230
1
100
AcDbArc
50
-180
51
0
0
LINE
5
139
100
AcDbEntity
8
0
100
AcDbLine
10
-35
20
815.00000025331974
30
0
11
-26.532532687149821
21
815.00000025331974
31
0
0
ARC
5
140
100
AcDbEntity
8
0
100
AcDbCircle
10
-35
20
805.00000025331974
30
0
40
10
210
0
220
-0
230
1
100
AcDbArc
50
90
51
180
0
ARC
5
141
100
AcDbEntity
8
0
100
AcDbCircle
10
-35
20
805.00000062584877
30
0
40
10.00000000049628
210
0
220
0
230
1
100
AcDbArc
50
179.99942917649184
51
270
0
LINE
5
142
100
AcDbEntity
8
0
100
AcDbLine
10
-35
20
795.00000062584877
30
0
11
-26.45224192167333
21
795.00000062584877
31
0
0
ARC
5
143
100
AcDbEntity
8
0
100
AcDbCircle
10
-24.95224192167333
20
795.00000062584877
30
0
40
1.5000000000000326
210
0
220
0
230
1
100
AcDbArc
50
-45.054779459553906
51
180
0
LINE
5
144
100
AcDbEntity
8
0
100
AcDbLine
10
-23.892596312535698
20
793.93832686096835
30
0
11
1.0781026867859859e-28
21
770.00000025331974
31
0
0
LINE
5
145
100
AcDbEntity
8
0
100
AcDbLine
10
-23.532532687149814
20
1200.0000002533197
30
0
11
-2.4031430894921023e-27
21
1200.0000002533197
31
0
0
ARC
5
146
100
AcDbEntity
8
0
100
AcDbCircle
10
-25.032532687149818
20
1200.0000002533197
30
0
40
1.5000000000000036
210
0
220
0
230
1
100
AcDbArc
50
-180
51
0
0
LINE
5
147
100
AcDbEntity
8
0
100
AcDbLine
10
-35
20
1200.0000002533197
30
0
11
-26.532532687149821
21
1200.0000002533197
31
0
0
ARC
5
148
100
AcDbEntity
8
0
100
AcDbCircle
10
-35
20
1190.0000002533197
30
0
40
10
210
0
220
-0
230
1
100
AcDbArc
50
90
51
180
0
ARC
5
149
100
AcDbEntity
8
0
100
AcDbCircle
10
-35
20
1190.0000006258488
30
0
40
10.00000000049628
210
0
220
0
230
1
100
AcDbArc
50
179.99942917649184
51
270
0
LINE
5
150
100
AcDbEntity
8
0
100
AcDbLine
10
-35
20
1180.0000006258488
30
0
11
-26.45224192167333
21
1180.0000006258488
31
0
0
ARC
5
151
100
AcDbEntity
8
0
100
AcDbCircle
10
-24.95224192167333
20
1180.0000006258488
30
0
40
1.5000000000000326
210
0
220
0
230
1
100
AcDbArc
50
-45.054779459553906
51
180
0
LINE
5
152
100
AcDbEntity
8
0
100
AcDbLine
10
-23.892596312535698
20
1178.9383268609683
30
0
11
-2.4031430894921023e-27
21
1155.0000002533197
31
0
0
LINE
5
153
100
AcDbEntity
8
0
100
AcDbLine
10
-23.532532687149814
20
1585.0000002533197
30
0
11
4.5508312400071914e-26
21
1585.0000002533197
31
0
0
ARC
5
154
100
AcDbEntity
8
0
100
AcDbCircle
10
-25.032532687149818
20
1585.0000002533197
30
0
40
1.5000000000000036
210
0
220
0
230
1
100
AcDbArc
50
-180
51
0
0
LINE
5
155
100
AcDbEntity
8
0
100
AcDbLine
10
-35
20
1585.0000002533197
30
0
11
-26.532532687149821
21
1585.0000002533197
31
0
0
ARC
5
156
100
AcDbEntity
8
0
100
AcDbCircle
10
-35
20
1575.0000002533197
30
0
40
10
210
0
220
-0
230
1
100
AcDbArc
50
90
51
180
0
ARC
5
157
100
AcDbEntity
8
0
100
AcDbCircle
10
-35
20
1575.0000006258488
30
0
40
10.00000000049628
210
0
220
0
230
1
100
AcDbArc
50
179.99942917649184
51
270
0
LINE
5
158
100
AcDbEntity
8
0
100
AcDbLine
10
-35
20
1565.0000006258488
30
0
11
-26.45224192167333
21
1565.0000006258488
31
0
0
ARC
5
159
100
AcDbEntity
8
0
100
AcDbCircle
10
-24.95224192167333
20
1565.0000006258488
30
0
40
1.5000000000001332
210
0
220
0
230
1
100
AcDbArc
50
-45.054779459553906
51
180
0
LINE
5
160
100
AcDbEntity
8
0
100
AcDbLine
10
-23.892596312535698
20
1563.9383268609683
30
0
11
4.5508312400071914e-26
21
1540.0000002533197
31
0
0
LINE
5
161
100
AcDbEntity
8
0
100
AcDbLine
10
-23.532532687149814
20
1970.0000002533197
30
0
11
-7.425930428925639e-25
21
1970.0000002533197
31
0
0
ARC
5
162
100
AcDbEntity
8
0
100
AcDbCircle
10
-25.032532687149818
20
1970.0000002533197
30
0
40
1.5000000000000036
210
0
220
0
230
1
100
AcDbArc
50
-180
51
0
0
LINE
5
163
100
AcDbEntity
8
0
100
AcDbLine
10
-35
20
1970.0000002533197
30
0
11
-26.532532687149821
21
1970.0000002533197
31
0
0
ARC
5
164
100
AcDbEntity
8
0
100
AcDbCircle
10
-35
20
1960.0000002533197
30
0
40
10
210
0
220
-0
230
1
100
AcDbArc
50
90
51
180
0
ARC
5
165
100
AcDbEntity
8
0
100
AcDbCircle
10
-35
20
1960.0000006258488
30
0
40
10.00000000049628
210
0
220
0
230
1
100
AcDbArc
50
179.99942917649184
51
270.00000000249571
0
LINE
5
166
100
AcDbEntity
8
0
100
AcDbLine
10
-34.999999999564423
20
1950.0000006254145
30
0
11
-26.45224192167333
21
1950.0000006258488
31
0
0
ARC
5
167
100
AcDbEntity
8
0
100
AcDbCircle
10
-24.95224192167333
20
1950.0000006258488
30
0
40
1.5000000000001332
210
0
220
0
230
1
100
AcDbArc
50
-45.054779459553906
51
180
0
LINE
5
168
100
AcDbEntity
8
0
100
AcDbLine
10
-23.892596312535698
20
1948.9383268609683
30
0
11
-7.4259304289256409e-25
21
1925.0000002533197
31
0
0
LINE
5
169
100
AcDbEntity
8
0
100
AcDbLine
10
-1.1064655692159231e-31
20
2104.8223025887701
30
0
11
-7.425930428925639e-25
21
1970.0000002533197
31
0
0
LINE
5
170
100
AcDbEntity
8
0
100
AcDbLine
10
-7.4259304289256409e-25
20
1925.0000002533197
30
0
11
4.5508312400071914e-26
21
1585.0000002533197
31
0
0
LINE
5
171
100
AcDbEntity
8
0
100
AcDbLine
10
4.5508312400071914e-26
20
1540.0000002533197
30
0
11
-2.4031430894921023e-27
21
1200.0000002533197
31
0
0
LINE
5
172
100
AcDbEntity
8
0
100
AcDbLine
10
-2.4031430894921023e-27
20
1155.0000002533197
30
0
11
1.0781047143184218e-28
21
815.00000025331974
31
0
0
LINE
5
173
100
AcDbEntity
8
0
100
AcDbLine
10
1.0781026867859859e-28
20
770.00000025331974
30
0
11
-4.1159371153192122e-30
21
430.00000025331974
31
0
0
LINE
5
174
100
AcDbEntity
8
0
100
AcDbLine
10
-4.1161032324569072e-30
20
385.00000025331974
30
0
11
9.7989036672698932e-33
21
45.00000025331974
31
0
0
LINE
5
175
100
AcDbEntity
8
0
100
AcDbLine
10
4.1477375844818534
20
1.1102230246251565e-15
30
0
11
9.9999999999999982
21
-2.2204460492503131e-15
31
0
0
ARC
5
176
100
AcDbEntity
8
0
100
AcDbCircle
10
4.1477375844818631
20
10.000000000000011
30
0
40
10.000000000000011
210
0
220
0
230
1
100
AcDbArc
50
224.94522054044668
51
269.99999999999994
0
CIRCLE
5
177
100
AcDbEntity
8
0
100
AcDbCircle
10
-35
20
1960.0000002533197
30
0
40
3.5000000000000404
210
0
220
0
230
1
0
CIRCLE
5
178
100
AcDbEntity
8
0
100
AcDbCircle
10
-35
20
1575.0000002533197
30
0
40
3.5000000000000089
210
0
220
0
230
1
0
CIRCLE
5
179
100
AcDbEntity
8
0
100
AcDbCircle
10
-35
20
1190.0000002533197
30
0
40
3.5000000000000009
210
0
220
0
230
1
0
CIRCLE
5
180
100
AcDbEntity
8
0
100
AcDbCircle
10
-35
20
805.00000025331974
30
0
40
3.5000000000000009
210
0
220
0
230
1
0
CIRCLE
5
181
100
AcDbEntity
8
0
100
AcDbCircle
10
-35
20
420.00000025331974
30
0
40
3.5000000000000142
210
0
220
0
230
1
0
ARC
5
182
100
AcDbEntity
8
0
100
AcDbCircle
10
393.86380165425174
20
2091.2429845745019
30
0
40
4.9999999999999396
210
-0
220
0
230
1
100
AcDbArc
50
-9.7026879527066274
51
88.000015476578795
0
ARC
5
183
100
AcDbEntity
8
0
100
AcDbCircle
10
5.0000000000742437
20
2104.8223025887701
30
0
40
5.0000000000742322
210
0
220
-0
230
1
100
AcDbArc
50
88.000015476592779
51
180
0
ARC
5
184
100
AcDbEntity
8
0
100
AcDbCircle
10
29.663386998219895
20
2108.9640929023431
30
0
40
1.4999999999998936
210
0
220
-0
230
1
100
AcDbArc
50
88.000007157668122
51
357.99999939332452
0
ARC
5
185
100
AcDbEntity
8
0
100
AcDbCircle
10
9.663349138615045
20
2109.6625036895934
30
0
40
1.5000000000000604
210
0
220
0
230
1
100
AcDbArc
50
-181.99998812755459
51
88.000011802315086
0
ARC
5
186
100
AcDbEntity
8
0
100
AcDbCircle
10
369.24948084483555
20
2097.1055766151244
30
0
40
1.5000000000000471
210
0
220
0
230
1
100
AcDbArc
50
-181.99998452343218
51
87.999983567671265
0
ARC
5
187
100
AcDbEntity
8
0
100
AcDbCircle
10
389.24947957909245
20
2096.4071666784239
30
0
40
1.4999999999999081
210
0
220
-0
230
1
100
AcDbArc
50
87.999980019414508
51
358.00001547656785
0
LINE
5
188
100
AcDbEntity
8
0
100
AcDbLine
10
1000
20
0
30
0
11
1000
21
1000
31
0
0
ENDSEC
0
SECTION
2
OBJECTS
0
DICTIONARY
5
C
100
AcDbDictionary
3
ACAD_GROUP
350
D
3
ACAD_MLINESTYLE
350
17
0
DICTIONARY
5
D
100
AcDbDictionary
0
DICTIONARY
5
1A
330
C
100
AcDbDictionary
0
DICTIONARY
5
17
100
AcDbDictionary
0
ENDSEC
0
EOF
