0
SECTION
2
HEADER
9
$INSUNITS
70
4
9
$ACADVER
1
AC1014
9
$HANDSEED
5
FFFF
0
ENDSEC
0
SECTION
2
TABLES
0
TABLE
2
VPORT
5
8
100
AcDbSymbolTable
0
ENDTAB
0
TABLE
2
LTYPE
5
5
100
AcDbSymbolTable
0
LTYPE
5
14
100
AcDbSymbolTableRecord
100
AcDbLinetypeTableRecord
2
BYBLOCK
70
0
0
LTYPE
5
15
100
AcDbSymbolTableRecord
100
AcDbLinetypeTableRecord
2
BYLAYER
70
0
0
ENDTAB
0
TABLE
2
LAYER
5
2
100
AcDbSymbolTable
70
2
0
LAYER
5
50
100
AcDbSymbolTableRecord
100
AcDbLayerTableRecord
2
0
70
0
6
CONTINUOUS
0
ENDTAB
0
TABLE
2
STYLE
5
3
100
AcDbSymbolTable
70
1
0
STYLE
5
11
100
AcDbSymbolTableRecord
100
AcDbTextStyleTableRecord
2
STANDARD
70
0
0
ENDTAB
0
TABLE
2
VIEW
5
6
100
AcDbSymbolTable
70
0
0
ENDTAB
0
TABLE
2
UCS
5
7
100
AcDbSymbolTable
70
0
0
ENDTAB
0
TABLE
2
APPID
5
9
100
AcDbSymbolTable
70
2
0
APPID
5
12
100
AcDbSymbolTableRecord
100
AcDbRegAppTableRecord
2
ACAD
70
0
0
ENDTAB
0
TABLE
2
DIMSTYLE
5
A
100
AcDbSymbolTable
70
1
0
ENDTAB
0
TABLE
2
BLOCK_RECORD
5
1
100
AcDbSymbolTable
70
1
0
BLOCK_RECORD
5
1F
100
AcDbSymbolTableRecord
100
AcDbBlockTableRecord
2
*MODEL_SPACE
0
BLOCK_RECORD
5
1B
100
AcDbSymbolTableRecord
100
AcDbBlockTableRecord
2
*PAPER_SPACE
0
ENDTAB
0
ENDSEC
0
SECTION
2
BLOCKS
0
BLOCK
5
20
100
AcDbEntity
100
AcDbBlockBegin
2
*MODEL_SPACE
0
ENDBLK
5
21
100
AcDbEntity
100
AcDbBlockEnd
0
BLOCK
5
1C
100
AcDbEntity
100
AcDbBlockBegin
2
*PAPER_SPACE
0
ENDBLK
5
1D
100
AcDbEntity
100
AcDbBlockEnd
0
ENDSEC
0
SECTION
2
ENTITIES
0
LINE
5
100
100
AcDbEntity
8
0
100
AcDbLine
10
9.714310337217313
20
1531.1204940461732
30
0
11
10.361175030335875
21
1549.6442752380894
31
0
0
LINE
5
101
100
AcDbEntity
8
0
100
AcDbLine
10
29.714302331334448
20
1530.4220789352248
30
0
11
30.361167030636508
21
1548.9458601260276
31
0
0
LINE
5
102
100
AcDbEntity
8
0
100
AcDbLine
10
20.704078267405784
20
1559.2891885412605
30
0
11
20.716253729151841
21
1559.2887633647674
31
0
0
ARC
5
103
100
AcDbEntity
8
0
100
AcDbCircle
10
20.355083300527305
20
1549.2952802710638
30
0
40
10.000000000000453
210
0
220
-0
230
1
100
AcDbArc
50
88.000000000840203
51
177.99999999999656
0
ARC
5
104
100
AcDbEntity
8
0
100
AcDbCircle
10
20.367258762335275
20
1549.2948550963438
30
0
40
9.9999999982262882
210
-0
220
0
230
1
100
AcDbArc
50
-2.0000000192233518
51
88.000000000840174
0
CIRCLE
5
105
100
AcDbEntity
8
0
100
AcDbCircle
10
20.355083300527305
20
1549.2952802710638
30
0
40
3.4999999999999964
210
0
220
0
230
1
0
LINE
5
106
100
AcDbEntity
8
0
100
AcDbLine
10
369.30039162563287
20
1518.5634708046568
30
0
11
369.94400743185031
21
1536.9940523322452
31
0
0
ARC
5
107
100
AcDbEntity
8
0
100
AcDbCircle
10
379.93791559390468
20
1536.645054268919
30
0
40
10.000000000000558
210
0
220
-0
230
1
100
AcDbArc
50
87.999981075460553
51
177.99998224868492
0
ARC
5
108
100
AcDbEntity
8
0
100
AcDbCircle
10
379.95009883065683
20
1536.6446288168886
30
0
40
10.000000000010758
210
-0
220
0
230
1
100
AcDbArc
50
-2.0000398917360389
51
87.999981083261147
0
LINE
5
109
100
AcDbEntity
8
0
100
AcDbLine
10
389.3003846781267
20
1517.8650670466282
30
0
11
389.94400685787116
21
1536.2956268916832
31
0
0
CIRCLE
5
110
100
AcDbEntity
8
0
100
AcDbCircle
10
379.93791559390468
20
1536.645054268919
30
0
40
3.4999999999999964
210
0
220
0
230
1
0
LINE
5
111
100
AcDbEntity
8
0
100
AcDbLine
10
380.28691386187285
20
1546.6389624238386
30
0
11
380.29909709726434
21
1546.6385369718548
31
0
0
LINE
5
112
100
AcDbEntity
8
0
100
AcDbLine
10
12.049586195791186
20
0
30
0
11
10
21
0
31
0
0
LINE
5
113
100
AcDbEntity
8
0
100
AcDbLine
10
-45
20
35.000100253319744
30
0
11
-45
21
35.00000025331974
31
0
0
LINE
5
114
100
AcDbEntity
8
0
100
AcDbLine
10
-35
20
25.000000625600627
30
0
11
-26.45224192167333
21
25.00000062584877
31
0
0
LINE
5
115
100
AcDbEntity
8
0
100
AcDbLine
10
-23.892596312535698
20
23.93832686096836
30
0
11
-2.9300875147208405
21
2.9356959390824411
31
0
0
ARC
5
116
100
AcDbEntity
8
0
100
AcDbCircle
10
-25.032532687149818
20
45.00000025331974
30
0
40
1.5000000000000036
210
0
220
0
230
1
100
AcDbArc
50
-180
51
0
0
ARC
5
117
100
AcDbEntity
8
0
100
AcDbCircle
10
-24.95224192167333
20
25.00000062584877
30
0
40
1.5000000000000011
210
0
220
0
230
1
100
AcDbArc
50
-45.054779459553501
51
180
0
LINE
5
118
100
AcDbEntity
8
0
100
AcDbLine
10
-35
20
45.00000025331974
30
0
11
-26.532532687149821
21
45.00000025331974
31
0
0
LINE
5
119
100
AcDbEntity
8
0
100
AcDbLine
10
-23.532532687149814
20
45.00000025331974
30
0
11
1.0654080915213049e-31
21
45.00000025331974
31
0
0
ARC
5
120
100
AcDbEntity
8
0
100
AcDbCircle
10
-35
20
35.00000025331974
30
0
40
10
210
0
220
-0
230
1
100
AcDbArc
50
90
51
180
0
ARC
5
121
100
AcDbEntity
8
0
100
AcDbCircle
10
-35
20
35.00000062584877
30
0
40
10.00000000049628
210
0
220
0
230
1
100
AcDbArc
50
179.99942917649184
51
270
0
CIRCLE
5
122
100
AcDbEntity
8
0
100
AcDbCircle
10
-35
20
35.00000062584877
30
0
40
3.5000000000000004
210
0
220
0
230
1
0
LINE
5
123
100
AcDbEntity
8
0
100
AcDbLine
10
-23.892596312535698
20
373.93832686096835
30
0
11
1.0654080915213049e-31
21
350.00000025331985
31
0
0
ARC
5
124
100
AcDbEntity
8
0
100
AcDbCircle
10
-24.95224192167333
20
375.00000062584877
30
0
40
1.4999999999999825
210
0
220
0
230
1
100
AcDbArc
50
-45.054779459553906
51
180
0
LINE
5
125
100
AcDbEntity
8
0
100
AcDbLine
10
-34.999999999564587
20
375.00000062541449
30
0
11
-26.45224192167333
21
375.00000062584877
31
0
0
ARC
5
126
100
AcDbEntity
8
0
100
AcDbCircle
10
-35
20
385.00000062584877
30
0
40
10.00000000049628
210
0
220
0
230
1
100
AcDbArc
50
179.99942917649184
51
270.00000000249474
0
ARC
5
127
100
AcDbEntity
8
0
100
AcDbCircle
10
-35
20
385.00000025331974
30
0
40
10
210
0
220
-0
230
1
100
AcDbArc
50
90
51
180
0
CIRCLE
5
128
100
AcDbEntity
8
0
100
AcDbCircle
10
-35
20
385.00000062584877
30
0
40
3.5000000000000004
210
0
220
0
230
1
0
LINE
5
129
100
AcDbEntity
8
0
100
AcDbLine
10
-35
20
395.00000025331974
30
0
11
-26.532532687149821
21
395.00000025331974
31
0
0
ARC
5
130
100
AcDbEntity
8
0
100
AcDbCircle
10
-25.032532687149818
20
395.00000025331974
30
0
40
1.5000000000000036
210
0
220
0
230
1
100
AcDbArc
50
-180
51
0
0
LINE
5
131
100
AcDbEntity
8
0
100
AcDbLine
10
-23.532532687149814
20
395.00000025331974
30
0
11
1.0654080915213049e-31
21
395.00000025331974
31
0
0
LINE
5
132
100
AcDbEntity
8
0
100
AcDbLine
10
-23.892596312535698
20
723.93832686096835
30
0
11
1.0654080915213049e-31
21
700.00000025331974
31
0
0
ARC
5
133
100
AcDbEntity
8
0
100
AcDbCircle
10
-24.95224192167333
20
725.00000062584877
30
0
40
1.5000000000000326
210
0
220
0
230
1
100
AcDbArc
50
-45.054779459553906
51
180
0
LINE
5
134
100
AcDbEntity
8
0
100
AcDbLine
10
-35
20
725.00000062560059
30
0
11
-26.45224192167333
21
725.00000062584877
31
0
0
ARC
5
135
100
AcDbEntity
8
0
100
AcDbCircle
10
-35
20
735.00000062584877
30
0
40
10.00000000049628
210
0
220
0
230
1
100
AcDbArc
50
179.99942917649184
51
270
0
ARC
5
136
100
AcDbEntity
8
0
100
AcDbCircle
10
-35
20
735.00000025331974
30
0
40
10
210
0
220
-0
230
1
100
AcDbArc
50
90
51
180
0
CIRCLE
5
137
100
AcDbEntity
8
0
100
AcDbCircle
10
-35
20
735.00000062584877
30
0
40
3.5000000000000004
210
0
220
0
230
1
0
LINE
5
138
100
AcDbEntity
8
0
100
AcDbLine
10
-35
20
745.00000025331974
30
0
11
-26.532532687149821
21
745.00000025331974
31
0
0
ARC
5
139
100
AcDbEntity
8
0
100
AcDbCircle
10
-25.032532687149818
20
745.00000025331974
30
0
40
1.5000000000000036
210
0
220
0
230
1
100
AcDbArc
50
-180
51
0
0
LINE
5
140
100
AcDbEntity
8
0
100
AcDbLine
10
-23.532532687149814
20
745.00000025331974
30
0
11
1.3906813462732322e-31
21
745.00000025331974
31
0
0
LINE
5
141
100
AcDbEntity
8
0
100
AcDbLine
10
-23.892596312535698
20
1073.9383268609683
30
0
11
1.129606760222343e-31
21
1050.0000002533195
31
0
0
ARC
5
142
100
AcDbEntity
8
0
100
AcDbCircle
10
-24.95224192167333
20
1075.0000006258488
30
0
40
1.5000000000000326
210
0
220
0
230
1
100
AcDbArc
50
-45.054779459553906
51
180
0
LINE
5
143
100
AcDbEntity
8
0
100
AcDbLine
10
-34.999999999564587
20
1075.0000006254145
30
0
11
-26.45224192167333
21
1075.0000006258488
31
0
0
ARC
5
144
100
AcDbEntity
8
0
100
AcDbCircle
10
-35
20
1085.0000006258488
30
0
40
10.00000000049628
210
0
220
0
230
1
100
AcDbArc
50
179.99942917649184
51
270.00000000249474
0
ARC
5
145
100
AcDbEntity
8
0
100
AcDbCircle
10
-35
20
1085.0000002533197
30
0
40
10
210
0
220
-0
230
1
100
AcDbArc
50
90
51
180
0
CIRCLE
5
146
100
AcDbEntity
8
0
100
AcDbCircle
10
-35
20
1085.0000006258488
30
0
40
3.5000000000000004
210
0
220
0
230
1
0
LINE
5
147
100
AcDbEntity
8
0
100
AcDbLine
10
-35
20
1095.0000002533197
30
0
11
-26.532532687149821
21
1095.0000002533197
31
0
0
ARC
5
148
100
AcDbEntity
8
0
100
AcDbCircle
10
-25.032532687149818
20
1095.0000002533197
30
0
40
1.5000000000000036
210
0
220
0
230
1
100
AcDbArc
50
-180
51
0
0
LINE
5
149
100
AcDbEntity
8
0
100
AcDbLine
10
-23.532532687149814
20
1095.0000002533197
30
0
11
1.6604053395631574e-31
21
1095.0000002533197
31
0
0
LINE
5
150
100
AcDbEntity
8
0
100
AcDbLine
10
1.0654080915213049e-31
20
350.00000025331985
30
0
11
1.0654080915213049e-31
21
45.00000025331974
31
0
0
LINE
5
151
100
AcDbEntity
8
0
100
AcDbLine
10
1.0654080915213049e-31
20
700.00000025331974
30
0
11
1.0654080915213049e-31
21
395.00000025331974
31
0
0
LINE
5
152
100
AcDbEntity
8
0
100
AcDbLine
10
-23.892596312535698
20
1403.9383268609683
30
0
11
1.0654080915213049e-31
21
1380.0000002533197
31
0
0
ARC
5
153
100
AcDbEntity
8
0
100
AcDbCircle
10
-24.95224192167333
20
1405.0000006258488
30
0
40
1.5000000000001332
210
0
220
0
230
1
100
AcDbArc
50
-45.054779459553906
51
180
0
LINE
5
154
100
AcDbEntity
8
0
100
AcDbLine
10
-34.999999999709722
20
1405.0000006254766
30
0
11
-26.45224192167333
21
1405.0000006258488
31
0
0
ARC
5
155
100
AcDbEntity
8
0
100
AcDbCircle
10
-35
20
1415.0000006258488
30
0
40
10.00000000049628
210
0
220
0
230
1
100
AcDbArc
50
179.99942917649184
51
270.00000000166312
0
ARC
5
156
100
AcDbEntity
8
0
100
AcDbCircle
10
-35
20
1415.0000002533197
30
0
40
10
210
0
220
-0
230
1
100
AcDbArc
50
90
51
180
0
CIRCLE
5
157
100
AcDbEntity
8
0
100
AcDbCircle
10
-35
20
1415.0000006258488
30
0
40
3.5000000000000004
210
0
220
0
230
1
0
LINE
5
158
100
AcDbEntity
8
0
100
AcDbLine
10
-35
20
1425.0000002533197
30
0
11
-26.532532687149821
21
1425.0000002533197
31
0
0
ARC
5
159
100
AcDbEntity
8
0
100
AcDbCircle
10
-25.032532687149818
20
1425.0000002533197
30
0
40
1.5000000000000036
210
0
220
0
230
1
100
AcDbArc
50
-180
51
0
0
LINE
5
160
100
AcDbEntity
8
0
100
AcDbLine
10
-23.532532687149814
20
1425.0000002533197
30
0
11
1.0654080915213049e-31
21
1425.0000002533197
31
0
0
LINE
5
161
100
AcDbEntity
8
0
100
AcDbLine
10
1.129606760222343e-31
20
1050.0000002533195
30
0
11
1.3906813462732322e-31
21
745.00000025331974
31
0
0
LINE
5
162
100
AcDbEntity
8
0
100
AcDbLine
10
4.1477375844818543
20
1.1102230246251565e-15
30
0
11
10
21
0
31
0
0
ARC
5
163
100
AcDbEntity
8
0
100
AcDbCircle
10
4.1477375844818649
20
10.000000000000018
30
0
40
10.000000000000018
210
0
220
0
230
1
100
AcDbArc
50
224.94522054044674
51
269.99999999999994
0
ARC
5
164
100
AcDbEntity
8
0
100
AcDbCircle
10
10.01218006331089
20
1529.6503669678987
30
0
40
1.4999999999999059
210
0
220
0
230
1
100
AcDbArc
50
-182.00000000000375
51
101.45392289841388
0
ARC
5
165
100
AcDbEntity
8
0
100
AcDbCircle
10
30.012172060313649
20
1528.9519518575348
30
0
40
1.4999999999997662
210
0
220
0
230
1
100
AcDbArc
50
101.45392301087563
51
360
0
ARC
5
166
100
AcDbEntity
8
0
100
AcDbCircle
10
369.59826381214469
20
1517.0933442248659
30
0
40
1.4999999999999114
210
0
220
0
230
1
100
AcDbArc
50
-182.00000000000375
51
101.45401878890192
0
ARC
5
167
100
AcDbEntity
8
0
100
AcDbCircle
10
389.59826404341385
20
1516.3949419214146
30
0
40
1.500000000016166
210
0
220
0
230
1
100
AcDbArc
50
101.45429857021709
51
358.00003746718306
0
LINE
5
168
100
AcDbEntity
8
0
100
AcDbLine
10
1000
20
0
30
0
11
1000
21
1000
31
0
0
LINE
5
169
100
AcDbEntity
8
0
100
AcDbLine
10
0
20
1530
30
0
11
450
21
1530
31
0
0
LINE
5
170
100
AcDbEntity
8
0
100
AcDbLine
10
398.25434136848241
20
1510.0440501326295
30
0
11
21.896264216483061
21
7.5701498611962839
31
0
0
LINE
5
171
100
AcDbEntity
8
0
100
AcDbLine
10
12.195963793147865
20
0
30
0
11
12.049586195791186
21
0
31
0
0
ARC
5
172
100
AcDbEntity
8
0
100
AcDbCircle
10
12.195963793147808
20
10.000000000000163
30
0
40
10.000000000000163
210
0
220
0
230
1
100
AcDbArc
50
270.00000000000034
51
345.9372144765602
0
LINE
5
173
100
AcDbEntity
8
0
100
AcDbLine
10
5.1744974835128659
20
1529.8193025661421
30
0
11
8.5130938227823396
21
1529.7027162129525
31
0
0
LINE
5
174
100
AcDbEntity
8
0
100
AcDbLine
10
31.511258300842066
20
1528.8996026124814
30
0
11
368.09917757161611
21
1517.1456934699197
31
0
0
LINE
5
175
100
AcDbEntity
8
0
100
AcDbLine
10
391.09734982718999
20
1516.3425795978515
30
0
11
393.57868864032741
21
1516.2559293371269
31
0
0
ARC
5
176
100
AcDbEntity
8
0
100
AcDbCircle
10
393.40419115681482
20
1511.2589752020313
30
0
40
4.9999999999999991
210
0
220
0
230
1
100
AcDbArc
50
-14.062785523437354
51
87.999999999999019
0
ARC
5
177
100
AcDbEntity
8
0
100
AcDbCircle
10
5.0000000000001954
20
1524.8223484310465
30
0
40
5.0000000000000906
210
0
220
-0
230
1
100
AcDbArc
50
87.999999999998167
51
180
0
LINE
5
178
100
AcDbEntity
8
0
100
AcDbLine
10
0
20
1524.8223484310465
30
0
11
1.0654080915213049e-31
21
1425.0000002533197
31
0
0
LINE
5
179
100
AcDbEntity
8
0
100
AcDbLine
10
1.0654080915213049e-31
20
1380.0000002533197
30
0
11
1.6604053395631574e-31
21
1095.0000002533197
31
0
0
ENDSEC
0
SECTION
2
OBJECTS
0
DICTIONARY
5
C
100
AcDbDictionary
3
ACAD_GROUP
350
D
3
ACAD_MLINESTYLE
350
17
0
DICTIONARY
5
D
100
AcDbDictionary
0
DICTIONARY
5
1A
330
C
100
AcDbDictionary
0
DICTIONARY
5
17
100
AcDbDictionary
0
ENDSEC
0
EOF
