0
SECTION
2
HEADER
9
$INSUNITS
70
4
9
$ACADVER
1
AC1014
9
$HANDSEED
5
FFFF
0
ENDSEC
0
SECTION
2
TABLES
0
TABLE
2
VPORT
5
8
100
AcDbSymbolTable
0
ENDTAB
0
TABLE
2
LTYPE
5
5
100
AcDbSymbolTable
0
LTYPE
5
14
100
AcDbSymbolTableRecord
100
AcDbLinetypeTableRecord
2
BYBLOCK
70
0
0
LTYPE
5
15
100
AcDbSymbolTableRecord
100
AcDbLinetypeTableRecord
2
BYLAYER
70
0
0
ENDTAB
0
TABLE
2
LAYER
5
2
100
AcDbSymbolTable
70
2
0
LAYER
5
50
100
AcDbSymbolTableRecord
100
AcDbLayerTableRecord
2
0
70
0
6
CONTINUOUS
0
ENDTAB
0
TABLE
2
STYLE
5
3
100
AcDbSymbolTable
70
1
0
STYLE
5
11
100
AcDbSymbolTableRecord
100
AcDbTextStyleTableRecord
2
STANDARD
70
0
0
ENDTAB
0
TABLE
2
VIEW
5
6
100
AcDbSymbolTable
70
0
0
ENDTAB
0
TABLE
2
UCS
5
7
100
AcDbSymbolTable
70
0
0
ENDTAB
0
TABLE
2
APPID
5
9
100
AcDbSymbolTable
70
2
0
APPID
5
12
100
AcDbSymbolTableRecord
100
AcDbRegAppTableRecord
2
ACAD
70
0
0
ENDTAB
0
TABLE
2
DIMSTYLE
5
A
100
AcDbSymbolTable
70
1
0
ENDTAB
0
TABLE
2
BLOCK_RECORD
5
1
100
AcDbSymbolTable
70
1
0
BLOCK_RECORD
5
1F
100
AcDbSymbolTableRecord
100
AcDbBlockTableRecord
2
*MODEL_SPACE
0
BLOCK_RECORD
5
1B
100
AcDbSymbolTableRecord
100
AcDbBlockTableRecord
2
*PAPER_SPACE
0
ENDTAB
0
ENDSEC
0
SECTION
2
BLOCKS
0
BLOCK
5
20
100
AcDbEntity
100
AcDbBlockBegin
2
*MODEL_SPACE
0
ENDBLK
5
21
100
AcDbEntity
100
AcDbBlockEnd
0
BLOCK
5
1C
100
AcDbEntity
100
AcDbBlockBegin
2
*PAPER_SPACE
0
ENDBLK
5
1D
100
AcDbEntity
100
AcDbBlockEnd
0
ENDSEC
0
SECTION
2
ENTITIES
0
LINE
5
100
100
AcDbEntity
8
0
100
AcDbLine
10
-23.532532687149814
20
62.50000025331974
30
0
11
-8.1954466904930571e-34
21
62.50000025331974
31
0
0
ARC
5
101
100
AcDbEntity
8
0
100
AcDbCircle
10
-25.032532687149818
20
62.50000025331974
30
0
40
1.5000000000000036
210
0
220
0
230
1
100
AcDbArc
50
-180
51
0
0
LINE
5
102
100
AcDbEntity
8
0
100
AcDbLine
10
-35
20
62.50000025331974
30
0
11
-26.532532687149821
21
62.50000025331974
31
0
0
ARC
5
103
100
AcDbEntity
8
0
100
AcDbCircle
10
-35
20
52.50000025331974
30
0
40
10
210
0
220
-0
230
1
100
AcDbArc
50
90
51
180
0
ARC
5
104
100
AcDbEntity
8
0
100
AcDbCircle
10
-35
20
52.50000062584877
30
0
40
10.00000000049628
210
0
220
0
230
1
100
AcDbArc
50
179.99942917649184
51
270
0
LINE
5
105
100
AcDbEntity
8
0
100
AcDbLine
10
-35
20
42.50000062584877
30
0
11
-26.45224192167333
21
42.50000062584877
31
0
0
ARC
5
106
100
AcDbEntity
8
0
100
AcDbCircle
10
-24.95224192167333
20
42.50000062584877
30
0
40
1.5000000000000011
210
0
220
0
230
1
100
AcDbArc
50
-45.054779459553501
51
180
0
LINE
5
107
100
AcDbEntity
8
0
100
AcDbLine
10
-23.892596312535698
20
41.43832686096836
30
0
11
-8.1954466904930571e-34
21
17.50000025331974
31
0
0
LINE
5
108
100
AcDbEntity
8
0
100
AcDbLine
10
10.000000000000833
20
3.29411007308079e-15
30
0
11
11.845208561909729
21
3.29411007308079e-15
31
0
0
LINE
5
109
100
AcDbEntity
8
0
100
AcDbLine
10
398.55984593780158
20
1835.2397298951055
30
0
11
21.63901582185623
21
7.9797674997620005
31
0
0
CIRCLE
5
110
100
AcDbEntity
8
0
100
AcDbCircle
10
20.355083300932968
20
1874.2952802710877
30
0
40
3.4999999999999964
210
0
220
0
230
1
0
ARC
5
111
100
AcDbEntity
8
0
100
AcDbCircle
10
20.367258765012927
20
1874.2948550962635
30
0
40
9.9999999982511554
210
-0
220
0
230
1
100
AcDbArc
50
-2.0000000196695451
51
88.000000000797741
0
ARC
5
112
100
AcDbEntity
8
0
100
AcDbCircle
10
20.355083300932968
20
1874.2952802710877
30
0
40
10.000000000000174
210
0
220
-0
230
1
100
AcDbArc
50
88.000000000792738
51
177.9999999997828
0
LINE
5
113
100
AcDbEntity
8
0
100
AcDbLine
10
20.70407826781971
20
1884.2891885412837
30
0
11
20.71625373183776
21
1884.2887633647117
31
0
0
LINE
5
114
100
AcDbEntity
8
0
100
AcDbLine
10
29.715738691333698
20
1855.4632108302426
30
0
11
30.361167033336297
21
1873.9458601258686
31
0
0
LINE
5
115
100
AcDbEntity
8
0
100
AcDbLine
10
9.7157468601586867
20
1856.161630671445
30
0
11
10.36117503074288
21
1874.6442752381506
31
0
0
CIRCLE
5
116
100
AcDbEntity
8
0
100
AcDbCircle
10
379.93791556769787
20
1861.6450543234575
30
0
40
3.4999999999999964
210
0
220
0
230
1
0
ARC
5
117
100
AcDbEntity
8
0
100
AcDbCircle
10
379.93791556769787
20
1861.6450543234575
30
0
40
10.000000000001215
210
0
220
-0
230
1
100
AcDbArc
50
87.999981076799401
51
177.99997550620992
0
LINE
5
118
100
AcDbEntity
8
0
100
AcDbLine
10
369.30182301910685
20
1843.6045230375689
30
0
11
369.94400744671594
21
1861.9940535628507
31
0
0
LINE
5
119
100
AcDbEntity
8
0
100
AcDbLine
10
380.28691383543253
20
1871.6389624783858
30
0
11
380.29909602952443
21
1871.6385370627656
31
0
0
ARC
5
120
100
AcDbEntity
8
0
100
AcDbCircle
10
379.95009776848457
20
1861.6446289076048
30
0
40
10.000000000022968
210
-0
220
0
230
1
100
AcDbArc
50
-1.999988386048889
51
87.999981115180873
0
LINE
5
121
100
AcDbEntity
8
0
100
AcDbLine
10
5.1744986654370031
20
1854.8193012994584
30
0
11
8.1643113869525781
21
1854.7148940305476
31
0
0
LINE
5
122
100
AcDbEntity
8
0
100
AcDbLine
10
389.24906087753811
20
1841.3948926315052
30
0
11
389.24948424840915
21
1841.4070163047802
31
0
0
LINE
5
123
100
AcDbEntity
8
0
100
AcDbLine
10
31.162475673911814
20
1853.911774990102
30
0
11
367.75038690505005
21
1842.1577864190476
31
0
0
LINE
5
124
100
AcDbEntity
8
0
100
AcDbLine
10
390.7485704765557
20
1841.3546667051494
30
0
11
393.83744097326456
21
1841.2468002390465
31
0
0
ARC
5
125
100
AcDbEntity
8
0
100
AcDbCircle
10
10.000000000000833
20
10.000000000000002
30
0
40
10.000000000000085
210
0
220
0
230
1
100
AcDbArc
50
180
51
270
0
ARC
5
126
100
AcDbEntity
8
0
100
AcDbCircle
10
11.845208561909729
20
9.9999999999999218
30
0
40
9.9999999999999183
210
0
220
0
230
1
100
AcDbArc
50
270
51
348.34470181931408
0
CIRCLE
5
127
100
AcDbEntity
8
0
100
AcDbCircle
10
-35
20
52.50000025331974
30
0
40
3.5000000000000009
210
0
220
0
230
1
0
LINE
5
128
100
AcDbEntity
8
0
100
AcDbLine
10
-23.532532687149814
20
462.50000025331974
30
0
11
-8.1954466904930571e-34
21
462.50000025331974
31
0
0
ARC
5
129
100
AcDbEntity
8
0
100
AcDbCircle
10
-25.032532687149818
20
462.50000025331974
30
0
40
1.5000000000000036
210
0
220
0
230
1
100
AcDbArc
50
-180
51
0
0
LINE
5
130
100
AcDbEntity
8
0
100
AcDbLine
10
-35
20
462.50000025331974
30
0
11
-26.532532687149821
21
462.50000025331974
31
0
0
ARC
5
131
100
AcDbEntity
8
0
100
AcDbCircle
10
-35
20
452.50000025331974
30
0
40
10
210
0
220
-0
230
1
100
AcDbArc
50
90
51
180
0
CIRCLE
5
132
100
AcDbEntity
8
0
100
AcDbCircle
10
-35
20
452.50000025331974
30
0
40
3.5000000000000009
210
0
220
0
230
1
0
ARC
5
133
100
AcDbEntity
8
0
100
AcDbCircle
10
-35
20
452.50000062584877
30
0
40
10.00000000049628
210
0
220
0
230
1
100
AcDbArc
50
179.99942917649184
51
270
0
LINE
5
134
100
AcDbEntity
8
0
100
AcDbLine
10
-35
20
442.50000062584877
30
0
11
-26.45224192167333
21
442.50000062584877
31
0
0
ARC
5
135
100
AcDbEntity
8
0
100
AcDbCircle
10
-24.95224192167333
20
442.50000062584877
30
0
40
1.4999999999999825
210
0
220
0
230
1
100
AcDbArc
50
-45.054779459553906
51
180
0
LINE
5
136
100
AcDbEntity
8
0
100
AcDbLine
10
-23.892596312535698
20
441.43832686096835
30
0
11
-8.1954466904930571e-34
21
417.50000025331974
31
0
0
LINE
5
137
100
AcDbEntity
8
0
100
AcDbLine
10
-23.532532687149814
20
862.50000025331974
30
0
11
-8.1954466904930571e-34
21
862.50000025331974
31
0
0
ARC
5
138
100
AcDbEntity
8
0
100
AcDbCircle
10
-25.032532687149818
20
862.50000025331974
30
0
40
1.5000000000000036
210
0
220
0
230
1
100
AcDbArc
50
-180
51
0
0
LINE
5
139
100
AcDbEntity
8
0
100
AcDbLine
10
-35
20
862.50000025331974
30
0
11
-26.532532687149821
21
862.50000025331974
31
0
0
ARC
5
140
100
AcDbEntity
8
0
100
AcDbCircle
10
-35
20
852.50000025331974
30
0
40
10
210
0
220
-0
230
1
100
AcDbArc
50
90
51
180
0
CIRCLE
5
141
100
AcDbEntity
8
0
100
AcDbCircle
10
-35
20
852.50000025331974
30
0
40
3.5000000000000009
210
0
220
0
230
1
0
ARC
5
142
100
AcDbEntity
8
0
100
AcDbCircle
10
-35
20
852.50000062584877
30
0
40
10.00000000049628
210
0
220
0
230
1
100
AcDbArc
50
179.99942917649184
51
270
0
LINE
5
143
100
AcDbEntity
8
0
100
AcDbLine
10
-35
20
842.50000062584877
30
0
11
-26.45224192167333
21
842.50000062584877
31
0
0
ARC
5
144
100
AcDbEntity
8
0
100
AcDbCircle
10
-24.95224192167333
20
842.50000062584877
30
0
40
1.5000000000000326
210
0
220
0
230
1
100
AcDbArc
50
-45.054779459553906
51
180
0
LINE
5
145
100
AcDbEntity
8
0
100
AcDbLine
10
-23.892596312535698
20
841.43832686096835
30
0
11
-8.1954466904930571e-34
21
817.50000025331974
31
0
0
LINE
5
146
100
AcDbEntity
8
0
100
AcDbLine
10
-23.532532687149814
20
1262.5000002533197
30
0
11
-8.1954466904930571e-34
21
1262.5000002533197
31
0
0
ARC
5
147
100
AcDbEntity
8
0
100
AcDbCircle
10
-25.032532687149818
20
1262.5000002533197
30
0
40
1.5000000000000036
210
0
220
0
230
1
100
AcDbArc
50
-180
51
0
0
LINE
5
148
100
AcDbEntity
8
0
100
AcDbLine
10
-35
20
1262.5000002533197
30
0
11
-26.532532687149821
21
1262.5000002533197
31
0
0
ARC
5
149
100
AcDbEntity
8
0
100
AcDbCircle
10
-35
20
1252.5000002533197
30
0
40
10
210
0
220
-0
230
1
100
AcDbArc
50
90
51
180
0
CIRCLE
5
150
100
AcDbEntity
8
0
100
AcDbCircle
10
-35
20
1252.5000002533197
30
0
40
3.5000000000000009
210
0
220
0
230
1
0
ARC
5
151
100
AcDbEntity
8
0
100
AcDbCircle
10
-35
20
1252.5000006258488
30
0
40
10.00000000049628
210
0
220
0
230
1
100
AcDbArc
50
179.99942917649184
51
270
0
LINE
5
152
100
AcDbEntity
8
0
100
AcDbLine
10
-35
20
1242.5000006258488
30
0
11
-26.45224192167333
21
1242.5000006258488
31
0
0
ARC
5
153
100
AcDbEntity
8
0
100
AcDbCircle
10
-24.95224192167333
20
1242.5000006258488
30
0
40
1.5000000000000326
210
0
220
0
230
1
100
AcDbArc
50
-45.054779459553906
51
180
0
LINE
5
154
100
AcDbEntity
8
0
100
AcDbLine
10
-23.892596312535698
20
1241.4383268609683
30
0
11
-8.1954466904930571e-34
21
1217.5000002533197
31
0
0
LINE
5
155
100
AcDbEntity
8
0
100
AcDbLine
10
-23.532532687149814
20
1662.5000002533197
30
0
11
-8.1954466904930571e-34
21
1662.5000002533197
31
0
0
ARC
5
156
100
AcDbEntity
8
0
100
AcDbCircle
10
-25.032532687149818
20
1662.5000002533197
30
0
40
1.5000000000000036
210
0
220
0
230
1
100
AcDbArc
50
-180
51
0
0
LINE
5
157
100
AcDbEntity
8
0
100
AcDbLine
10
-35
20
1662.5000002533197
30
0
11
-26.532532687149821
21
1662.5000002533197
31
0
0
ARC
5
158
100
AcDbEntity
8
0
100
AcDbCircle
10
-35
20
1652.5000002533197
30
0
40
10
210
0
220
-0
230
1
100
AcDbArc
50
90
51
180
0
CIRCLE
5
159
100
AcDbEntity
8
0
100
AcDbCircle
10
-35
20
1652.5000002533197
30
0
40
3.5000000000000009
210
0
220
0
230
1
0
ARC
5
160
100
AcDbEntity
8
0
100
AcDbCircle
10
-35
20
1652.5000006258488
30
0
40
10.00000000049628
210
0
220
0
230
1
100
AcDbArc
50
179.99942917649184
51
270
0
LINE
5
161
100
AcDbEntity
8
0
100
AcDbLine
10
-35
20
1642.5000006258488
30
0
11
-26.45224192167333
21
1642.5000006258488
31
0
0
ARC
5
162
100
AcDbEntity
8
0
100
AcDbCircle
10
-24.95224192167333
20
1642.5000006258488
30
0
40
1.5000000000001332
210
0
220
0
230
1
100
AcDbArc
50
-45.054779459553906
51
180
0
LINE
5
163
100
AcDbEntity
8
0
100
AcDbLine
10
-23.892596312535698
20
1641.4383268609683
30
0
11
-8.1954466904930571e-34
21
1617.5000002533197
31
0
0
LINE
5
164
100
AcDbEntity
8
0
100
AcDbLine
10
8.3322875357419791e-13
20
1849.8223472056366
30
0
11
-8.1954466904930571e-34
21
1662.5000002533197
31
0
0
LINE
5
165
100
AcDbEntity
8
0
100
AcDbLine
10
-8.1954466904930571e-34
20
1617.5000002533197
30
0
11
-8.1954466904930571e-34
21
1262.5000002533197
31
0
0
LINE
5
166
100
AcDbEntity
8
0
100
AcDbLine
10
-8.1954466904930571e-34
20
1217.5000002533197
30
0
11
-8.1954466904930571e-34
21
862.50000025331974
31
0
0
LINE
5
167
100
AcDbEntity
8
0
100
AcDbLine
10
-8.1954466904930571e-34
20
817.50000025331974
30
0
11
-8.1954466904930571e-34
21
462.50000025331974
31
0
0
LINE
5
168
100
AcDbEntity
8
0
100
AcDbLine
10
-8.1954466904930571e-34
20
417.50000025331974
30
0
11
-8.1954466904930571e-34
21
62.50000025331974
31
0
0
LINE
5
169
100
AcDbEntity
8
0
100
AcDbLine
10
-8.1954466904930571e-34
20
17.50000025331974
30
0
11
7.4885180370268601e-13
21
10.000000000000002
31
0
0
ARC
5
170
100
AcDbEntity
8
0
100
AcDbCircle
10
393.66294230782847
20
1836.2498461452251
30
0
40
4.9999999999999014
210
-0
220
0
230
1
100
AcDbArc
50
-11.655298180693489
51
87.999986447897641
0
ARC
5
171
100
AcDbEntity
8
0
100
AcDbCircle
10
5.0000000000006093
20
1849.8223472056366
30
0
40
5.0000000000001945
210
0
220
-0
230
1
100
AcDbArc
50
87.999986447894344
51
180
0
ARC
5
172
100
AcDbEntity
8
0
100
AcDbCircle
10
29.663389445765279
20
1853.9641245897317
30
0
40
1.500000000000121
210
0
220
-0
230
1
100
AcDbArc
50
87.999999980329505
51
360
0
ARC
5
173
100
AcDbEntity
8
0
100
AcDbCircle
10
9.6633976150990737
20
1854.6625444309166
30
0
40
1.5000000000000047
210
0
220
0
230
1
100
AcDbArc
50
-182.0000135521104
51
87.999999999775937
0
ARC
5
174
100
AcDbEntity
8
0
100
AcDbCircle
10
369.24947313319672
20
1842.1054368194195
30
0
40
1.5000000000000488
210
0
220
0
230
1
100
AcDbArc
50
-182.0000135519974
51
87.999975506168354
0
LINE
5
175
100
AcDbEntity
8
0
100
AcDbLine
10
389.24906087753811
20
1841.3948926315052
30
0
11
389.24948424840915
21
1841.4070163047802
31
0
0
LINE
5
176
100
AcDbEntity
8
0
100
AcDbLine
10
389.30183318427225
20
1842.9061025561059
30
0
11
389.94400610944012
21
1861.295635966361
31
0
0
ARC
5
177
100
AcDbEntity
8
0
100
AcDbCircle
10
389.24948424840915
20
1841.4070163047802
30
0
40
1.5000000000000344
210
0
220
-0
230
1
100
AcDbArc
50
88.00001181741132
51
357.99998644789838
0
ENDSEC
0
SECTION
2
OBJECTS
0
DICTIONARY
5
C
100
AcDbDictionary
3
ACAD_GROUP
350
D
3
ACAD_MLINESTYLE
350
17
0
DICTIONARY
5
D
100
AcDbDictionary
0
DICTIONARY
5
1A
330
C
100
AcDbDictionary
0
DICTIONARY
5
17
100
AcDbDictionary
0
ENDSEC
0
EOF
