0
SECTION
2
HEADER
9
$INSUNITS
70
4
9
$ACADVER
1
AC1014
9
$HANDSEED
5
FFFF
0
ENDSEC
0
SECTION
2
TABLES
0
TABLE
2
VPORT
5
8
100
AcDbSymbolTable
0
ENDTAB
0
TABLE
2
LTYPE
5
5
100
AcDbSymbolTable
0
LTYPE
5
14
100
AcDbSymbolTableRecord
100
AcDbLinetypeTableRecord
2
BYBLOCK
70
0
0
LTYPE
5
15
100
AcDbSymbolTableRecord
100
AcDbLinetypeTableRecord
2
BYLAYER
70
0
0
ENDTAB
0
TABLE
2
LAYER
5
2
100
AcDbSymbolTable
70
2
0
LAYER
5
50
100
AcDbSymbolTableRecord
100
AcDbLayerTableRecord
2
0
70
0
6
CONTINUOUS
0
ENDTAB
0
TABLE
2
STYLE
5
3
100
AcDbSymbolTable
70
1
0
STYLE
5
11
100
AcDbSymbolTableRecord
100
AcDbTextStyleTableRecord
2
STANDARD
70
0
0
ENDTAB
0
TABLE
2
VIEW
5
6
100
AcDbSymbolTable
70
0
0
ENDTAB
0
TABLE
2
UCS
5
7
100
AcDbSymbolTable
70
0
0
ENDTAB
0
TABLE
2
APPID
5
9
100
AcDbSymbolTable
70
2
0
APPID
5
12
100
AcDbSymbolTableRecord
100
AcDbRegAppTableRecord
2
ACAD
70
0
0
ENDTAB
0
TABLE
2
DIMSTYLE
5
A
100
AcDbSymbolTable
70
1
0
ENDTAB
0
TABLE
2
BLOCK_RECORD
5
1
100
AcDbSymbolTable
70
1
0
BLOCK_RECORD
5
1F
100
AcDbSymbolTableRecord
100
AcDbBlockTableRecord
2
*MODEL_SPACE
0
BLOCK_RECORD
5
1B
100
AcDbSymbolTableRecord
100
AcDbBlockTableRecord
2
*PAPER_SPACE
0
ENDTAB
0
ENDSEC
0
SECTION
2
BLOCKS
0
BLOCK
5
20
100
AcDbEntity
100
AcDbBlockBegin
2
*MODEL_SPACE
0
ENDBLK
5
21
100
AcDbEntity
100
AcDbBlockEnd
0
BLOCK
5
1C
100
AcDbEntity
100
AcDbBlockBegin
2
*PAPER_SPACE
0
ENDBLK
5
1D
100
AcDbEntity
100
AcDbBlockEnd
0
ENDSEC
0
SECTION
2
ENTITIES
0
LINE
5
100
100
AcDbEntity
8
0
100
AcDbLine
10
4.1477218270173122
20
-4.5551727202857357e-05
30
0
11
9.9999999999998508
21
-6.6858295347428808e-05
31
0
0
LINE
5
101
100
AcDbEntity
8
0
100
AcDbLine
10
-34.999997428359947
20
45.000000713390179
30
0
11
-26.532532687149821
21
45.000000713390179
31
0
0
ARC
5
102
100
AcDbEntity
8
0
100
AcDbCircle
10
4.1477582343231765
20
9.9999544482065339
30
0
40
10.000000000000011
210
0
220
0
230
1
100
AcDbArc
50
224.94516647697114
51
269.99979140150305
0
ARC
5
103
100
AcDbEntity
8
0
100
AcDbCircle
10
-34.999997428366555
20
35.000008192958887
30
0
40
10.000000000496295
210
0
220
0
230
1
100
AcDbArc
50
179.99942120380425
51
269.99999320203642
0
LINE
5
104
100
AcDbEntity
8
0
100
AcDbLine
10
-34.999998614835029
20
25.000008192462676
30
0
11
-26.45223271322655
21
25.000007178297196
31
0
0
ARC
5
105
100
AcDbEntity
8
0
100
AcDbCircle
10
-25.032532687149818
20
45.000000713390179
30
0
40
1.5000000000000036
210
0
220
0
230
1
100
AcDbArc
50
-180
51
0
0
LINE
5
106
100
AcDbEntity
8
0
100
AcDbLine
10
-23.892587398487763
20
23.938332703118771
30
0
11
-2.9300735306523422
21
2.935657065826331
31
0
0
LINE
5
107
100
AcDbEntity
8
0
100
AcDbLine
10
-23.532532687149814
20
45.000000713390179
30
0
11
-3.2621271147863256e-06
21
45.000000291418985
31
0
0
ARC
5
108
100
AcDbEntity
8
0
100
AcDbCircle
10
11.564674553672123
20
9.9999569367488768
30
0
40
10.000023795044243
210
0
220
0
230
1
100
AcDbArc
50
345.03704060645873
51
350.29757995064563
0
LINE
5
109
100
AcDbEntity
8
0
100
AcDbLine
10
-2.7210602207682591e-06
20
400.00000025488123
30
0
11
-3.2621271147863256e-06
21
45.000000291418985
31
0
0
ARC
5
110
100
AcDbEntity
8
0
100
AcDbCircle
10
-24.952232713226607
20
25.000006761835493
30
0
40
1.5000000000000038
210
0
220
0
230
1
100
AcDbArc
50
-45.054795347490511
51
179.99998409595915
0
CIRCLE
5
111
100
AcDbEntity
8
0
100
AcDbCircle
10
-34.999999999997314
20
1235.0000002534146
30
0
40
3.5000000000000009
210
0
220
0
230
1
0
LINE
5
112
100
AcDbEntity
8
0
100
AcDbLine
10
-23.532532687149814
20
1245.0000002534146
30
0
11
-1.4331685996653374e-06
21
1245.000000253415
31
0
0
LINE
5
113
100
AcDbEntity
8
0
100
AcDbLine
10
-35.0000011922181
20
1225.000000587858
30
0
11
-26.452243458038637
21
1225.000000596177
31
0
0
ARC
5
114
100
AcDbEntity
8
0
100
AcDbCircle
10
-35.000001725989456
20
835.00000054593454
30
0
40
10.000000000496282
210
0
220
0
230
1
100
AcDbArc
50
179.99942929526321
51
270.00000011842866
0
LINE
5
115
100
AcDbEntity
8
0
100
AcDbLine
10
-35.000001705319754
20
825.0000005454383
30
0
11
-26.452244105789966
21
825.00000056310614
31
0
0
LINE
5
116
100
AcDbEntity
8
0
100
AcDbLine
10
-23.532532687149814
20
845.00000025361442
30
0
11
-2.0428214380580245e-06
21
845.00000025361442
31
0
0
ARC
5
117
100
AcDbEntity
8
0
100
AcDbCircle
10
-24.95224410578993
20
825.0000005670762
30
0
40
1.4999999999999925
210
0
220
0
230
1
100
AcDbArc
50
-45.054779307905768
51
180
0
LINE
5
118
100
AcDbEntity
8
0
100
AcDbLine
10
-34.99999999998029
20
845.00000025361442
30
0
11
-26.532532687149821
21
845.00000025361442
31
0
0
CIRCLE
5
119
100
AcDbEntity
8
0
100
AcDbCircle
10
-34.99999999998029
20
835.00000025361442
30
0
40
3.5000000000000009
210
0
220
0
230
1
0
ARC
5
120
100
AcDbEntity
8
0
100
AcDbCircle
10
-34.99999999998029
20
835.00000025361442
30
0
40
10
210
0
220
-0
230
1
100
AcDbArc
50
90
51
180
0
LINE
5
121
100
AcDbEntity
8
0
100
AcDbLine
10
-23.892598493842332
20
823.93832680500043
30
0
11
-2.1114073823772326e-06
21
800.00000025361442
31
0
0
ARC
5
122
100
AcDbEntity
8
0
100
AcDbCircle
10
-34.999999999997314
20
1235.0000002534146
30
0
40
10
210
0
220
-0
230
1
100
AcDbArc
50
90
51
180
0
ARC
5
123
100
AcDbEntity
8
0
100
AcDbCircle
10
-25.032532687149818
20
845.00000025361442
30
0
40
1.5000000000000036
210
0
220
0
230
1
100
AcDbArc
50
-180
51
0
0
ARC
5
124
100
AcDbEntity
8
0
100
AcDbCircle
10
-25.032532687149818
20
1245.0000002534146
30
0
40
1.5000000000000036
210
0
220
0
230
1
100
AcDbArc
50
-180
51
0
0
LINE
5
125
100
AcDbEntity
8
0
100
AcDbLine
10
-23.892597847569622
20
1223.9383268345064
30
0
11
-1.5017545439845593e-06
21
1200.000000253415
31
0
0
LINE
5
126
100
AcDbEntity
8
0
100
AcDbLine
10
-34.999999999997314
20
1245.0000002534146
30
0
11
-26.532532687149821
21
1245.0000002534146
31
0
0
LINE
5
127
100
AcDbEntity
8
0
100
AcDbLine
10
-35.000000696754661
20
1625.0000006089729
30
0
11
-26.45224282922225
21
1625.0000006126381
31
0
0
ARC
5
128
100
AcDbEntity
8
0
100
AcDbCircle
10
-24.952243458038602
20
1225.000000598058
30
0
40
1.5000000000000966
210
0
220
0
230
1
100
AcDbArc
50
-45.054779387705373
51
180
0
ARC
5
129
100
AcDbEntity
8
0
100
AcDbCircle
10
-35.000000000000739
20
1635.0000002533466
30
0
40
10
210
0
220
-0
230
1
100
AcDbArc
50
90
51
180
0
CIRCLE
5
130
100
AcDbEntity
8
0
100
AcDbCircle
10
-35.000000000000739
20
1635.0000002533466
30
0
40
3.5000000000000089
210
0
220
0
230
1
0
ARC
5
131
100
AcDbEntity
8
0
100
AcDbCircle
10
-25.032532687149818
20
1645.0000002533466
30
0
40
1.5000000000000036
210
0
220
0
230
1
100
AcDbArc
50
-180
51
0
0
LINE
5
132
100
AcDbEntity
8
0
100
AcDbLine
10
-35.000000000000739
20
1645.0000002533466
30
0
11
-26.532532687149821
21
1645.0000002533466
31
0
0
ARC
5
133
100
AcDbEntity
8
0
100
AcDbCircle
10
-35.000000701042467
20
1635.0000006094692
30
0
40
10.000000000496282
210
0
220
0
230
1
100
AcDbArc
50
179.99942920139347
51
270.00000002456733
0
LINE
5
134
100
AcDbEntity
8
0
100
AcDbLine
10
-23.532532687149814
20
1645.0000002533466
30
0
11
-8.2351576127246893e-07
21
1645.000000253347
31
0
0
ARC
5
135
100
AcDbEntity
8
0
100
AcDbCircle
10
-35.000000209639353
20
2035.0000006221021
30
0
40
10.000000000496286
210
0
220
0
230
1
100
AcDbArc
50
179.99942918287675
51
270.00000000590251
0
ARC
5
136
100
AcDbEntity
8
0
100
AcDbCircle
10
-25.032532687149818
20
2045.0000002533197
30
0
40
1.5000000000000036
210
0
220
0
230
1
100
AcDbArc
50
-180
51
0
0
LINE
5
137
100
AcDbEntity
8
0
100
AcDbLine
10
-23.892597219491595
20
1623.9383268491865
30
0
11
-8.9210170559169618e-07
21
1600.000000253347
31
0
0
ARC
5
138
100
AcDbEntity
8
0
100
AcDbCircle
10
-35.00000120195034
20
1235.0000005883542
30
0
40
10.000000000496277
210
0
220
0
230
1
100
AcDbArc
50
179.99942923268168
51
270.00000005576163
0
ARC
5
139
100
AcDbEntity
8
0
100
AcDbCircle
10
-24.952242829222119
20
1625.0000006134755
30
0
40
1.5000000000001457
210
0
220
0
230
1
100
AcDbArc
50
-45.054779427566793
51
180
0
LINE
5
140
100
AcDbEntity
8
0
100
AcDbLine
10
-23.892596598730758
20
2023.9383268579672
30
0
11
-2.8244886719876979e-07
21
2000.0000002533261
31
0
0
LINE
5
141
100
AcDbEntity
8
0
100
AcDbLine
10
-23.532532687149814
20
2045.0000002533197
30
0
11
-2.1386292287956531e-07
21
2045.0000002533261
31
0
0
CIRCLE
5
142
100
AcDbEntity
8
0
100
AcDbCircle
10
-34.999999999876103
20
435.00000025488112
30
0
40
3.5000000000000142
210
0
220
0
230
1
0
LINE
5
143
100
AcDbEntity
8
0
100
AcDbLine
10
-35.000000208609173
20
2025.0000006216055
30
0
11
-26.452242208018639
21
2025.0000006224859
31
0
0
CIRCLE
5
144
100
AcDbEntity
8
0
100
AcDbCircle
10
-35
20
2035.0000002533197
30
0
40
3.5000000000000404
210
0
220
0
230
1
0
LINE
5
145
100
AcDbEntity
8
0
100
AcDbLine
10
-35
20
2045.0000002533197
30
0
11
-26.532532687149821
21
2045.0000002533197
31
0
0
ARC
5
146
100
AcDbEntity
8
0
100
AcDbCircle
10
-24.952242208018511
20
2025.0000006226981
30
0
40
1.5000000000001692
210
0
220
0
230
1
100
AcDbArc
50
-45.054779451458302
51
180
0
ARC
5
147
100
AcDbEntity
8
0
100
AcDbCircle
10
-35
20
2035.0000002533197
30
0
40
10
210
0
220
-0
230
1
100
AcDbArc
50
90
51
180
0
ARC
5
148
100
AcDbEntity
8
0
100
AcDbCircle
10
-34.999999999876103
20
435.00000025488112
30
0
40
10.000000000000071
210
0
220
-0
230
1
100
AcDbArc
50
89.999999999999972
51
180
0
LINE
5
149
100
AcDbEntity
8
0
100
AcDbLine
10
-35.000002289908494
20
425.00000041649935
30
0
11
-26.452244827467972
21
425.00000046280093
31
0
0
ARC
5
150
100
AcDbEntity
8
0
100
AcDbCircle
10
-35.000002344076734
20
435.00000041699565
30
0
40
10.000000000496277
210
0
220
0
230
1
100
AcDbArc
50
179.99942948560437
51
270.0000003103612
0
ARC
5
151
100
AcDbEntity
8
0
100
AcDbCircle
10
-34.999997428359947
20
35.000000713390179
30
0
40
10
210
0
220
-0
230
1
100
AcDbArc
50
90
51
179.99999758516347
0
CIRCLE
5
152
100
AcDbEntity
8
0
100
AcDbCircle
10
-34.999997428366555
20
35.000008192958887
30
0
40
3.5000000000000004
210
0
220
0
230
1
0
LINE
5
153
100
AcDbEntity
8
0
100
AcDbLine
10
9.9999999999998508
20
-6.6858295347428808e-05
30
0
11
11.564693225308032
21
-6.6858295347428808e-05
31
0
0
LINE
5
154
100
AcDbEntity
8
0
100
AcDbLine
10
-44.999997428352607
20
35.000109212020377
30
0
11
-44.999997428359947
21
35.000001129507311
31
0
0
LINE
5
155
100
AcDbEntity
8
0
100
AcDbLine
10
-34.999999999876096
20
445.00000025488123
30
0
11
-26.532532687149821
21
445.00000025488123
31
0
0
ARC
5
156
100
AcDbEntity
8
0
100
AcDbCircle
10
-25.032532687149818
20
445.00000025488123
30
0
40
1.5000000000000036
210
0
220
0
230
1
100
AcDbArc
50
-180
51
0
0
ARC
5
157
100
AcDbEntity
8
0
100
AcDbCircle
10
-24.95224482746799
20
425.0000004730469
30
0
40
1.4999999999999742
210
0
220
0
230
1
100
AcDbArc
50
-45.054779068173573
51
180
0
LINE
5
158
100
AcDbEntity
8
0
100
AcDbLine
10
-23.532532687149814
20
445.00000025488123
30
0
11
-2.652474269390379e-06
21
445.00000025488123
31
0
0
LINE
5
159
100
AcDbEntity
8
0
100
AcDbLine
10
-23.892599211078217
20
423.9383267154048
30
0
11
-2.7210602207682591e-06
21
400.00000025488123
31
0
0
LINE
5
160
100
AcDbEntity
8
0
100
AcDbLine
10
-3.3307122221931767e-06
20
-6.6855990326075698e-05
30
0
11
11.517842969738115
21
-6.6855990326075698e-05
31
0
0
LINE
5
161
100
AcDbEntity
8
0
100
AcDbLine
10
398.82078520834955
20
2275.4208206332219
30
0
11
21.382067921508245
21
8.3576584712235409
31
0
0
LINE
5
162
100
AcDbEntity
8
0
100
AcDbLine
10
20.704190427225839
20
2324.2891166233471
30
0
11
20.71629195374404
21
2324.2886940281082
31
0
0
CIRCLE
5
163
100
AcDbEntity
8
0
100
AcDbCircle
10
20.355194948058767
20
2314.2952083710397
30
0
40
3.4999999999999964
210
0
220
0
230
1
0
LINE
5
164
100
AcDbEntity
8
0
100
AcDbLine
10
29.715776319026702
20
2295.4631480445441
30
0
11
30.361204737113681
21
2313.9457906396979
31
0
0
ARC
5
165
100
AcDbEntity
8
0
100
AcDbCircle
10
379.95007798772963
20
2301.6446295448172
30
0
40
10.00000897304475
210
-0
220
0
230
1
100
AcDbArc
50
-2.0000287705841129
51
87.999861583787123
0
ARC
5
166
100
AcDbEntity
8
0
100
AcDbCircle
10
379.93791559390468
20
2301.645054268919
30
0
40
10.000000000000064
210
0
220
-0
230
1
100
AcDbArc
50
87.999981077314771
51
177.99999897296127
0
ARC
5
167
100
AcDbEntity
8
0
100
AcDbCircle
10
20.367296474638025
20
2314.2947857775494
30
0
40
9.9999999982511607
210
-0
220
0
230
1
100
AcDbArc
50
-2.0000009797100016
51
87.999997063853669
0
CIRCLE
5
168
100
AcDbEntity
8
0
100
AcDbCircle
10
379.93791559390468
20
2301.645054268919
30
0
40
3.4999999999999964
210
0
220
0
230
1
0
LINE
5
169
100
AcDbEntity
8
0
100
AcDbLine
10
380.28691386154941
20
2311.6389624238495
30
0
11
380.29909709822192
21
2311.6385369718214
31
0
0
ARC
5
170
100
AcDbEntity
8
0
100
AcDbCircle
10
20.355194948058767
20
2314.2952083710397
30
0
40
10.000000000000785
210
0
220
-0
230
1
100
AcDbArc
50
87.999997063853669
51
177.99999721209571
0
LINE
5
171
100
AcDbEntity
8
0
100
AcDbLine
10
9.7158577063429679
20
2296.1615616185254
30
0
11
10.361286694848831
21
2314.6442038243495
31
0
0
LINE
5
172
100
AcDbEntity
8
0
100
AcDbLine
10
31.162513286185423
20
2293.9117124830263
30
0
11
369.24948136018082
21
2282.1054380541359
31
0
0
LINE
5
173
100
AcDbEntity
8
0
100
AcDbLine
10
369.30183063210598
20
2283.6045242937262
30
0
11
369.94400732996962
21
2301.9940494150869
31
0
0
LINE
5
174
100
AcDbEntity
8
0
100
AcDbLine
10
5.1744944089247848
20
2294.8192354333542
30
0
11
8.1644221504999859
21
2294.7148247024288
31
0
0
LINE
5
175
100
AcDbEntity
8
0
100
AcDbLine
10
389.24882269231648
20
2281.388783892095
30
0
11
389.24945904445366
21
2281.4070066062995
31
0
0
LINE
5
176
100
AcDbEntity
8
0
100
AcDbLine
10
31.162513286185423
20
2293.9117124830263
30
0
11
367.75039512233519
21
2282.1577873760198
31
0
0
LINE
5
177
100
AcDbEntity
8
0
100
AcDbLine
10
390.74843449421201
20
2281.3546599471842
30
0
11
394.06318131996414
21
2281.2389036002819
31
0
0
ARC
5
178
100
AcDbEntity
8
0
100
AcDbCircle
10
393.88867981538289
20
2276.2419567903944
30
0
40
4.9999928195894832
210
0
220
0
230
1
100
AcDbArc
50
-9.4523594223209333
51
87.99995102045726
0
ARC
5
179
100
AcDbEntity
8
0
100
AcDbCircle
10
4.9999966692872739
20
2289.8222813072025
30
0
40
5.0000000000004299
210
0
220
-0
230
1
100
AcDbArc
50
87.999997063234744
51
180
0
LINE
5
180
100
AcDbEntity
8
0
100
AcDbLine
10
-2.8244886719876979e-07
20
2000.0000002533261
30
0
11
-8.2351576127246893e-07
21
1645.000000253347
31
0
0
LINE
5
181
100
AcDbEntity
8
0
100
AcDbLine
10
-8.9210170559169618e-07
20
1600.000000253347
30
0
11
-1.4331685996653374e-06
21
1245.000000253415
31
0
0
LINE
5
182
100
AcDbEntity
8
0
100
AcDbLine
10
-1.5017545439845593e-06
20
1200.000000253415
30
0
11
-2.0428214380580245e-06
21
845.00000025361442
31
0
0
LINE
5
183
100
AcDbEntity
8
0
100
AcDbLine
10
-2.1114073823772326e-06
20
800.00000025361442
30
0
11
-2.652474269390379e-06
21
445.00000025488123
31
0
0
LINE
5
184
100
AcDbEntity
8
0
100
AcDbLine
10
-3.3293402457168497e-06
20
0.90071964460922083
30
0
11
-3.3307122221931767e-06
21
-6.6855990326075698e-05
31
0
0
ARC
5
185
100
AcDbEntity
8
0
100
AcDbCircle
10
11.517842969738115
20
9.9999331440096224
30
0
40
9.9999999999999485
210
0
220
0
230
1
100
AcDbArc
50
270
51
350.5476405776804
0
ARC
5
186
100
AcDbEntity
8
0
100
AcDbCircle
10
29.66342704833982
20
2293.9640618049107
30
0
40
1.499999999999899
210
0
220
-0
230
1
100
AcDbArc
50
87.99999902028965
51
357.99999706349956
0
ARC
5
187
100
AcDbEntity
8
0
100
AcDbCircle
10
9.6635083883456598
20
2294.662475380544
30
0
40
1.5000000000000386
210
0
220
0
230
1
100
AcDbArc
50
-182.00000293651757
51
87.999997212063008
0
ARC
5
188
100
AcDbEntity
8
0
100
AcDbCircle
10
389.24882269231648
20
2281.388783892095
30
0
40
1.5000000000000122
210
0
220
-0
230
1
100
AcDbArc
50
87.999997063829667
51
358.69644886311431
0
LINE
5
189
100
AcDbEntity
8
0
100
AcDbLine
10
389.24882269231648
20
2281.388783892095
30
0
11
389.24945904445366
21
2281.4070066062995
31
0
0
LINE
5
190
100
AcDbEntity
8
0
100
AcDbLine
10
389.30117201419216
20
2282.8878701299409
30
0
11
389.94399505025291
21
2301.2956292462777
31
0
0
ARC
5
191
100
AcDbEntity
8
0
100
AcDbCircle
10
369.24948136018082
20
2282.1054380541359
30
0
40
1.4999999999999523
210
0
220
0
230
1
100
AcDbArc
50
-182.00000293648296
51
87.999998972962459
0
LINE
5
192
100
AcDbEntity
8
0
100
AcDbLine
10
-23.532532687149814
20
2245.0000002533197
30
0
11
-2.1386292287956531e-07
21
2245.0000002533261
31
0
0
ARC
5
193
100
AcDbEntity
8
0
100
AcDbCircle
10
-25.032532687149818
20
2245.0000002533197
30
0
40
1.5000000000000036
210
0
220
0
230
1
100
AcDbArc
50
-180
51
0
0
LINE
5
194
100
AcDbEntity
8
0
100
AcDbLine
10
-35
20
2245.0000002533197
30
0
11
-26.532532687149821
21
2245.0000002533197
31
0
0
ARC
5
195
100
AcDbEntity
8
0
100
AcDbCircle
10
-35
20
2235.0000002533197
30
0
40
10
210
0
220
-0
230
1
100
AcDbArc
50
90
51
180
0
ARC
5
196
100
AcDbEntity
8
0
100
AcDbCircle
10
-35.000000209639353
20
2235.0000006221021
30
0
40
10.000000000496286
210
0
220
0
230
1
100
AcDbArc
50
179.99942918287675
51
270.00000000590251
0
CIRCLE
5
197
100
AcDbEntity
8
0
100
AcDbCircle
10
-35
20
2235.0000002533197
30
0
40
3.5000000000000404
210
0
220
0
230
1
0
LINE
5
198
100
AcDbEntity
8
0
100
AcDbLine
10
-35.000000208609173
20
2225.0000006216055
30
0
11
-26.452242208018639
21
2225.0000006224859
31
0
0
ARC
5
199
100
AcDbEntity
8
0
100
AcDbCircle
10
-24.952242208018511
20
2225.0000006226983
30
0
40
1.5000000000001692
210
0
220
0
230
1
100
AcDbArc
50
-45.054779451464405
51
180
0
LINE
5
200
100
AcDbEntity
8
0
100
AcDbLine
10
-23.892596598730758
20
2223.9383268579672
30
0
11
-2.8244886719876979e-07
21
2200.0000002533261
31
0
0
LINE
5
201
100
AcDbEntity
8
0
100
AcDbLine
10
-3.3307131557081302e-06
20
2289.822281243547
30
0
11
-2.1386292287956531e-07
21
2245.0000002533261
31
0
0
LINE
5
202
100
AcDbEntity
8
0
100
AcDbLine
10
-2.8244886719876979e-07
20
2200.0000002533261
30
0
11
-2.1386292287956531e-07
21
2045.0000002533261
31
0
0
LINE
5
203
100
AcDbEntity
8
0
100
AcDbLine
10
1000
20
0
30
0
11
1000
21
1000
31
0
0
ENDSEC
0
SECTION
2
OBJECTS
0
DICTIONARY
5
C
100
AcDbDictionary
3
ACAD_GROUP
350
D
3
ACAD_MLINESTYLE
350
17
0
DICTIONARY
5
D
100
AcDbDictionary
0
DICTIONARY
5
1A
330
C
100
AcDbDictionary
0
DICTIONARY
5
17
100
AcDbDictionary
0
ENDSEC
0
EOF
