0
SECTION
2
HEADER
9
$INSUNITS
70
4
9
$ACADVER
1
AC1014
9
$HANDSEED
5
FFFF
0
ENDSEC
0
SECTION
2
TABLES
0
TABLE
2
VPORT
5
8
100
AcDbSymbolTable
0
ENDTAB
0
TABLE
2
LTYPE
5
5
100
AcDbSymbolTable
0
LTYPE
5
14
100
AcDbSymbolTableRecord
100
AcDbLinetypeTableRecord
2
BYBLOCK
70
0
0
LTYPE
5
15
100
AcDbSymbolTableRecord
100
AcDbLinetypeTableRecord
2
BYLAYER
70
0
0
ENDTAB
0
TABLE
2
LAYER
5
2
100
AcDbSymbolTable
70
2
0
LAYER
5
50
100
AcDbSymbolTableRecord
100
AcDbLayerTableRecord
2
0
70
0
6
CONTINUOUS
0
ENDTAB
0
TABLE
2
STYLE
5
3
100
AcDbSymbolTable
70
1
0
STYLE
5
11
100
AcDbSymbolTableRecord
100
AcDbTextStyleTableRecord
2
STANDARD
70
0
0
ENDTAB
0
TABLE
2
VIEW
5
6
100
AcDbSymbolTable
70
0
0
ENDTAB
0
TABLE
2
UCS
5
7
100
AcDbSymbolTable
70
0
0
ENDTAB
0
TABLE
2
APPID
5
9
100
AcDbSymbolTable
70
2
0
APPID
5
12
100
AcDbSymbolTableRecord
100
AcDbRegAppTableRecord
2
ACAD
70
0
0
ENDTAB
0
TABLE
2
DIMSTYLE
5
A
100
AcDbSymbolTable
70
1
0
ENDTAB
0
TABLE
2
BLOCK_RECORD
5
1
100
AcDbSymbolTable
70
1
0
BLOCK_RECORD
5
1F
100
AcDbSymbolTableRecord
100
AcDbBlockTableRecord
2
*MODEL_SPACE
0
BLOCK_RECORD
5
1B
100
AcDbSymbolTableRecord
100
AcDbBlockTableRecord
2
*PAPER_SPACE
0
ENDTAB
0
ENDSEC
0
SECTION
2
BLOCKS
0
BLOCK
5
20
100
AcDbEntity
100
AcDbBlockBegin
2
*MODEL_SPACE
0
ENDBLK
5
21
100
AcDbEntity
100
AcDbBlockEnd
0
BLOCK
5
1C
100
AcDbEntity
100
AcDbBlockBegin
2
*PAPER_SPACE
0
ENDBLK
5
1D
100
AcDbEntity
100
AcDbBlockEnd
0
ENDSEC
0
SECTION
2
ENTITIES
0
LINE
5
100
100
AcDbEntity
8
0
100
AcDbLine
10
146
20
0
30
0
11
8167.6594931547424
21
0
31
0
0
LWPOLYLINE
5
101
100
AcDbEntity
8
0
100
AcDbPolyline
90
8
70
1
43
0.0
10
1789.0475032799693
20
5752.5157803387065
10
5.1744974835133277
20
5814.809998376676
42
0.42447481620927113
10
-7.6938455606523348e-13
20
5809.8130442415804
10
-2.120525977034049e-13
20
4570.0000140750053
42
0.41421234769873022
10
4.999979264203489
20
4565.000014075049
10
1451.2231792206023
20
4564.9940163569563
42
0.33459647236508538
10
1456.0295084360903
20
4568.6158295778278
10
1793.6793142761485
20
5746.140639424525
42
0.48773258856568935
0
LINE
5
102
100
AcDbEntity
8
0
100
AcDbLine
10
0
20
5814.990695810533
30
0
11
2150.9820525848045
21
5814.990695810533
31
0
0
LWPOLYLINE
5
103
100
AcDbEntity
8
0
100
AcDbPolyline
90
8
70
1
43
0.0
10
1446.9220450206556
20
4559.9940341944439
10
5.0000207357968414
20
4560.0000140748771
42
0.41421477704838766
10
-3.3306690738754696e-15
20
4555.0000140749198
10
-1.7652546091539989e-13
20
3315.0000140750058
42
0.41421234769872994
10
4.9999792642033469
20
3310.000014075049
10
1091.3581480371683
20
3309.9955087745916
42
0.33459647236496726
10
1096.1644772526572
20
3313.617321995464
10
1451.7283327645507
20
4553.6158474154026
42
0.49858031353533644
0
LWPOLYLINE
5
104
100
AcDbEntity
8
0
100
AcDbPolyline
90
8
70
1
43
0.0
10
1087.0570138372227
20
3304.995526612081
10
5.0000207357968396
20
3305.0000140748766
42
0.41421477704838744
10
0
20
3300.0000140749194
10
7.7715611723760958e-15
20
2060.0000140750053
42
0.41421234769878612
10
4.9999792642030627
20
2055.0000140750485
10
731.49311685373573
20
2054.9970011922273
42
0.3345964723651243
10
736.29944606922413
20
2058.6188144130992
10
1091.8633015811176
20
3298.6173398330393
42
0.49858031353533006
0
LWPOLYLINE
5
105
100
AcDbEntity
8
0
100
AcDbPolyline
90
8
70
1
43
0.0
10
727.19198265378907
20
2049.9970190297163
10
5.0000207357968387
20
2050.0000140748766
42
0.41421477704852261
10
-1.1102230246251565e-15
20
2045.0000140749196
10
-4.6629367034256575e-14
20
805.00001407500577
42
0.41421234769876292
10
4.9999792642030627
20
800.00001407504885
10
371.6280856703022
20
799.99849360986229
42
0.33459647236509299
10
376.4344148857906
20
803.62030683073453
10
731.99827039768388
20
2043.6188322506741
42
0.49858031353525645
0
LWPOLYLINE
5
106
100
AcDbEntity
8
0
100
AcDbPolyline
90
8
70
1
43
0.0
10
367.32695147035599
20
794.99851144735158
10
5.0000207357968405
20
795.00001407487684
42
0.41421477704843762
10
0
20
790.00001407491982
10
0
20
25
42
0.41421356237309548
10
5
20
20
10
147.96713746466222
20
20
42
0.33459531950207183
10
152.77344594435377
20
23.621813220915016
10
372.13323921425069
20
788.62032466830954
42
0.49858031353529852
0
CIRCLE
5
107
100
AcDbEntity
8
0
100
AcDbCircle
10
22.508378983796753
20
5769.6292400868624
30
0
40
2.5000000000000115
210
0
220
0
230
1
0
CIRCLE
5
108
100
AcDbEntity
8
0
100
AcDbCircle
10
1731.4490286477462
20
5710.0000386731172
30
0
40
2.4999999999998392
210
0
220
0
230
1
0
LINE
5
109
100
AcDbEntity
8
0
100
AcDbLine
10
1731.4490286477462
20
5710.0000386731172
30
0
11
3731.4490286477462
21
5710.0000386731172
31
0
0
CIRCLE
5
110
100
AcDbEntity
8
0
100
AcDbCircle
10
592.50837898379677
20
5749.5575771286676
30
0
40
2.5000000000000115
210
0
220
0
230
1
0
CIRCLE
5
111
100
AcDbEntity
8
0
100
AcDbCircle
10
1161.8141333078465
20
5729.6769821115922
30
0
40
2.5000000000000115
210
0
220
0
230
1
0
CIRCLE
5
112
100
AcDbEntity
8
0
100
AcDbCircle
10
22.5
20
4575
30
0
40
2.5000000000001084
210
0
220
0
230
1
0
CIRCLE
5
113
100
AcDbEntity
8
0
100
AcDbCircle
10
1406.0349703826635
20
4575.146351650581
30
0
40
2.5000000000000138
210
0
220
0
230
1
0
CIRCLE
5
114
100
AcDbEntity
8
0
100
AcDbCircle
10
483.5
20
4575
30
0
40
2.5000000000001084
210
0
220
0
230
1
0
CIRCLE
5
115
100
AcDbEntity
8
0
100
AcDbCircle
10
944.5
20
4575
30
0
40
2.5000000000001084
210
0
220
0
230
1
0
CIRCLE
5
116
100
AcDbEntity
8
0
100
AcDbCircle
10
22.5
20
4550
30
0
40
2.5000000000001084
210
0
220
0
230
1
0
CIRCLE
5
117
100
AcDbEntity
8
0
100
AcDbCircle
10
483.5
20
4550
30
0
40
2.5000000000001084
210
0
220
0
230
1
0
CIRCLE
5
118
100
AcDbEntity
8
0
100
AcDbCircle
10
944.5
20
4550
30
0
40
2.5000000000001084
210
0
220
0
230
1
0
CIRCLE
5
119
100
AcDbEntity
8
0
100
AcDbCircle
10
1398.8444440489457
20
4550.0700062555543
30
0
40
2.499999999999893
210
0
220
0
230
1
0
CIRCLE
5
120
100
AcDbEntity
8
0
100
AcDbCircle
10
22.508378983796753
20
5371.6292400868633
30
0
40
2.5000000000000115
210
0
220
0
230
1
0
CIRCLE
5
121
100
AcDbEntity
8
0
100
AcDbCircle
10
22.508378983796753
20
4973.6292400868624
30
0
40
2.5000000000000115
210
0
220
0
230
1
0
CIRCLE
5
122
100
AcDbEntity
8
0
100
AcDbCircle
10
1520.3193345782304
20
4973.6630892643943
30
0
40
2.5000000000000115
210
0
220
0
230
1
0
CIRCLE
5
123
100
AcDbEntity
8
0
100
AcDbCircle
10
1634.5272961761621
20
5371.2410983101527
30
0
40
2.5000000000000115
210
0
220
0
230
1
0
CIRCLE
5
124
100
AcDbEntity
8
0
100
AcDbCircle
10
22.5
20
3320
30
0
40
2.5000000000001084
210
0
220
0
230
1
0
CIRCLE
5
125
100
AcDbEntity
8
0
100
AcDbCircle
10
22.5
20
4140
30
0
40
2.5000000000001084
210
0
220
0
230
1
0
CIRCLE
5
126
100
AcDbEntity
8
0
100
AcDbCircle
10
22.5
20
3730
30
0
40
2.5000000000001084
210
0
220
0
230
1
0
CIRCLE
5
127
100
AcDbEntity
8
0
100
AcDbCircle
10
22.5
20
3320
30
0
40
2.5000000000001084
210
0
220
0
230
1
0
CIRCLE
5
128
100
AcDbEntity
8
0
100
AcDbCircle
10
22.5
20
4140
30
0
40
2.5000000000001084
210
0
220
0
230
1
0
CIRCLE
5
129
100
AcDbEntity
8
0
100
AcDbCircle
10
22.5
20
4550
30
0
40
2.5000000000001084
210
0
220
0
230
1
0
CIRCLE
5
130
100
AcDbEntity
8
0
100
AcDbCircle
10
22.5
20
2065
30
0
40
2.5000000000001084
210
0
220
0
230
1
0
CIRCLE
5
131
100
AcDbEntity
8
0
100
AcDbCircle
10
22.5
20
2885
30
0
40
2.5000000000001084
210
0
220
0
230
1
0
CIRCLE
5
132
100
AcDbEntity
8
0
100
AcDbCircle
10
22.5
20
3295
30
0
40
2.5000000000001084
210
0
220
0
230
1
0
CIRCLE
5
133
100
AcDbEntity
8
0
100
AcDbCircle
10
22.5
20
810
30
0
40
2.5000000000001084
210
0
220
0
230
1
0
CIRCLE
5
134
100
AcDbEntity
8
0
100
AcDbCircle
10
22.5
20
1630
30
0
40
2.5000000000001084
210
0
220
0
230
1
0
CIRCLE
5
135
100
AcDbEntity
8
0
100
AcDbCircle
10
22.5
20
2040
30
0
40
2.5000000000001084
210
0
220
0
230
1
0
CIRCLE
5
136
100
AcDbEntity
8
0
100
AcDbCircle
10
22.5
20
-445
30
0
40
2.5000000000001084
210
0
220
0
230
1
0
CIRCLE
5
137
100
AcDbEntity
8
0
100
AcDbCircle
10
22.5
20
375
30
0
40
2.5000000000001084
210
0
220
0
230
1
0
CIRCLE
5
138
100
AcDbEntity
8
0
100
AcDbCircle
10
22.5
20
785
30
0
40
2.5000000000001084
210
0
220
0
230
1
0
CIRCLE
5
139
100
AcDbEntity
8
0
100
AcDbCircle
10
326.34332910227101
20
809.81412695504105
30
0
40
2.4999999999999352
210
0
220
0
230
1
0
CIRCLE
5
140
100
AcDbEntity
8
0
100
AcDbCircle
10
319.20695136200919
20
784.92662014694702
30
0
40
2.5000000000000364
210
0
220
0
230
1
0
CIRCLE
5
141
100
AcDbEntity
8
0
100
AcDbCircle
10
201.64036618819267
20
374.92321289872734
30
0
40
2.4999999999999942
210
0
220
0
230
1
0
CIRCLE
5
142
100
AcDbEntity
8
0
100
AcDbCircle
10
22.500000298023224
20
150.00000223517418
30
0
40
2.4999999999999996
210
0
220
0
230
1
0
CIRCLE
5
143
100
AcDbEntity
8
0
100
AcDbCircle
10
22.5
20
1220
30
0
40
2.4999999999999889
210
0
220
0
230
1
0
CIRCLE
5
144
100
AcDbEntity
8
0
100
AcDbCircle
10
22.5
20
2475
30
0
40
2.5000000000000142
210
0
220
0
230
1
0
CIRCLE
5
145
100
AcDbEntity
8
0
100
AcDbCircle
10
1046.1364878544132
20
3320.0311853651351
30
0
40
2.5000000000000488
210
0
220
0
230
1
0
CIRCLE
5
146
100
AcDbEntity
8
0
100
AcDbCircle
10
1038.9497629195853
20
3294.9680970235045
30
0
40
2.5000000000000195
210
0
220
0
230
1
0
CIRCLE
5
147
100
AcDbEntity
8
0
100
AcDbCircle
10
686.26825879233979
20
2065.021525454611
30
0
40
2.4999999999999973
210
0
220
0
230
1
0
CIRCLE
5
148
100
AcDbEntity
8
0
100
AcDbCircle
10
679.07459160893211
20
2039.9342266150109
30
0
40
2.4999999999999325
210
0
220
0
230
1
0
CIRCLE
5
149
100
AcDbEntity
8
0
100
AcDbCircle
10
1163.8794814134274
20
3730.0080896310456
30
0
40
2.5000000000001084
210
0
220
0
230
1
0
CIRCLE
5
150
100
AcDbEntity
8
0
100
AcDbCircle
10
1281.2850420120833
20
4139.8082866252762
30
0
40
2.5000000000001084
210
0
220
0
230
1
0
CIRCLE
5
151
100
AcDbEntity
8
0
100
AcDbCircle
10
534.13648785441319
20
3320.0311853651351
30
0
40
2.5000000000000488
210
0
220
0
230
1
0
CIRCLE
5
152
100
AcDbEntity
8
0
100
AcDbCircle
10
534.13648785441319
20
3295.0311853651351
30
0
40
2.5000000000000488
210
0
220
0
230
1
0
CIRCLE
5
153
100
AcDbEntity
8
0
100
AcDbCircle
10
354.26825879233974
20
2065.021525454611
30
0
40
2.4999999999999973
210
0
220
0
230
1
0
CIRCLE
5
154
100
AcDbEntity
8
0
100
AcDbCircle
10
354.26825879233974
20
2040.021525454611
30
0
40
2.4999999999999973
210
0
220
0
230
1
0
CIRCLE
5
155
100
AcDbEntity
8
0
100
AcDbCircle
10
561.56178778276683
20
1629.8537230043521
30
0
40
2.5000000000001084
210
0
220
0
230
1
0
CIRCLE
5
156
100
AcDbEntity
8
0
100
AcDbCircle
10
443.92951427166565
20
1220.0493549859823
30
0
40
2.4999999999999889
210
0
220
0
230
1
0
CIRCLE
5
157
100
AcDbEntity
8
0
100
AcDbCircle
10
803.80140322571356
20
2475.028244509851
30
0
40
2.5000000000000142
210
0
220
0
230
1
0
CIRCLE
5
158
100
AcDbEntity
8
0
100
AcDbCircle
10
921.24692675786889
20
2884.963840517828
30
0
40
2.5000000000001084
210
0
220
0
230
1
0
LINE
5
159
100
AcDbEntity
8
0
100
AcDbLine
10
1000
20
0
30
0
11
1000
21
1000
31
0
0
ENDSEC
0
SECTION
2
OBJECTS
0
DICTIONARY
5
C
100
AcDbDictionary
3
ACAD_GROUP
350
D
3
ACAD_MLINESTYLE
350
17
0
DICTIONARY
5
D
100
AcDbDictionary
0
DICTIONARY
5
1A
330
C
100
AcDbDictionary
0
DICTIONARY
5
17
100
AcDbDictionary
0
ENDSEC
0
EOF
