0
SECTION
2
HEADER
9
$INSUNITS
70
4
9
$ACADVER
1
AC1014
9
$HANDSEED
5
FFFF
0
ENDSEC
0
SECTION
2
TABLES
0
TABLE
2
VPORT
5
8
100
AcDbSymbolTable
0
ENDTAB
0
TABLE
2
LTYPE
5
5
100
AcDbSymbolTable
0
LTYPE
5
14
100
AcDbSymbolTableRecord
100
AcDbLinetypeTableRecord
2
BYBLOCK
70
0
0
LTYPE
5
15
100
AcDbSymbolTableRecord
100
AcDbLinetypeTableRecord
2
BYLAYER
70
0
0
ENDTAB
0
TABLE
2
LAYER
5
2
100
AcDbSymbolTable
70
2
0
LAYER
5
50
100
AcDbSymbolTableRecord
100
AcDbLayerTableRecord
2
0
70
0
6
CONTINUOUS
0
ENDTAB
0
TABLE
2
STYLE
5
3
100
AcDbSymbolTable
70
1
0
STYLE
5
11
100
AcDbSymbolTableRecord
100
AcDbTextStyleTableRecord
2
STANDARD
70
0
0
ENDTAB
0
TABLE
2
VIEW
5
6
100
AcDbSymbolTable
70
0
0
ENDTAB
0
TABLE
2
UCS
5
7
100
AcDbSymbolTable
70
0
0
ENDTAB
0
TABLE
2
APPID
5
9
100
AcDbSymbolTable
70
2
0
APPID
5
12
100
AcDbSymbolTableRecord
100
AcDbRegAppTableRecord
2
ACAD
70
0
0
ENDTAB
0
TABLE
2
DIMSTYLE
5
A
100
AcDbSymbolTable
70
1
0
ENDTAB
0
TABLE
2
BLOCK_RECORD
5
1
100
AcDbSymbolTable
70
1
0
BLOCK_RECORD
5
1F
100
AcDbSymbolTableRecord
100
AcDbBlockTableRecord
2
*MODEL_SPACE
0
BLOCK_RECORD
5
1B
100
AcDbSymbolTableRecord
100
AcDbBlockTableRecord
2
*PAPER_SPACE
0
ENDTAB
0
ENDSEC
0
SECTION
2
BLOCKS
0
BLOCK
5
20
100
AcDbEntity
100
AcDbBlockBegin
2
*MODEL_SPACE
0
ENDBLK
5
21
100
AcDbEntity
100
AcDbBlockEnd
0
BLOCK
5
1C
100
AcDbEntity
100
AcDbBlockBegin
2
*PAPER_SPACE
0
ENDBLK
5
1D
100
AcDbEntity
100
AcDbBlockEnd
0
ENDSEC
0
SECTION
2
ENTITIES
0
LINE
5
100
100
AcDbEntity
8
0
100
AcDbLine
10
35.248962810348758
20
0
30
0
11
7300.7352543677207
21
0
31
0
0
LWPOLYLINE
5
101
100
AcDbEntity
8
0
100
AcDbPolyline
90
8
70
1
43
0.0
10
5
20
-5.5511151231257827e-16
10
31.481192559834788
20
-3.3306690738754696e-15
42
0.33459531950207305
10
36.287501039526369
20
3.6218132209150156
10
267.40430689741515
20
809.62190018409171
42
0.49858160805344465
10
262.59799841772372
20
816.00008696317673
10
4.9999999999999982
20
816.00008696317673
42
0.41421356237309792
10
0
20
811.00008696317673
10
-5.5511151231257827e-16
20
5
42
0.41421356237309515
0
LWPOLYLINE
5
102
100
AcDbEntity
8
0
100
AcDbPolyline
90
8
70
1
43
0.0
10
5.1744974835131075
20
5835.847392334389
10
1685.3670326008867
20
5777.1737761138011
42
-0.48773258856611584
10
1689.998843597064
20
5770.7986351996205
10
1351.2636182508609
20
4589.4885176895605
42
-0.33459531950199939
10
1346.4573097711691
20
4585.8667044686463
10
4.999999999999992
20
4585.8667044686463
42
-0.41421356237309775
10
-7.7715611723760958e-15
20
4590.8667044686463
10
-7.6938455606523348e-13
20
5830.8504381992934
42
-0.42447481620925864
0
LWPOLYLINE
5
103
100
AcDbEntity
8
0
100
AcDbPolyline
90
8
70
1
43
0.0
10
1342.1943757996357
20
4581.0000869631776
10
4.9999999999999964
20
4581.0000869631776
42
0.41421356237313112
10
0
20
4576.0000869631767
10
5.1902926401226068e-13
20
3336.0000869631767
42
0.41421356237313112
10
5
20
3331.0000869631767
10
986.63009745871318
20
3331.0000869631767
42
0.33459531950211269
10
991.43640593840473
20
3334.6219001840918
10
1347.0006842793271
20
4574.6219001840918
42
0.49858160805352242
0
LWPOLYLINE
5
104
100
AcDbEntity
8
0
100
AcDbPolyline
90
8
70
1
43
0.0
10
982.32891667233071
20
3326.0000869631767
10
4.9999999999999982
20
3326.0000869631772
42
0.41421356237313112
10
0
20
3321.0000869631767
10
0
20
2081.0000869631767
42
0.41421356237309781
10
5
20
2076.0000869631767
10
626.76463833140951
20
2076.0000869631767
42
0.33459531950204813
10
631.57094681110107
20
2079.6219001840918
10
987.13522515202249
20
3319.6219001840918
42
0.49858160805344942
0
LWPOLYLINE
5
105
100
AcDbEntity
8
0
100
AcDbPolyline
90
8
70
1
43
0.0
10
622.4634575450275
20
2071.0000869631767
10
4.9999999999999991
20
2071.0000869631767
42
0.41421356237309798
10
-4.9960036108132044e-14
20
2066.0000869631767
10
-4.9960036108132044e-14
20
826.00008696317673
42
0.41421356237309803
10
5
20
821.00008696317673
10
266.89917920410562
20
821.00008696317684
42
0.33459531950206617
10
271.70548768379723
20
824.62190018409171
10
627.26976602471893
20
2064.6219001840918
42
0.49858160805341462
0
LINE
5
106
100
AcDbEntity
8
0
100
AcDbLine
10
0
20
5836.028089768246
30
0
11
-0.78523867580627016
21
5813.5417961603162
31
0
0
CIRCLE
5
107
100
AcDbEntity
8
0
100
AcDbCircle
10
25.00954013344748
20
5812.6410226354274
30
0
40
2.4999999999999898
210
0
220
0
230
1
0
CIRCLE
5
108
100
AcDbEntity
8
0
100
AcDbCircle
10
25.00954013344748
20
5212.6410226354274
30
0
40
2.4999999999999898
210
0
220
0
230
1
0
CIRCLE
5
109
100
AcDbEntity
8
0
100
AcDbCircle
10
25.00954013344748
20
4612.6410226354274
30
0
40
2.4999999999999898
210
0
220
0
230
1
0
CIRCLE
5
110
100
AcDbEntity
8
0
100
AcDbCircle
10
25
20
4556
30
0
40
2.5000000000001501
210
0
220
0
230
1
0
CIRCLE
5
111
100
AcDbEntity
8
0
100
AcDbCircle
10
25
20
3956
30
0
40
2.5000000000001501
210
0
220
0
230
1
0
CIRCLE
5
112
100
AcDbEntity
8
0
100
AcDbCircle
10
25
20
3356
30
0
40
2.5000000000001501
210
0
220
0
230
1
0
CIRCLE
5
113
100
AcDbEntity
8
0
100
AcDbCircle
10
25.00000037252903
20
3301.0000491887331
30
0
40
2.4999999999998099
210
0
220
0
230
1
0
CIRCLE
5
114
100
AcDbEntity
8
0
100
AcDbCircle
10
25.00000037252903
20
2701.0000491887331
30
0
40
2.4999999999998099
210
0
220
0
230
1
0
CIRCLE
5
115
100
AcDbEntity
8
0
100
AcDbCircle
10
25.00000037252903
20
2101.0000491887331
30
0
40
2.4999999999998099
210
0
220
0
230
1
0
CIRCLE
5
116
100
AcDbEntity
8
0
100
AcDbCircle
10
25.00000037252903
20
2046.0000304877758
30
0
40
2.4999999999999623
210
0
220
0
230
1
0
CIRCLE
5
117
100
AcDbEntity
8
0
100
AcDbCircle
10
25.00000037252903
20
1446.0000304877758
30
0
40
2.4999999999999623
210
0
220
0
230
1
0
CIRCLE
5
118
100
AcDbEntity
8
0
100
AcDbCircle
10
25.00000037252903
20
846.0000304877758
30
0
40
2.4999999999999623
210
0
220
0
230
1
0
CIRCLE
5
119
100
AcDbEntity
8
0
100
AcDbCircle
10
25.00000037252903
20
791.0000117868185
30
0
40
2.4999999999999769
210
0
220
0
230
1
0
CIRCLE
5
120
100
AcDbEntity
8
0
100
AcDbCircle
10
462.73576885752516
20
2045.9008195774682
30
0
40
2.5000000000000022
210
0
220
0
230
1
0
CIRCLE
5
121
100
AcDbEntity
8
0
100
AcDbCircle
10
290.44187284585325
20
1444.5217612113174
30
0
40
2.5000000000000022
210
0
220
0
230
1
0
CIRCLE
5
122
100
AcDbEntity
8
0
100
AcDbCircle
10
118.68708818977865
20
846.06048123236008
30
0
40
2.5000000000000089
210
0
220
0
230
1
0
CIRCLE
5
123
100
AcDbEntity
8
0
100
AcDbCircle
10
478.58312531623568
20
2101.1671193882703
30
0
40
2.5000000000000244
210
0
220
0
230
1
0
CIRCLE
5
124
100
AcDbEntity
8
0
100
AcDbCircle
10
650.60192315778272
20
2701.067959593031
30
0
40
2.5000000000000169
210
0
220
0
230
1
0
CIRCLE
5
125
100
AcDbEntity
8
0
100
AcDbCircle
10
822.62968161798983
20
3301.0000491887331
30
0
40
2.5000000000001021
210
0
220
0
230
1
0
CIRCLE
5
126
100
AcDbEntity
8
0
100
AcDbCircle
10
838.4006637300821
20
3356
30
0
40
2.4999999999999258
210
0
220
0
230
1
0
CIRCLE
5
127
100
AcDbEntity
8
0
100
AcDbCircle
10
1010.4479120887186
20
3956.0000589489937
30
0
40
2.4999999999999964
210
0
220
0
230
1
0
CIRCLE
5
128
100
AcDbEntity
8
0
100
AcDbCircle
10
1182.4951307255569
20
4556.0000142457575
30
0
40
2.5000000000000568
210
0
220
0
230
1
0
CIRCLE
5
129
100
AcDbEntity
8
0
100
AcDbCircle
10
603.75
20
4556
30
0
40
2.5000000000001501
210
0
220
0
230
1
0
CIRCLE
5
130
100
AcDbEntity
8
0
100
AcDbCircle
10
603.75
20
4611
30
0
40
2.5000000000001501
210
0
220
0
230
1
0
CIRCLE
5
131
100
AcDbEntity
8
0
100
AcDbCircle
10
1198.2998449392974
20
4611.1176028755344
30
0
40
2.5000000000001177
210
0
220
0
230
1
0
CIRCLE
5
132
100
AcDbEntity
8
0
100
AcDbCircle
10
1370.7839099813052
20
5212.6410226354274
30
0
40
2.5000000000001732
210
0
220
0
230
1
0
CIRCLE
5
133
100
AcDbEntity
8
0
100
AcDbCircle
10
1527.7833123520454
20
5760.1630061375381
30
0
40
2.5000000000002505
210
0
220
0
230
1
0
CIRCLE
5
134
100
AcDbEntity
8
0
100
AcDbCircle
10
500.45848352013468
20
5796.0379796783263
30
0
40
2.4999999999999769
210
0
220
0
230
1
0
CIRCLE
5
135
100
AcDbEntity
8
0
100
AcDbCircle
10
999.66867789280536
20
5778.6051755527078
30
0
40
2.5000000000000004
210
0
220
0
230
1
0
ENDSEC
0
SECTION
2
OBJECTS
0
DICTIONARY
5
C
100
AcDbDictionary
3
ACAD_GROUP
350
D
3
ACAD_MLINESTYLE
350
17
0
DICTIONARY
5
D
100
AcDbDictionary
0
DICTIONARY
5
1A
330
C
100
AcDbDictionary
0
DICTIONARY
5
17
100
AcDbDictionary
0
ENDSEC
0
EOF
